<svg width="34" height="34" viewBox="0 0 34 34" fill="none" xmlns="http://www.w3.org/2000/svg">
<rect width="34" height="34" rx="10" fill="#FEE2E2"/>
<path d="M23.8032 11.9225C22.5957 11.8025 21.3882 11.7125 20.1732 11.645V11.6375L20.0082 10.6625C19.8957 9.9725 19.7307 8.9375 17.9757 8.9375H16.0107C14.2632 8.9375 14.0982 9.9275 13.9782 10.655L13.8207 11.615C13.1232 11.66 12.4257 11.705 11.7282 11.7725L10.1982 11.9225C9.88323 11.9525 9.65823 12.23 9.68823 12.5375C9.71823 12.845 9.98823 13.07 10.3032 13.04L11.8332 12.89C15.7632 12.5 19.7232 12.65 23.6982 13.0475C23.7207 13.0475 23.7357 13.0475 23.7582 13.0475C24.0432 13.0475 24.2907 12.83 24.3207 12.5375C24.3432 12.23 24.1182 11.9525 23.8032 11.9225Z" fill="#B91C1C"/>
<path opacity="0.3991" d="M22.4218 14.105C22.2418 13.9175 21.9943 13.8125 21.7393 13.8125H12.2593C12.0043 13.8125 11.7493 13.9175 11.5768 14.105C11.4043 14.2925 11.3068 14.5475 11.3218 14.81L11.7868 22.505C11.8693 23.645 11.9743 25.07 14.5918 25.07H19.4068C22.0243 25.07 22.1293 23.6525 22.2118 22.505L22.6768 14.8175C22.6918 14.5475 22.5943 14.2925 22.4218 14.105Z" fill="#B91C1C"/>
<path fill-rule="evenodd" clip-rule="evenodd" d="M15.1855 20.75C15.1855 20.4393 15.4374 20.1875 15.748 20.1875H18.2455C18.5562 20.1875 18.808 20.4393 18.808 20.75C18.808 21.0607 18.5562 21.3125 18.2455 21.3125H15.748C15.4374 21.3125 15.1855 21.0607 15.1855 20.75Z" fill="#B91C1C"/>
<path fill-rule="evenodd" clip-rule="evenodd" d="M14.5625 17.75C14.5625 17.4393 14.8143 17.1875 15.125 17.1875H18.875C19.1857 17.1875 19.4375 17.4393 19.4375 17.75C19.4375 18.0607 19.1857 18.3125 18.875 18.3125H15.125C14.8143 18.3125 14.5625 18.0607 14.5625 17.75Z" fill="#B91C1C"/>
</svg>
