<svg width="37" height="35" viewBox="0 0 37 35" fill="none" xmlns="http://www.w3.org/2000/svg">
<rect width="37" height="35" rx="6" fill="#F1F5F9"/>
<path fill-rule="evenodd" clip-rule="evenodd" d="M14.3557 9H20.0394L24.8565 14.021V23.7869C24.8565 25.0102 23.8667 26 22.6476 26H14.3557C13.1323 26 12.1426 25.0102 12.1426 23.7869V11.2131C12.1426 9.98975 13.1323 9 14.3557 9Z" fill="#E5252A"/>
<path opacity="0.302" fill-rule="evenodd" clip-rule="evenodd" d="M20.0352 9V13.9828H24.8565L20.0352 9Z" fill="white"/>
<path d="M14.6016 21.6841V18.5789H15.9227C16.2497 18.5789 16.5089 18.6681 16.7043 18.8507C16.8997 19.0291 16.9974 19.2713 16.9974 19.5729C16.9974 19.8745 16.8997 20.1166 16.7043 20.295C16.5089 20.4777 16.2497 20.5669 15.9227 20.5669H15.3959V21.6841H14.6016ZM15.3959 19.8915H15.8335C15.9524 19.8915 16.0458 19.866 16.1096 19.8065C16.1733 19.7513 16.2073 19.6748 16.2073 19.5729C16.2073 19.4709 16.1733 19.3945 16.1096 19.3393C16.0459 19.2798 15.9524 19.2543 15.8335 19.2543H15.3959V19.8915ZM17.3244 21.6841V18.5789H18.4246C18.6413 18.5789 18.8452 18.6086 19.0363 18.6723C19.2275 18.736 19.4017 18.8252 19.5546 18.9484C19.7075 19.0674 19.8307 19.2288 19.9199 19.4327C20.0048 19.6366 20.0516 19.8702 20.0516 20.1336C20.0516 20.3927 20.0049 20.6263 19.9199 20.8302C19.8307 21.0341 19.7075 21.1955 19.5546 21.3145C19.4016 21.4377 19.2275 21.5269 19.0363 21.5906C18.8452 21.6543 18.6413 21.6841 18.4246 21.6841H17.3244ZM18.1018 21.0087H18.3312C18.4544 21.0087 18.5691 20.9959 18.6753 20.9662C18.7772 20.9364 18.8749 20.8897 18.9684 20.826C19.0576 20.7623 19.1298 20.6731 19.1808 20.5541C19.2317 20.4352 19.2572 20.295 19.2572 20.1336C19.2572 19.9679 19.2317 19.8277 19.1808 19.7088C19.1298 19.5899 19.0576 19.5007 18.9684 19.4369C18.8749 19.3732 18.7772 19.3265 18.6753 19.2968C18.5691 19.267 18.4544 19.2543 18.3312 19.2543H18.1018V21.0087ZM20.4509 21.6841V18.5789H22.6598V19.2543H21.2452V19.7513H22.3752V20.4224H21.2452V21.6841H20.4509Z" fill="white"/>
</svg>
