<svg width="34" height="34" viewBox="0 0 34 34" fill="none" xmlns="http://www.w3.org/2000/svg">
<rect width="34" height="34" rx="10" fill="#DCFCE7"/>
<path opacity="0.4" d="M23.75 24.5H10.25C9.9425 24.5 9.6875 24.245 9.6875 23.9375C9.6875 23.63 9.9425 23.375 10.25 23.375H23.75C24.0575 23.375 24.3125 23.63 24.3125 23.9375C24.3125 24.245 24.0575 24.5 23.75 24.5Z" fill="#047857"/>
<path opacity="0.4" d="M22.2649 10.61C20.8099 9.155 19.3849 9.1175 17.8924 10.61L16.9849 11.5175C16.9099 11.5925 16.8799 11.7125 16.9099 11.8175C17.4799 13.805 19.0699 15.395 21.0574 15.965C21.0874 15.9725 21.1174 15.98 21.1474 15.98C21.2299 15.98 21.3049 15.95 21.3649 15.89L22.2649 14.9825C23.0074 14.2475 23.3674 13.535 23.3674 12.815C23.3749 12.0725 23.0149 11.3525 22.2649 10.61Z" fill="#047857"/>
<path d="M19.7082 16.6476C19.4907 16.5426 19.2807 16.4376 19.0782 16.3176C18.9132 16.2201 18.7557 16.1151 18.5982 16.0026C18.4707 15.9201 18.3207 15.8001 18.1782 15.6801C18.1632 15.6726 18.1107 15.6276 18.0507 15.5676C17.8032 15.3576 17.5257 15.0876 17.2782 14.7876C17.2557 14.7726 17.2182 14.7201 17.1657 14.6526C17.0907 14.5626 16.9632 14.4126 16.8507 14.2401C16.7607 14.1276 16.6557 13.9626 16.5582 13.7976C16.4382 13.5951 16.3332 13.3926 16.2282 13.1826C16.1232 12.9576 16.0407 12.7401 15.9657 12.5376L11.2557 17.2476C11.1582 17.3451 11.0682 17.5326 11.0457 17.6601L10.6407 20.5326C10.5657 21.0426 10.7082 21.5226 11.0232 21.8451C11.2932 22.1076 11.6682 22.2501 12.0732 22.2501C12.1632 22.2501 12.2532 22.2426 12.3432 22.2276L15.2232 21.8226C15.3582 21.8001 15.5457 21.7101 15.6357 21.6126L20.3457 16.9026C20.1357 16.8276 19.9332 16.7451 19.7082 16.6476Z" fill="#047857"/>
</svg>
