<svg width="34" height="34" viewBox="0 0 34 34" fill="none" xmlns="http://www.w3.org/2000/svg">
<rect width="34" height="34" rx="10" fill="#DBEAFE"/>
<path opacity="0.4" d="M9.5 17.66V16.34C9.5 15.56 10.1375 14.915 10.925 14.915C12.2825 14.915 12.8375 13.955 12.155 12.7775C11.765 12.1025 11.9975 11.225 12.68 10.835L13.9775 10.0925C14.57 9.73995 15.335 9.94995 15.6875 10.5425L15.77 10.685C16.445 11.8625 17.555 11.8625 18.2375 10.685L18.32 10.5425C18.6725 9.94995 19.4375 9.73995 20.03 10.0925L21.3275 10.835C22.01 11.225 22.2425 12.1025 21.8525 12.7775C21.17 13.955 21.725 14.915 23.0825 14.915C23.8625 14.915 24.5075 15.5525 24.5075 16.34V17.66C24.5075 18.44 23.87 19.085 23.0825 19.085C21.725 19.085 21.17 20.045 21.8525 21.2225C22.2425 21.905 22.01 22.775 21.3275 23.165L20.03 23.9075C19.4375 24.26 18.6725 24.05 18.32 23.4575L18.2375 23.315C17.5625 22.1375 16.4525 22.1375 15.77 23.315L15.6875 23.4575C15.335 24.05 14.57 24.26 13.9775 23.9075L12.68 23.165C11.9975 22.775 11.765 21.8975 12.155 21.2225C12.8375 20.045 12.2825 19.085 10.925 19.085C10.1375 19.085 9.5 18.44 9.5 17.66Z" fill="#1E40AF"/>
<path d="M17 19.4375C18.3462 19.4375 19.4375 18.3462 19.4375 17C19.4375 15.6538 18.3462 14.5625 17 14.5625C15.6538 14.5625 14.5625 15.6538 14.5625 17C14.5625 18.3462 15.6538 19.4375 17 19.4375Z" fill="#1E40AF"/>
</svg>
