<svg width="34" height="35" viewBox="0 0 34 35" fill="none" xmlns="http://www.w3.org/2000/svg">
<rect y="0.5" width="34" height="34" rx="10" fill="#F1F5F9"/>
<g clip-path="url(#clip0_72_262)">
<path d="M16.25 17.5C16.25 17.6989 16.329 17.8897 16.4697 18.0303C16.6103 18.171 16.8011 18.25 17 18.25C17.1989 18.25 17.3897 18.171 17.5303 18.0303C17.671 17.8897 17.75 17.6989 17.75 17.5C17.75 17.3011 17.671 17.1103 17.5303 16.9697C17.3897 16.829 17.1989 16.75 17 16.75C16.8011 16.75 16.6103 16.829 16.4697 16.9697C16.329 17.1103 16.25 17.3011 16.25 17.5Z" stroke="black" stroke-width="1.5" stroke-linecap="round" stroke-linejoin="round"/>
<path d="M16.25 22.75C16.25 22.9489 16.329 23.1397 16.4697 23.2803C16.6103 23.421 16.8011 23.5 17 23.5C17.1989 23.5 17.3897 23.421 17.5303 23.2803C17.671 23.1397 17.75 22.9489 17.75 22.75C17.75 22.5511 17.671 22.3603 17.5303 22.2197C17.3897 22.079 17.1989 22 17 22C16.8011 22 16.6103 22.079 16.4697 22.2197C16.329 22.3603 16.25 22.5511 16.25 22.75Z" stroke="black" stroke-width="1.5" stroke-linecap="round" stroke-linejoin="round"/>
<path d="M16.25 12.25C16.25 12.4489 16.329 12.6397 16.4697 12.7803C16.6103 12.921 16.8011 13 17 13C17.1989 13 17.3897 12.921 17.5303 12.7803C17.671 12.6397 17.75 12.4489 17.75 12.25C17.75 12.0511 17.671 11.8603 17.5303 11.7197C17.3897 11.579 17.1989 11.5 17 11.5C16.8011 11.5 16.6103 11.579 16.4697 11.7197C16.329 11.8603 16.25 12.0511 16.25 12.25Z" stroke="black" stroke-width="1.5" stroke-linecap="round" stroke-linejoin="round"/>
<g clip-path="url(#clip1_72_262)">
<path fill-rule="evenodd" clip-rule="evenodd" d="M-100.801 -242.5H70.3777L215.457 -91.2795V202.846C215.457 239.691 185.648 269.5 148.93 269.5H-100.801C-137.646 269.5 -167.455 239.691 -167.455 202.846V-175.846C-167.456 -212.691 -137.647 -242.5 -100.801 -242.5Z" fill="#E5252A"/>
</g>
</g>
<defs>
<clipPath id="clip0_72_262">
<rect width="18" height="18" fill="white" transform="translate(8 8.5)"/>
</clipPath>
<clipPath id="clip1_72_262">
<rect width="512" height="512" fill="white" transform="translate(-232 -242.5)"/>
</clipPath>
</defs>
</svg>
