<svg width="29" height="29" viewBox="0 0 29 29" fill="none" xmlns="http://www.w3.org/2000/svg">
<path d="M22.5116 8.63951C22.5599 9.37659 22.4995 10.2103 22.3545 11.1408L21.4724 16.8078C20.7232 21.5324 18.5361 23.1274 13.8116 22.3903L8.14448 21.4962C6.51323 21.2424 5.25657 20.8074 4.33823 20.1549C2.58615 18.9345 2.07865 16.9287 2.56198 13.8353L3.45615 8.16826C4.20532 3.44368 6.3924 1.84868 11.117 2.58576L16.7841 3.47993C20.5782 4.07201 22.3545 5.61868 22.5116 8.63951Z" stroke="#52525B" stroke-width="1.5" stroke-linecap="round" stroke-linejoin="round"/>
<path d="M24.7708 16.2762L22.9583 21.7258C21.4479 26.2691 19.0312 27.4774 14.4879 25.967L9.03831 24.1545C6.29539 23.2483 4.77289 21.9916 4.33789 20.1549C5.25622 20.8074 6.51289 21.2424 8.14414 21.4962L13.8112 22.3904C18.5358 23.1274 20.7229 21.5324 21.4721 16.8079L22.3541 11.1408C22.4991 10.2104 22.5596 9.37661 22.5112 8.63953C25.3991 10.1741 26.0275 12.4941 24.7708 16.2762Z" stroke="#52525B" stroke-width="1.5" stroke-linecap="round" stroke-linejoin="round"/>
<path d="M9.95602 10.8505C11.1172 10.8505 12.0585 9.90919 12.0585 8.74801C12.0585 7.58683 11.1172 6.64551 9.95602 6.64551C8.79484 6.64551 7.85352 7.58683 7.85352 8.74801C7.85352 9.90919 8.79484 10.8505 9.95602 10.8505Z" stroke="#52525B" stroke-width="1.5" stroke-linecap="round" stroke-linejoin="round"/>
</svg>
