<svg width="17" height="17" viewBox="0 0 17 17" fill="none" xmlns="http://www.w3.org/2000/svg">
<path d="M0.625 8.5C0.625 9.53416 0.828693 10.5582 1.22445 11.5136C1.6202 12.4691 2.20027 13.3372 2.93153 14.0685C3.6628 14.7997 4.53093 15.3798 5.48637 15.7756C6.44181 16.1713 7.46584 16.375 8.5 16.375C9.53416 16.375 10.5582 16.1713 11.5136 15.7756C12.4691 15.3798 13.3372 14.7997 14.0685 14.0685C14.7997 13.3372 15.3798 12.4691 15.7756 11.5136C16.1713 10.5582 16.375 9.53416 16.375 8.5C16.375 7.46584 16.1713 6.44181 15.7756 5.48637C15.3798 4.53093 14.7997 3.6628 14.0685 2.93153C13.3372 2.20027 12.4691 1.6202 11.5136 1.22445C10.5582 0.828693 9.53416 0.625 8.5 0.625C7.46584 0.625 6.44181 0.828693 5.48637 1.22445C4.53093 1.6202 3.6628 2.20027 2.93153 2.93153C2.20027 3.6628 1.6202 4.53093 1.22445 5.48637C0.828693 6.44181 0.625 7.46584 0.625 8.5Z" stroke="#64748B" stroke-linecap="round" stroke-linejoin="round"/>
</svg>
