<svg width="29" height="29" viewBox="0 0 29 29" fill="none" xmlns="http://www.w3.org/2000/svg">
<path d="M14.6931 13.1345C14.5723 13.1225 14.4273 13.1225 14.2943 13.1345C11.4185 13.0379 9.13477 10.6816 9.13477 7.78163C9.13477 4.82121 11.5273 2.41663 14.4998 2.41663C17.4602 2.41663 19.8648 4.82121 19.8648 7.78163C19.8527 10.6816 17.5689 13.0379 14.6931 13.1345Z" stroke="#52525B" stroke-width="1.5" stroke-linecap="round" stroke-linejoin="round"/>
<path d="M8.65211 17.5934C5.72794 19.5509 5.72794 22.7409 8.65211 24.6863C11.975 26.9096 17.4246 26.9096 20.7475 24.6863C23.6717 22.7288 23.6717 19.5388 20.7475 17.5934C17.4367 15.3821 11.9871 15.3821 8.65211 17.5934Z" stroke="#52525B" stroke-width="1.5" stroke-linecap="round" stroke-linejoin="round"/>
</svg>
