<svg width="29" height="29" viewBox="0 0 29 29" fill="none" xmlns="http://www.w3.org/2000/svg">
<g clip-path="url(#clip0_0_2962)">
<path d="M22.9579 10.525L16.5138 5.51279C15.9483 5.07284 15.2523 4.83398 14.5358 4.83398C13.8193 4.83398 13.1233 5.07284 12.5578 5.51279L6.11252 10.525C5.72518 10.8262 5.4118 11.2119 5.1963 11.6528C4.98081 12.0936 4.86891 12.5778 4.86914 13.0685V21.7685C4.86914 22.4094 5.12375 23.0241 5.57697 23.4773C6.03018 23.9306 6.64487 24.1852 7.28581 24.1852H21.7858C22.4267 24.1852 23.0414 23.9306 23.4946 23.4773C23.9479 23.0241 24.2025 22.4094 24.2025 21.7685V13.0685C24.2025 12.074 23.7433 11.1352 22.9579 10.525Z" stroke="#3F88EC" stroke-width="1.5" stroke-linecap="round" stroke-linejoin="round"/>
<path d="M19.3346 18.125C16.6642 19.7357 12.336 19.7357 9.66797 18.125" stroke="#3F88EC" stroke-width="1.5" stroke-linecap="round" stroke-linejoin="round"/>
</g>
<defs>
<clipPath id="clip0_0_2962">
<rect width="29" height="29" fill="white"/>
</clipPath>
</defs>
</svg>
