<svg width="18" height="19" viewBox="0 0 18 19" fill="none" xmlns="http://www.w3.org/2000/svg">
<path d="M16.5 5.375H12" stroke="#292D32" stroke-width="1.5" stroke-miterlimit="10" stroke-linecap="round" stroke-linejoin="round"/>
<path d="M4.5 5.375H1.5" stroke="#292D32" stroke-width="1.5" stroke-miterlimit="10" stroke-linecap="round" stroke-linejoin="round"/>
<path d="M7.5 8C8.94975 8 10.125 6.82475 10.125 5.375C10.125 3.92525 8.94975 2.75 7.5 2.75C6.05025 2.75 4.875 3.92525 4.875 5.375C4.875 6.82475 6.05025 8 7.5 8Z" stroke="#292D32" stroke-width="1.5" stroke-miterlimit="10" stroke-linecap="round" stroke-linejoin="round"/>
<path d="M16.5 13.625H13.5" stroke="#292D32" stroke-width="1.5" stroke-miterlimit="10" stroke-linecap="round" stroke-linejoin="round"/>
<path d="M6 13.625H1.5" stroke="#292D32" stroke-width="1.5" stroke-miterlimit="10" stroke-linecap="round" stroke-linejoin="round"/>
<path d="M10.5 16.25C11.9497 16.25 13.125 15.0747 13.125 13.625C13.125 12.1753 11.9497 11 10.5 11C9.05025 11 7.875 12.1753 7.875 13.625C7.875 15.0747 9.05025 16.25 10.5 16.25Z" stroke="#292D32" stroke-width="1.5" stroke-miterlimit="10" stroke-linecap="round" stroke-linejoin="round"/>
</svg>
