<svg width="285" height="284" viewBox="0 0 285 284" fill="none" xmlns="http://www.w3.org/2000/svg">
<path opacity="0.1" d="M250.823 149.815C251.959 134.724 248.449 118.967 243.746 104.943C236.788 84.0638 223.201 62.6672 200.367 57.7256C187.201 54.8856 173.802 57.9301 162.51 65.0642C151.656 71.9256 143.198 80.7921 129.845 82.5075C116.343 84.2455 102.49 83.5469 88.9201 83.5469C54.0279 83.5469 25.7131 120.2 32.7904 158.381C39.8677 196.562 73.2433 223.036 101.558 223.036C127.005 223.036 147.941 207.774 172.109 203.673C184.094 201.64 196.13 204.048 207.99 201.004C221.775 197.459 234.737 189.013 242.377 176.784C247.58 168.446 250.113 159.261 250.823 149.815Z" fill="#008CD9"/>
<path d="M78.1681 143.556C76.5152 140.37 75.8223 138.086 75.8223 137.558C75.8223 136.513 78.0943 135.888 78.0943 135.888C81.6386 134.014 98.3094 136.723 105.813 137.973C110.013 138.705 114.262 139.123 118.525 139.222C118.525 139.222 119.564 138.393 120.797 137.348C122.029 136.303 127.879 129.43 130.174 128.828C132.469 128.226 134.548 129.663 134.548 129.663C134.548 129.663 138.302 131.935 137.672 132.372C137.041 132.81 127.879 140.705 125.585 142.165C123.29 143.624 118.502 143 114.333 143.835C110.743 144.55 96.2021 145.436 92.8679 145.709C90.364 146.303 87.7359 146.084 85.3647 145.084" fill="white"/>
<mask id="mask0_0_4929" style="mask-type:luminance" maskUnits="userSpaceOnUse" x="75" y="128" width="63" height="19">
<path d="M78.1681 143.556C76.5152 140.37 75.8223 138.086 75.8223 137.558C75.8223 136.513 78.0943 135.888 78.0943 135.888C81.6386 134.014 98.3094 136.723 105.813 137.973C110.013 138.705 114.262 139.123 118.525 139.222C118.525 139.222 119.564 138.393 120.797 137.348C122.029 136.303 127.879 129.43 130.174 128.828C132.469 128.226 134.548 129.663 134.548 129.663C134.548 129.663 138.302 131.935 137.672 132.372C137.041 132.81 127.879 140.705 125.585 142.165C123.29 143.624 118.502 143 114.333 143.835C110.743 144.55 96.2021 145.436 92.8679 145.709C90.364 146.303 87.7359 146.084 85.3647 145.084" fill="white"/>
</mask>
<g mask="url(#mask0_0_4929)">
<path d="M134.587 129.64C134.587 129.64 132.502 128.18 130.213 128.805C127.924 129.43 122.085 136.308 120.836 137.325C119.586 138.342 118.564 139.199 118.564 139.199C114.301 139.1 110.052 138.682 105.852 137.95C98.3484 136.7 81.6776 133.974 78.1333 135.865C78.1333 135.865 75.8613 136.49 75.8613 137.535C75.9403 138.119 76.091 138.692 76.3101 139.239L76.6225 139.353C76.6225 139.353 80.7859 138.915 89.7717 139.131C98.7574 139.347 119.541 140.58 120.875 141.062C121.443 141.278 125.47 140.369 129.935 138.79C133.343 136.013 137.347 132.542 137.751 132.298C138.341 131.929 134.587 129.64 134.587 129.64Z" fill="#0D4C7B"/>
<path opacity="0.5" d="M134.587 129.64C134.587 129.64 132.502 128.18 130.213 128.805C127.924 129.43 122.085 136.308 120.836 137.325C119.586 138.342 118.564 139.199 118.564 139.199C114.301 139.1 110.052 138.682 105.852 137.95C98.3484 136.7 81.6776 133.974 78.1333 135.865C78.1333 135.865 75.8613 136.49 75.8613 137.535C75.9403 138.119 76.091 138.692 76.3101 139.239L76.6225 139.353C76.6225 139.353 80.7859 138.915 89.7717 139.131C98.7574 139.347 119.541 140.58 120.875 141.062C121.443 141.278 125.47 140.369 129.935 138.79C133.343 136.013 137.347 132.542 137.751 132.298C138.341 131.929 134.587 129.64 134.587 129.64Z" fill="white"/>
</g>
<path d="M78.1681 143.556C76.5152 140.37 75.8223 138.086 75.8223 137.558C75.8223 136.513 78.0943 135.888 78.0943 135.888C81.6386 134.014 98.3094 136.723 105.813 137.973C110.013 138.705 114.262 139.123 118.525 139.222C118.525 139.222 119.564 138.393 120.797 137.348C122.029 136.303 127.879 129.43 130.174 128.828C132.469 128.226 134.548 129.663 134.548 129.663C134.548 129.663 138.302 131.935 137.672 132.372C137.041 132.81 127.879 140.705 125.585 142.165C123.29 143.624 118.502 143 114.333 143.835C110.743 144.55 96.2021 145.436 92.8679 145.709C90.364 146.303 87.7359 146.084 85.3647 145.084" stroke="#263238" stroke-linecap="round" stroke-linejoin="round"/>
<path d="M160.477 162.084C160.854 161.369 161.419 160.77 162.112 160.352C162.805 159.935 163.598 159.715 164.407 159.716H202.293C202.293 159.716 205.03 159.716 204.213 164.919C203.395 170.122 192.16 201.89 189.445 211.495C186.729 221.1 186.156 241.343 186.156 241.343H140.716C140.716 241.343 144.317 192.932 160.477 162.084Z" fill="white"/>
<mask id="mask1_0_4929" style="mask-type:luminance" maskUnits="userSpaceOnUse" x="140" y="159" width="65" height="83">
<path d="M160.477 162.084C160.854 161.369 161.419 160.77 162.112 160.352C162.805 159.935 163.598 159.715 164.407 159.716H202.293C202.293 159.716 205.03 159.716 204.213 164.919C203.395 170.122 192.16 201.89 189.445 211.495C186.729 221.1 186.156 241.343 186.156 241.343H140.716C140.716 241.343 144.317 192.932 160.477 162.084Z" fill="white"/>
</mask>
<g mask="url(#mask1_0_4929)">
<path opacity="0.16" d="M177.539 159.716H164.407C163.598 159.715 162.804 159.935 162.111 160.352C161.419 160.77 160.853 161.369 160.476 162.084C144.317 192.932 140.676 241.326 140.676 241.326H161.056L166.082 222.236L187.042 226.558C187.189 224.956 187.36 223.326 187.558 221.719L187.098 216.607C187.098 216.607 182.804 212.091 181.452 210.961C180.101 209.83 180.998 207.791 180.771 198.982C180.544 190.172 172.637 183.839 169.695 178.414C166.753 172.99 171.28 169.599 175.347 164.175C176.795 162.215 177.386 160.772 177.539 159.716Z" fill="black"/>
</g>
<path d="M160.477 162.084C160.854 161.369 161.419 160.77 162.112 160.352C162.805 159.935 163.598 159.715 164.407 159.716H202.293C202.293 159.716 205.03 159.716 204.213 164.919C203.395 170.122 192.16 201.89 189.445 211.495C186.729 221.1 186.156 241.343 186.156 241.343H140.716C140.716 241.343 144.317 192.932 160.477 162.084Z" stroke="#263238" stroke-linecap="round" stroke-linejoin="round"/>
<path d="M195.721 168.752C191.893 177.687 183.793 213.056 182.476 241.326H186.134C186.134 241.326 186.701 221.059 189.422 211.477C192.143 201.895 203.389 170.121 204.19 164.901C204.991 159.681 202.27 159.698 202.27 159.698C202.27 159.698 198.794 161.59 195.721 168.752Z" fill="#263238" stroke="#263238" stroke-linecap="round" stroke-linejoin="round"/>
<path d="M129.169 150.895C129.169 150.895 123.126 147.35 120.837 141.102C118.548 134.854 138.757 124.846 147.533 124.221C156.308 123.596 158.785 125.886 164.005 134.849C169.225 143.812 172.758 156.103 170.048 162.147C167.339 168.19 162.755 169.65 166.072 174.643C169.389 179.635 178.784 193.813 178.159 200.481C177.534 207.149 171.076 212.977 161.687 213.613C152.298 214.249 139.802 208.609 129.385 199.413C118.968 190.217 121.672 176.693 125.409 172.32C129.146 167.946 134.787 166.276 135.201 161.902C135.616 157.529 129.169 150.895 129.169 150.895Z" fill="#263238" stroke="#263238" stroke-linecap="round" stroke-linejoin="round"/>
<path d="M154.928 141.006C158.137 146.981 162.153 154.984 163.408 159.818C165.6 168.281 154.32 173.609 157.45 177.682" stroke="white" stroke-linecap="round" stroke-linejoin="round"/>
<path d="M150.554 133.179C150.554 133.179 151.803 135.309 153.53 138.444" stroke="white" stroke-linecap="round" stroke-linejoin="round"/>
<path d="M167.39 148.214C167.76 149.334 168 150.493 168.105 151.667" stroke="white" stroke-linecap="round" stroke-linejoin="round"/>
<path d="M152.724 130.071C152.724 130.071 162.595 137.364 166.537 146.095" stroke="white" stroke-linecap="round" stroke-linejoin="round"/>
<path d="M139.024 135.542C131.975 137.519 121.836 140.728 122.659 142.58" stroke="white" stroke-linecap="round" stroke-linejoin="round"/>
<path d="M145.538 133.804C145.538 133.804 144.033 134.179 141.789 134.781" stroke="white" stroke-linecap="round" stroke-linejoin="round"/>
<path d="M136.82 130.122C140.858 128.85 145.087 128.293 149.316 128.475" stroke="white" stroke-linecap="round" stroke-linejoin="round"/>
<path d="M133.945 131.299C134.584 130.966 135.244 130.678 135.922 130.436" stroke="white" stroke-linecap="round" stroke-linejoin="round"/>
<path d="M78.1681 143.556C77.2114 141.804 76.4496 139.953 75.8961 138.035C76.4469 139.953 77.2089 141.805 78.1681 143.556ZM75.8336 137.711C75.8336 137.745 75.8336 137.785 75.8336 137.836C75.845 137.785 75.8393 137.745 75.8336 137.711ZM78.1681 143.55C80.2924 147.574 82.9353 151.301 86.0292 154.637C93.5325 162.765 115.207 184.026 117.269 185.485C119.331 186.945 118.729 191.109 117.269 195.278C115.809 199.447 110.391 205.502 110.601 212.159C110.811 218.816 112.873 229.04 112.685 231.124C112.498 233.209 107.284 240.297 107.284 240.297H161.051C161.051 240.297 154.348 231.777 154.348 228.864C154.348 225.95 163.55 188.615 163.964 185.906C164.379 183.196 162.715 181.322 159.381 181.112C156.047 180.902 143.335 178.192 142.71 176.108C142.085 174.023 146.044 166.105 146.044 166.105L133.548 166.73C133.548 166.73 132.923 172.149 132.088 173.194C131.253 174.239 130.004 172.149 127.084 170.695C124.165 169.241 118.564 167.985 116.457 166.315C114.35 164.646 94.3674 145.867 94.3674 145.867" fill="white"/>
<mask id="mask2_0_4929" style="mask-type:luminance" maskUnits="userSpaceOnUse" x="75" y="137" width="90" height="104">
<path d="M78.1681 143.556C77.2114 141.804 76.4496 139.953 75.8961 138.035C76.4469 139.953 77.2089 141.805 78.1681 143.556ZM75.8336 137.711C75.8336 137.745 75.8336 137.785 75.8336 137.836C75.845 137.785 75.8393 137.745 75.8336 137.711ZM78.1681 143.55C80.2924 147.574 82.9353 151.301 86.0292 154.637C93.5325 162.765 115.207 184.026 117.269 185.485C119.331 186.945 118.729 191.109 117.269 195.278C115.809 199.447 110.391 205.502 110.601 212.159C110.811 218.816 112.873 229.04 112.685 231.124C112.498 233.209 107.284 240.297 107.284 240.297H161.051C161.051 240.297 154.348 231.777 154.348 228.864C154.348 225.95 163.55 188.615 163.964 185.906C164.379 183.196 162.715 181.322 159.381 181.112C156.047 180.902 143.335 178.192 142.71 176.108C142.085 174.023 146.044 166.105 146.044 166.105L133.548 166.73C133.548 166.73 132.923 172.149 132.088 173.194C131.253 174.239 130.004 172.149 127.084 170.695C124.165 169.241 118.564 167.985 116.457 166.315C114.35 164.646 94.3674 145.867 94.3674 145.867" fill="white"/>
</mask>
<g mask="url(#mask2_0_4929)">
<path d="M119.649 167.923C120.689 169.74 121.728 171.382 121.728 171.382C121.728 171.382 125.233 173.353 126.108 173.353C126.982 173.353 132.242 176.193 132.242 176.193C132.242 176.193 136.627 175.097 135.082 171.371C134.595 170.417 133.979 169.534 133.253 168.746C132.992 170.399 132.571 172.563 132.077 173.183C131.242 174.222 129.993 172.137 127.073 170.683C125.182 169.74 122.12 168.877 119.649 167.923Z" fill="#0D4C7B"/>
<path d="M108.948 159.489C102.513 153.53 94.3676 145.891 94.3676 145.891L89.6305 145.209L89.0625 145.527C89.0625 145.527 102.433 157.358 105.279 158.676C106.43 159.205 107.681 159.482 108.948 159.489Z" fill="#0D4C7B"/>
<path d="M115.691 165.657L115.18 165.202C115.441 165.634 115.589 165.906 115.589 165.906L115.691 165.657Z" fill="#0D4C7B"/>
<g opacity="0.5">
<path d="M119.649 167.923C120.689 169.74 121.728 171.382 121.728 171.382C121.728 171.382 125.233 173.353 126.108 173.353C126.982 173.353 132.242 176.193 132.242 176.193C132.242 176.193 136.627 175.097 135.082 171.371C134.595 170.417 133.979 169.534 133.253 168.746C132.992 170.399 132.571 172.563 132.077 173.183C131.242 174.222 129.993 172.137 127.073 170.683C125.182 169.74 122.12 168.877 119.649 167.923Z" fill="white"/>
<path d="M108.948 159.489C102.513 153.53 94.3676 145.891 94.3676 145.891L89.6305 145.209L89.0625 145.527C89.0625 145.527 102.433 157.358 105.279 158.676C106.43 159.205 107.681 159.482 108.948 159.489Z" fill="white"/>
<path d="M115.691 165.657L115.18 165.202C115.441 165.634 115.589 165.906 115.589 165.906L115.691 165.657Z" fill="white"/>
</g>
</g>
<path d="M75.8222 137.558C75.8197 137.597 75.8197 137.637 75.8222 137.677M75.8961 138.035C76.4496 139.953 77.2114 141.804 78.1681 143.556C77.2089 141.805 76.4469 139.953 75.8961 138.035ZM75.8961 138.035C75.8804 137.981 75.869 137.926 75.862 137.87M78.1681 143.55C80.2924 147.574 82.9353 151.301 86.0292 154.637C93.5325 162.765 115.207 184.026 117.269 185.485C119.331 186.945 118.729 191.109 117.269 195.278C115.809 199.447 110.391 205.502 110.601 212.159C110.811 218.816 112.873 229.04 112.685 231.124C112.498 233.209 107.284 240.297 107.284 240.297H161.051C161.051 240.297 154.348 231.777 154.348 228.864C154.348 225.95 163.55 188.615 163.964 185.906C164.379 183.196 162.715 181.322 159.381 181.112C156.047 180.902 143.335 178.192 142.71 176.108C142.085 174.023 146.044 166.105 146.044 166.105L133.548 166.73C133.548 166.73 132.923 172.149 132.088 173.194C131.253 174.239 130.004 172.149 127.084 170.695C124.165 169.241 118.564 167.985 116.457 166.315C114.35 164.646 94.3674 145.867 94.3674 145.867M75.8336 137.711C75.8336 137.745 75.8336 137.785 75.8336 137.836C75.845 137.785 75.8393 137.745 75.8336 137.711Z" stroke="#263238" stroke-linecap="round" stroke-linejoin="round"/>
<path d="M94.3678 145.891C94.3678 145.891 87.7108 146.016 83.9961 142.954" stroke="#263238" stroke-linecap="round" stroke-linejoin="round"/>
<path d="M142.716 176.108C142.091 174.029 146.05 166.105 146.05 166.105L133.554 166.73C133.554 166.73 132.929 172.149 132.094 173.194C131.259 174.239 130.01 172.149 127.09 170.695C126.869 170.581 126.625 170.473 126.375 170.365L125.619 182.242C125.619 182.242 126.715 193.744 139.859 191.558C145.181 190.671 150.861 185.923 155.763 180.584C150.719 179.658 143.193 177.704 142.716 176.108Z" fill="white"/>
<mask id="mask3_0_4929" style="mask-type:luminance" maskUnits="userSpaceOnUse" x="125" y="166" width="31" height="26">
<path d="M142.716 176.108C142.091 174.029 146.05 166.105 146.05 166.105L133.554 166.73C133.554 166.73 132.929 172.149 132.094 173.194C131.259 174.239 130.01 172.149 127.09 170.695C126.869 170.581 126.625 170.473 126.375 170.365L125.619 182.242C125.619 182.242 126.715 193.744 139.859 191.558C145.181 190.671 150.861 185.923 155.763 180.584C150.719 179.658 143.193 177.704 142.716 176.108Z" fill="white"/>
</mask>
<g mask="url(#mask3_0_4929)">
<path d="M142.364 167.679C142.364 167.679 141.609 171.917 141.001 176.603C140.393 181.289 139.944 184.776 139.944 184.776L142.716 176.108L145.84 166.924C145.84 166.924 142.818 166.924 142.364 167.679Z" fill="#0D4C7B"/>
<path opacity="0.5" d="M142.364 167.679C142.364 167.679 141.609 171.917 141.001 176.603C140.393 181.289 139.944 184.776 139.944 184.776L142.716 176.108L145.84 166.924C145.84 166.924 142.818 166.924 142.364 167.679Z" fill="white"/>
</g>
<path d="M142.716 176.108C142.091 174.029 146.05 166.105 146.05 166.105L133.554 166.73C133.554 166.73 132.929 172.149 132.094 173.194C131.259 174.239 130.01 172.149 127.09 170.695C126.869 170.581 126.625 170.473 126.375 170.365L125.619 182.242C125.619 182.242 126.715 193.744 139.859 191.558C145.181 190.671 150.861 185.923 155.763 180.584C150.719 179.658 143.193 177.704 142.716 176.108Z" stroke="#263238" stroke-linecap="round" stroke-linejoin="round"/>
<path d="M132.088 173.194C131.253 174.233 130.004 172.149 127.084 170.695C125.244 169.769 122.313 168.928 119.888 168.019C119.2 166.389 118.291 164.265 117.706 162.981C116.667 160.709 114.997 162.146 114.997 162.146C114.126 161.155 113.422 160.029 112.913 158.812C111.873 156.54 110.203 156.728 107.914 156.313C105.625 155.898 100.825 151.519 100.825 151.519C100.825 151.519 98.5819 149.815 97.656 148.969C96.5768 151.093 93.9924 154.831 88.4033 157.165C97.3152 166.475 115.395 184.162 117.292 185.491C119.376 186.945 118.752 191.114 117.292 195.283C115.832 199.453 110.413 205.507 110.623 212.164C110.834 218.821 112.895 229.045 112.708 231.13C112.521 232.987 108.363 238.809 107.46 240.059L109.578 240.297H120.609C120.546 234.708 120.552 211.897 124.375 202.809C128.754 192.364 132.088 173.194 132.088 173.194Z" fill="#0D4C7B"/>
<mask id="mask4_0_4929" style="mask-type:luminance" maskUnits="userSpaceOnUse" x="88" y="148" width="45" height="93">
<path d="M132.088 173.194C131.253 174.233 130.004 172.149 127.084 170.695C125.244 169.769 122.313 168.928 119.888 168.019C119.2 166.389 118.291 164.265 117.706 162.981C116.667 160.709 114.997 162.146 114.997 162.146C114.126 161.155 113.422 160.029 112.913 158.812C111.873 156.54 110.203 156.728 107.914 156.313C105.625 155.898 100.825 151.519 100.825 151.519C100.825 151.519 98.5819 149.815 97.656 148.969C96.5768 151.093 93.9924 154.831 88.4033 157.165C97.3152 166.475 115.395 184.162 117.292 185.491C119.376 186.945 118.752 191.114 117.292 195.283C115.832 199.453 110.413 205.507 110.623 212.164C110.834 218.821 112.895 229.045 112.708 231.13C112.521 232.987 108.363 238.809 107.46 240.059L109.578 240.297H120.609C120.546 234.708 120.552 211.897 124.375 202.809C128.754 192.364 132.088 173.194 132.088 173.194Z" fill="white"/>
</mask>
<g mask="url(#mask4_0_4929)">
<path opacity="0.16" d="M127.084 170.695C125.244 169.769 122.313 168.928 119.888 168.019C119.2 166.389 118.292 164.265 117.707 162.981C116.667 160.709 114.997 162.146 114.997 162.146C114.126 161.155 113.422 160.029 112.913 158.812C111.873 156.54 110.203 156.728 107.914 156.313C105.625 155.898 100.826 151.519 100.826 151.519C100.826 151.519 98.582 149.815 97.6562 148.969C97.1942 149.871 96.6444 150.725 96.0146 151.519C99.7407 154.671 103.853 158.011 105.29 158.676C108.13 159.988 108.795 158.892 110.97 160.209C113.146 161.527 115.571 165.889 115.571 165.889C115.571 165.889 116.889 162.379 117.985 164.793C119.081 167.207 121.711 171.365 121.711 171.365C121.711 171.365 125.216 173.336 126.09 173.336C126.778 173.336 130.146 175.085 131.577 175.841C131.895 174.177 132.071 173.177 132.071 173.177C131.253 174.233 130.004 172.149 127.084 170.695Z" fill="black"/>
</g>
<path d="M132.088 173.194C131.253 174.233 130.004 172.149 127.084 170.695C125.244 169.769 122.313 168.928 119.888 168.019C119.2 166.389 118.291 164.265 117.706 162.981C116.667 160.709 114.997 162.146 114.997 162.146C114.126 161.155 113.422 160.029 112.913 158.812C111.873 156.54 110.203 156.728 107.914 156.313C105.625 155.898 100.825 151.519 100.825 151.519C100.825 151.519 98.5819 149.815 97.656 148.969C96.5768 151.093 93.9924 154.831 88.4033 157.165C97.3152 166.475 115.395 184.162 117.292 185.491C119.376 186.945 118.752 191.114 117.292 195.283C115.832 199.453 110.413 205.507 110.623 212.164C110.834 218.821 112.895 229.045 112.708 231.13C112.521 232.987 108.363 238.809 107.46 240.059L109.578 240.297H120.609C120.546 234.708 120.552 211.897 124.375 202.809C128.754 192.364 132.088 173.194 132.088 173.194Z" stroke="#263238" stroke-linecap="round" stroke-linejoin="round"/>
<path d="M132.236 172.468C132.236 172.468 129.646 171.672 128.05 173.07C126.454 174.467 124.074 181.635 122.671 189.411C121.806 193.938 122.403 198.622 124.375 202.787C124.375 202.787 127.653 194.194 128.647 190.007C129.641 185.821 132.236 172.468 132.236 172.468Z" fill="#0D4C7B"/>
<mask id="mask5_0_4929" style="mask-type:luminance" maskUnits="userSpaceOnUse" x="122" y="172" width="11" height="31">
<path d="M132.236 172.468C132.236 172.468 129.646 171.672 128.05 173.07C126.454 174.467 124.074 181.635 122.671 189.411C121.806 193.938 122.403 198.622 124.375 202.787C124.375 202.787 127.653 194.194 128.647 190.007C129.641 185.821 132.236 172.468 132.236 172.468Z" fill="white"/>
</mask>
<g mask="url(#mask5_0_4929)">
<path opacity="0.16" d="M127.266 173.735C127.266 173.735 129.14 173.28 129.913 173.541C130.563 173.82 131.171 174.189 131.719 174.638L132.236 172.468C131.46 172.072 130.581 171.927 129.719 172.053C128.43 172.315 127.266 173.735 127.266 173.735Z" fill="black"/>
</g>
<path d="M132.236 172.468C132.236 172.468 129.646 171.672 128.05 173.07C126.454 174.467 124.074 181.635 122.671 189.411C121.806 193.938 122.403 198.622 124.375 202.787C124.375 202.787 127.653 194.194 128.647 190.007C129.641 185.821 132.236 172.468 132.236 172.468Z" stroke="#263238" stroke-linecap="round" stroke-linejoin="round"/>
<path d="M114.793 173.149L118.127 186.696L110.624 169.604" stroke="#263238" stroke-linecap="round" stroke-linejoin="round"/>
<path d="M136.757 240.298H161.056C161.056 240.298 154.354 231.778 154.354 228.864C154.354 225.95 163.555 188.616 163.97 185.906C164.385 183.197 162.72 181.323 159.386 181.112C156.052 180.902 143.34 178.193 142.715 176.108C142.715 176.108 137.921 192.989 136.257 204.452C134.826 214.284 136.308 234.686 136.757 240.298Z" fill="#0D4C7B"/>
<mask id="mask6_0_4929" style="mask-type:luminance" maskUnits="userSpaceOnUse" x="135" y="176" width="30" height="65">
<path d="M136.757 240.298H161.056C161.056 240.298 154.354 231.778 154.354 228.864C154.354 225.95 163.555 188.616 163.97 185.906C164.385 183.197 162.72 181.323 159.386 181.112C156.052 180.902 143.34 178.193 142.715 176.108C142.715 176.108 137.921 192.989 136.257 204.452C134.826 214.284 136.308 234.686 136.757 240.298Z" fill="white"/>
</mask>
<g mask="url(#mask6_0_4929)">
<path opacity="0.16" d="M159.386 181.112C156.654 180.942 147.628 179.09 144.112 177.284L145.39 180.238C147.706 181.466 150.196 182.332 152.774 182.805C157.006 183.561 160.942 183.413 163.515 187.196L163.64 187.383C163.799 186.656 163.907 186.145 163.941 185.906C164.39 183.197 162.72 181.323 159.386 181.112Z" fill="black"/>
</g>
<path d="M136.757 240.298H161.056C161.056 240.298 154.354 231.778 154.354 228.864C154.354 225.95 163.555 188.616 163.97 185.906C164.385 183.197 162.72 181.323 159.386 181.112C156.052 180.902 143.34 178.193 142.715 176.108C142.715 176.108 137.921 192.989 136.257 204.452C134.826 214.284 136.308 234.686 136.757 240.298Z" stroke="#263238" stroke-linecap="round" stroke-linejoin="round"/>
<path d="M142.716 176.108C142.716 176.108 136.286 196.556 136.258 204.452C136.258 204.452 145.391 193.393 146.584 185.622C147.777 177.852 142.716 176.108 142.716 176.108Z" fill="#0D4C7B"/>
<mask id="mask7_0_4929" style="mask-type:luminance" maskUnits="userSpaceOnUse" x="136" y="176" width="11" height="29">
<path d="M142.716 176.108C142.716 176.108 136.286 196.556 136.258 204.452C136.258 204.452 145.391 193.393 146.584 185.622C147.777 177.852 142.716 176.108 142.716 176.108Z" fill="white"/>
</mask>
<g mask="url(#mask7_0_4929)">
<path opacity="0.16" d="M141.608 178.721C142.575 178.689 143.534 178.892 144.404 179.314C145.274 179.735 146.028 180.362 146.601 181.141C146.601 181.141 145.34 177.432 142.716 176.108L141.608 178.721Z" fill="black"/>
</g>
<path d="M142.716 176.108C142.716 176.108 136.286 196.556 136.258 204.452C136.258 204.452 145.391 193.393 146.584 185.622C147.777 177.852 142.716 176.108 142.716 176.108Z" stroke="#263238" stroke-linecap="round" stroke-linejoin="round"/>
<path d="M211.358 236.452C211.358 236.452 216.067 236.645 219.151 237.088C221.208 237.367 223.279 237.532 225.354 237.583C225.354 237.583 223.65 234.14 221.832 233.169C220.014 232.198 216.72 230.46 213.96 230.846C211.199 231.232 207.251 234.016 207.581 234.902C207.91 235.788 209.381 236.185 211.358 236.452Z" fill="white"/>
<mask id="mask8_0_4929" style="mask-type:luminance" maskUnits="userSpaceOnUse" x="207" y="230" width="19" height="8">
<path d="M211.358 236.452C211.358 236.452 216.067 236.645 219.151 237.088C221.208 237.367 223.279 237.532 225.354 237.583C225.354 237.583 223.65 234.14 221.832 233.169C220.014 232.198 216.72 230.46 213.96 230.846C211.199 231.232 207.251 234.016 207.581 234.902C207.91 235.788 209.381 236.185 211.358 236.452Z" fill="white"/>
</mask>
<g mask="url(#mask8_0_4929)">
<path d="M211.358 236.452C211.358 236.452 216.067 236.645 219.151 237.088C221.208 237.367 223.279 237.532 225.354 237.583C225.354 237.583 223.65 234.14 221.832 233.169C220.014 232.198 216.72 230.46 213.96 230.846C211.199 231.232 207.251 234.016 207.581 234.902C207.91 235.788 209.381 236.185 211.358 236.452Z" fill="#0D4C7B"/>
<path opacity="0.5" d="M211.358 236.452C211.358 236.452 216.067 236.645 219.151 237.088C221.208 237.367 223.279 237.532 225.354 237.583C225.354 237.583 223.65 234.14 221.832 233.169C220.014 232.198 216.72 230.46 213.96 230.846C211.199 231.232 207.251 234.016 207.581 234.902C207.91 235.788 209.381 236.185 211.358 236.452Z" fill="white"/>
</g>
<path d="M211.358 236.452C211.358 236.452 216.067 236.645 219.151 237.088C221.208 237.367 223.279 237.532 225.354 237.583C225.354 237.583 223.65 234.14 221.832 233.169C220.014 232.198 216.72 230.46 213.96 230.846C211.199 231.232 207.251 234.016 207.581 234.902C207.91 235.788 209.381 236.185 211.358 236.452Z" stroke="#263238" stroke-linecap="round" stroke-linejoin="round"/>
<path d="M219.18 235.044C219.18 235.044 222.911 233.107 223.843 233.135C224.774 233.163 230.966 237.35 230.659 238.02C230.451 238.331 230.15 238.568 229.799 238.699C229.449 238.829 229.066 238.846 228.705 238.747C228.018 238.423 223.849 236.651 223.849 236.651L221.122 237.293L219.18 235.044Z" fill="white"/>
<mask id="mask9_0_4929" style="mask-type:luminance" maskUnits="userSpaceOnUse" x="219" y="233" width="12" height="6">
<path d="M219.18 235.044C219.18 235.044 222.911 233.107 223.843 233.135C224.774 233.163 230.966 237.35 230.659 238.02C230.451 238.331 230.15 238.568 229.799 238.699C229.449 238.829 229.066 238.846 228.705 238.747C228.018 238.423 223.849 236.651 223.849 236.651L221.122 237.293L219.18 235.044Z" fill="white"/>
</mask>
<g mask="url(#mask9_0_4929)">
<path d="M219.18 235.044C219.18 235.044 222.911 233.107 223.843 233.135C224.774 233.163 230.966 237.35 230.659 238.02C230.352 238.69 228.887 239.235 228.705 238.747C228.523 238.258 223.849 236.651 223.849 236.651L221.122 237.293L219.18 235.044Z" fill="#0D4C7B"/>
<path opacity="0.5" d="M219.18 235.044C219.18 235.044 222.911 233.107 223.843 233.135C224.774 233.163 230.966 237.35 230.659 238.02C230.352 238.69 228.887 239.235 228.705 238.747C228.523 238.258 223.849 236.651 223.849 236.651L221.122 237.293L219.18 235.044Z" fill="white"/>
</g>
<path d="M219.18 235.044C219.18 235.044 222.911 233.107 223.843 233.135C224.774 233.163 230.966 237.35 230.659 238.02C230.451 238.331 230.15 238.568 229.799 238.699C229.449 238.829 229.066 238.846 228.705 238.747C228.018 238.423 223.849 236.651 223.849 236.651L221.122 237.293L219.18 235.044Z" stroke="#263238" stroke-linecap="round" stroke-linejoin="round"/>
<path d="M216.516 231.857C216.516 231.857 221.491 231.698 222.48 232.198C223.468 232.698 227.932 240.354 227.262 240.911C226.592 241.468 224.74 241.303 224.797 240.684C224.854 240.065 220.685 235.964 220.685 235.964L217.441 235.254L216.516 231.857Z" fill="white"/>
<mask id="mask10_0_4929" style="mask-type:luminance" maskUnits="userSpaceOnUse" x="216" y="231" width="12" height="11">
<path d="M216.516 231.857C216.516 231.857 221.491 231.698 222.48 232.198C223.468 232.698 227.932 240.354 227.262 240.911C226.592 241.468 224.74 241.303 224.797 240.684C224.854 240.065 220.685 235.964 220.685 235.964L217.441 235.254L216.516 231.857Z" fill="white"/>
</mask>
<g mask="url(#mask10_0_4929)">
<path d="M216.516 231.857C216.516 231.857 221.491 231.698 222.48 232.198C223.468 232.698 227.932 240.354 227.262 240.911C226.592 241.468 224.74 241.303 224.797 240.684C224.854 240.065 220.685 235.964 220.685 235.964L217.441 235.254L216.516 231.857Z" fill="#0D4C7B"/>
<path opacity="0.5" d="M216.516 231.857C216.516 231.857 221.491 231.698 222.48 232.198C223.468 232.698 227.932 240.354 227.262 240.911C226.592 241.468 224.74 241.303 224.797 240.684C224.854 240.065 220.685 235.964 220.685 235.964L217.441 235.254L216.516 231.857Z" fill="white"/>
</g>
<path d="M216.516 231.857C216.516 231.857 221.491 231.698 222.48 232.198C223.468 232.698 227.932 240.354 227.262 240.911C226.592 241.468 224.74 241.303 224.797 240.684C224.854 240.065 220.685 235.964 220.685 235.964L217.441 235.254L216.516 231.857Z" stroke="#263238" stroke-linecap="round" stroke-linejoin="round"/>
<path d="M213.568 230.829C213.568 230.829 218.607 230.664 219.606 231.175C220.606 231.687 225.127 239.429 224.446 239.997C223.764 240.565 221.901 240.388 221.958 239.764C222.015 239.139 217.794 234.987 217.794 234.987L214.511 234.265L213.568 230.829Z" fill="white"/>
<mask id="mask11_0_4929" style="mask-type:luminance" maskUnits="userSpaceOnUse" x="213" y="230" width="12" height="11">
<path d="M213.568 230.829C213.568 230.829 218.607 230.664 219.606 231.175C220.606 231.687 225.127 239.429 224.446 239.997C223.764 240.565 221.901 240.388 221.958 239.764C222.015 239.139 217.794 234.987 217.794 234.987L214.511 234.265L213.568 230.829Z" fill="white"/>
</mask>
<g mask="url(#mask11_0_4929)">
<path d="M213.568 230.829C213.568 230.829 218.607 230.664 219.606 231.175C220.606 231.687 225.127 239.429 224.446 239.997C223.764 240.565 221.901 240.388 221.958 239.764C222.015 239.139 217.794 234.987 217.794 234.987L214.511 234.265L213.568 230.829Z" fill="#0D4C7B"/>
<path opacity="0.5" d="M213.568 230.829C213.568 230.829 218.607 230.664 219.606 231.175C220.606 231.687 225.127 239.429 224.446 239.997C223.764 240.565 221.901 240.388 221.958 239.764C222.015 239.139 217.794 234.987 217.794 234.987L214.511 234.265L213.568 230.829Z" fill="white"/>
</g>
<path d="M213.568 230.829C213.568 230.829 218.607 230.664 219.606 231.175C220.606 231.687 225.127 239.429 224.446 239.997C223.764 240.565 221.901 240.388 221.958 239.764C222.015 239.139 217.794 234.987 217.794 234.987L214.511 234.265L213.568 230.829Z" stroke="#263238" stroke-linecap="round" stroke-linejoin="round"/>
<path d="M156.285 201.963C159.931 207.581 167.253 221.815 169.389 223.417C172.723 225.916 195.011 231.982 197.158 233.641C199.305 235.299 199.158 236.964 201.191 237.571C203.224 238.179 210.847 239.923 213.755 240.196C216.663 240.468 215.363 238.668 215.363 238.668L210.404 235.26L214.726 234.192C214.726 234.192 219.06 239.406 219.872 239.69C220.685 239.974 222.116 239.69 222.025 239.048C221.866 238.02 217.243 229.608 215.601 229.25C213.96 228.892 203.997 230.273 203.997 230.273C203.997 230.273 183.1 216.181 182.725 215.681C182.725 215.681 181.476 212.136 180.453 210.677C179.431 209.217 178.783 209.637 178.783 209.637C178.783 209.637 179.204 207.757 178.579 207.132L175.245 203.798L175.125 203.957C174.557 202.821 173.989 201.526 173.365 200.049C171.621 195.943 165.447 184.418 164.407 182.754C163.629 181.51 157.108 180.618 153.803 180.243" fill="#0D4C7B"/>
<mask id="mask12_0_4929" style="mask-type:luminance" maskUnits="userSpaceOnUse" x="153" y="180" width="70" height="61">
<path d="M156.285 201.963C159.931 207.581 167.253 221.815 169.389 223.417C172.723 225.916 195.011 231.982 197.158 233.641C199.305 235.299 199.158 236.964 201.191 237.571C203.224 238.179 210.847 239.923 213.755 240.196C216.663 240.468 215.363 238.668 215.363 238.668L210.404 235.26L214.726 234.192C214.726 234.192 219.06 239.406 219.872 239.69C220.685 239.974 222.116 239.69 222.025 239.048C221.866 238.02 217.243 229.608 215.601 229.25C213.96 228.892 203.997 230.273 203.997 230.273C203.997 230.273 183.1 216.181 182.725 215.681C182.725 215.681 181.476 212.136 180.453 210.677C179.431 209.217 178.783 209.637 178.783 209.637C178.783 209.637 179.204 207.757 178.579 207.132L175.245 203.798L175.125 203.957C174.557 202.821 173.989 201.526 173.365 200.049C171.621 195.943 165.447 184.418 164.407 182.754C163.629 181.51 157.108 180.618 153.803 180.243" fill="white"/>
</mask>
<g mask="url(#mask12_0_4929)">
<path opacity="0.16" d="M170.803 202.321C173.53 204.741 172.621 204.741 172.013 206.865C171.405 208.99 172.468 206.11 175.041 206.263C177.614 206.417 176.858 209.739 176.552 210.347C176.245 210.955 179.732 211.71 179.125 213.068C178.517 214.425 175.041 216.396 173.075 218.367C171.11 220.338 178.216 215.187 180.636 215.039C181.374 214.988 181.982 215.084 182.493 215.073C181.957 213.553 181.268 212.092 180.437 210.711C179.392 209.251 178.767 209.671 178.767 209.671C178.767 209.671 179.187 207.791 178.562 207.166L175.228 203.832L175.109 203.991C174.541 202.855 173.973 201.56 173.348 200.084C171.604 195.977 165.43 184.452 164.391 182.788C163.613 181.544 157.092 180.652 153.786 180.277L154.087 182.907L154.161 182.964C154.161 182.964 158.245 183.719 159.608 183.873C160.971 184.026 162.636 185.23 162.482 186.145C162.329 187.059 158.398 191.137 159.608 191.444C160.818 191.751 162.181 188.417 163.544 188.871C164.908 189.326 168.06 199.902 170.803 202.321Z" fill="black"/>
</g>
<path d="M156.285 201.963C159.931 207.581 167.253 221.815 169.389 223.417C172.723 225.916 195.011 231.982 197.158 233.641C199.305 235.299 199.158 236.964 201.191 237.571C203.224 238.179 210.847 239.923 213.755 240.196C216.663 240.468 215.363 238.668 215.363 238.668L210.404 235.26L214.726 234.192C214.726 234.192 219.06 239.406 219.872 239.69C220.685 239.974 222.116 239.69 222.025 239.048C221.866 238.02 217.243 229.608 215.601 229.25C213.96 228.892 203.997 230.273 203.997 230.273C203.997 230.273 183.1 216.181 182.725 215.681C182.725 215.681 181.476 212.136 180.453 210.677C179.431 209.217 178.783 209.637 178.783 209.637C178.783 209.637 179.204 207.757 178.579 207.132L175.245 203.798L175.125 203.957C174.557 202.821 173.989 201.526 173.365 200.049C171.621 195.943 165.447 184.418 164.407 182.754C163.629 181.51 157.108 180.618 153.803 180.243" stroke="#263238" stroke-linecap="round" stroke-linejoin="round"/>
<path d="M156.342 194.256C156.189 194.767 156.058 195.278 155.956 195.801" stroke="#263238" stroke-linecap="round" stroke-linejoin="round"/>
<path d="M161.863 184.855C160.078 186.89 158.572 189.153 157.387 191.586" stroke="#263238" stroke-linecap="round" stroke-linejoin="round"/>
<path d="M170.207 217.106C171.741 214.834 174.183 211.954 176.875 211.131" stroke="#263238" stroke-linecap="round" stroke-linejoin="round"/>
<path d="M168.509 219.901C168.509 219.901 168.781 219.367 169.27 218.561" stroke="#263238" stroke-linecap="round" stroke-linejoin="round"/>
<path d="M168.508 216.312C168.508 216.312 171.297 209.337 174.086 207.542C176.874 205.747 175.278 209.336 175.278 209.336" stroke="#263238" stroke-linecap="round" stroke-linejoin="round"/>
<path d="M197.158 233.646C199.311 235.311 199.158 236.969 201.191 237.577C203.225 238.185 210.847 239.928 213.755 240.201C216.663 240.474 215.363 238.673 215.363 238.673L210.404 235.265L214.727 234.197C214.727 234.197 219.06 239.412 219.873 239.696C220.685 239.98 222.23 240.082 222.025 239.054C221.628 237.066 217.243 229.614 215.601 229.256C213.96 228.898 203.997 230.278 203.997 230.278C203.997 230.278 184.963 217.214 182.879 215.8C174.796 216.578 170.951 220.81 169.332 223.349L169.389 223.394C172.723 225.916 195.011 231.982 197.158 233.646Z" fill="white"/>
<mask id="mask13_0_4929" style="mask-type:luminance" maskUnits="userSpaceOnUse" x="169" y="215" width="54" height="26">
<path d="M197.158 233.646C199.311 235.311 199.158 236.969 201.191 237.577C203.225 238.185 210.847 239.928 213.755 240.201C216.663 240.474 215.363 238.673 215.363 238.673L210.404 235.265L214.727 234.197C214.727 234.197 219.06 239.412 219.873 239.696C220.685 239.98 222.23 240.082 222.025 239.054C221.628 237.066 217.243 229.614 215.601 229.256C213.96 228.898 203.997 230.278 203.997 230.278C203.997 230.278 184.963 217.214 182.879 215.8C174.796 216.578 170.951 220.81 169.332 223.349L169.389 223.394C172.723 225.916 195.011 231.982 197.158 233.646Z" fill="white"/>
</mask>
<g mask="url(#mask13_0_4929)">
<path d="M222.02 239.076C220.986 236.549 217.237 229.636 215.596 229.278C213.954 228.92 203.992 230.301 203.992 230.301C203.992 230.301 184.958 217.237 182.873 215.822C180.752 216.007 178.67 216.51 176.699 217.316C179.704 219.02 199.732 230.38 202.259 230.886C204.94 231.454 213.886 229.983 215.46 231.039C216.459 231.709 219.436 236.429 221.446 239.781C222.02 239.695 222.23 239.587 222.02 239.076Z" fill="#0D4C7B"/>
<path opacity="0.5" d="M222.02 239.076C220.407 235.458 217.237 229.636 215.596 229.278C213.954 228.92 203.992 230.301 203.992 230.301C203.992 230.301 184.958 217.237 182.873 215.822C180.752 216.007 178.67 216.51 176.699 217.316C179.704 219.02 199.732 230.38 202.259 230.886C204.94 231.454 213.886 229.983 215.46 231.039C216.459 231.709 219.436 236.429 221.446 239.781C222.02 239.695 222.247 239.582 222.02 239.076Z" fill="white"/>
</g>
<path d="M197.158 233.646C199.311 235.311 199.158 236.969 201.191 237.577C203.225 238.185 210.847 239.928 213.755 240.201C216.663 240.474 215.363 238.673 215.363 238.673L210.404 235.265L214.727 234.197C214.727 234.197 219.06 239.412 219.873 239.696C220.685 239.98 222.23 240.082 222.025 239.054C221.628 237.066 217.243 229.614 215.601 229.256C213.96 228.898 203.997 230.278 203.997 230.278C203.997 230.278 184.963 217.214 182.879 215.8C174.796 216.578 170.951 220.81 169.332 223.349L169.389 223.394C172.723 225.916 195.011 231.982 197.158 233.646Z" stroke="#263238" stroke-linecap="round" stroke-linejoin="round"/>
<path d="M146.959 134.462L129.85 141.602C129.643 144.608 128.899 147.554 127.652 150.298C125.63 154.575 126.812 162.669 128.754 167.037C130.697 171.405 139.256 169.695 142.386 169.15C144.509 168.746 146.588 168.139 148.594 167.338C149.508 167.69 150.496 167.804 151.466 167.669C152.436 167.533 153.355 167.154 154.138 166.565C154.138 166.565 144.982 140.863 146.959 134.462Z" fill="white"/>
<mask id="mask14_0_4929" style="mask-type:luminance" maskUnits="userSpaceOnUse" x="126" y="134" width="29" height="36">
<path d="M146.959 134.462L129.85 141.602C129.643 144.608 128.899 147.554 127.652 150.298C125.63 154.575 126.812 162.669 128.754 167.037C130.697 171.405 139.256 169.695 142.386 169.15C144.509 168.746 146.588 168.139 148.594 167.338C149.508 167.69 150.496 167.804 151.466 167.669C152.436 167.533 153.355 167.154 154.138 166.565C154.138 166.565 144.982 140.863 146.959 134.462Z" fill="white"/>
</mask>
<g mask="url(#mask14_0_4929)">
<path d="M146.959 134.462L129.85 141.602C129.643 144.608 128.899 147.554 127.652 150.298C125.63 154.575 126.812 162.669 128.754 167.037C129.079 167.739 129.602 168.331 130.259 168.741V168.411C130.259 168.411 127.084 160.544 127.686 156.006C128.288 151.468 130.867 149.19 131.168 146.322C131.469 143.453 131.316 142.09 137.07 139.972C142.823 137.853 145.237 135.888 145.84 138.001C146.442 140.114 148.867 154.041 150.531 157.369C152.195 160.698 152.042 164.185 149.475 165.691C146.88 167.248 144.1 168.473 141.199 169.337L142.409 169.127C144.532 168.723 146.61 168.116 148.617 167.315C149.531 167.667 150.519 167.781 151.489 167.646C152.459 167.511 153.378 167.131 154.161 166.543C154.161 166.543 144.982 140.863 146.959 134.462Z" fill="#0D4C7B"/>
<path opacity="0.5" d="M146.959 134.462L129.85 141.602C129.643 144.608 128.899 147.554 127.652 150.298C125.63 154.575 126.812 162.669 128.754 167.037C129.079 167.739 129.602 168.331 130.259 168.741V168.411C130.259 168.411 127.084 160.544 127.686 156.006C128.288 151.468 130.867 149.19 131.168 146.322C131.469 143.453 131.316 142.09 137.07 139.972C142.823 137.853 145.237 135.888 145.84 138.001C146.442 140.114 148.867 154.041 150.531 157.369C152.195 160.698 152.042 164.185 149.475 165.691C146.88 167.248 144.1 168.473 141.199 169.337L142.409 169.127C144.532 168.723 146.61 168.116 148.617 167.315C149.531 167.667 150.519 167.781 151.489 167.646C152.459 167.511 153.378 167.131 154.161 166.543C154.161 166.543 144.982 140.863 146.959 134.462Z" fill="white"/>
</g>
<path d="M146.959 134.462L129.85 141.602C129.643 144.608 128.899 147.554 127.652 150.298C125.63 154.575 126.812 162.669 128.754 167.037C130.697 171.405 139.256 169.695 142.386 169.15C144.509 168.746 146.588 168.139 148.594 167.338C149.508 167.69 150.496 167.804 151.466 167.669C152.436 167.533 153.355 167.154 154.138 166.565C154.138 166.565 144.982 140.863 146.959 134.462Z" stroke="#263238" stroke-linecap="round" stroke-linejoin="round"/>
<path d="M138.313 145.657C138.36 146.663 138.235 147.67 137.944 148.634C137.49 149.77 133.201 154.234 133.332 154.717C133.463 155.2 133.849 156.75 134.61 156.898" stroke="#263238" stroke-linecap="round" stroke-linejoin="round"/>
<path d="M143.067 149.651C143.664 148.458 145.623 149.622 145.595 152.309" stroke="#263238" stroke-linecap="round" stroke-linejoin="round"/>
<path d="M133.354 146.14C133.354 146.14 135.024 145.408 136.518 148.111" stroke="#263238" stroke-linecap="round" stroke-linejoin="round"/>
<path d="M140.693 153.587C142.623 153.684 144.458 154.454 145.879 155.762" stroke="#263238" stroke-width="0.5" stroke-linecap="round" stroke-linejoin="round"/>
<path d="M131.339 150.037C132.337 150.17 133.311 150.44 134.236 150.838" stroke="#263238" stroke-width="0.5" stroke-linecap="round" stroke-linejoin="round"/>
<path d="M138.126 143.136C137.685 142.902 137.196 142.775 136.697 142.763C136.199 142.751 135.704 142.855 135.252 143.067C133.724 143.8 132.787 144.607 132.889 143.67C132.992 142.732 134.787 141.699 135.326 141.562C135.866 141.426 138.28 141.051 138.126 143.136Z" fill="#263238"/>
<path d="M142.408 141.017C144 142.306 145.266 143.952 146.1 145.823C147.236 148.663 148.134 145.561 147.236 143.704C146.339 141.847 143.743 139.87 142.408 141.017Z" fill="#263238"/>
<path d="M154.388 171.422C154.388 172.746 153.638 173.819 152.718 173.819C151.798 173.819 151.054 172.746 151.054 171.422C151.054 170.099 151.798 166.73 152.718 166.73C153.638 166.73 154.388 170.099 154.388 171.422Z" fill="#0D4C7B" stroke="#263238" stroke-linecap="round" stroke-linejoin="round"/>
<path d="M143.216 149.134C143.15 149.307 143.099 149.486 143.062 149.668C142.898 150.508 142.733 152.263 143.062 152.337C143.392 152.411 144.198 150.77 144.34 149.929C144.372 149.764 144.391 149.597 144.397 149.429C144.009 149.308 143.615 149.209 143.216 149.134Z" fill="#263238"/>
<path d="M133.526 145.976C133.475 146.124 133.435 146.276 133.407 146.43C133.236 147.271 133.242 149.117 133.6 149.185C133.958 149.253 134.543 147.526 134.707 146.686C134.748 146.482 134.771 146.274 134.775 146.066C134.369 145.955 133.944 145.924 133.526 145.976Z" fill="#263238"/>
<path d="M143.068 149.679L143.636 148.622C144.537 148.797 145.353 149.269 145.954 149.963" stroke="#263238" stroke-width="0.75" stroke-linecap="round" stroke-linejoin="round"/>
<path d="M133.525 145.976L134.093 145.311C134.093 145.311 134.338 145.192 135.678 145.8" stroke="#263238" stroke-width="0.75" stroke-linecap="round" stroke-linejoin="round"/>
<path d="M131.373 161.38C131.373 161.38 132.327 159.625 133.605 159.625C134.883 159.625 135.838 162.493 135.838 162.493" stroke="#263238" stroke-linecap="round" stroke-linejoin="round"/>
<path d="M163.141 240.298H104.785L102.882 208.217C102.829 207.906 102.845 207.588 102.928 207.283C103.01 206.979 103.158 206.696 103.36 206.454C103.563 206.212 103.815 206.017 104.1 205.882C104.386 205.747 104.697 205.676 105.012 205.673H162.891C163.209 205.673 163.522 205.742 163.81 205.875C164.098 206.008 164.354 206.203 164.559 206.445C164.764 206.688 164.913 206.972 164.997 207.278C165.081 207.584 165.097 207.905 165.044 208.217L163.141 240.298Z" fill="#263238" stroke="#263238" stroke-linecap="round" stroke-linejoin="round"/>
<path d="M107.659 206.44H162.471C162.781 206.436 163.087 206.501 163.369 206.629C163.652 206.756 163.902 206.944 164.104 207.179C164.306 207.414 164.454 207.69 164.538 207.988C164.622 208.286 164.64 208.599 164.59 208.905" stroke="white" stroke-linecap="round" stroke-linejoin="round"/>
<path d="M103.308 208.399C103.353 207.862 103.6 207.362 103.998 206.999C104.396 206.636 104.916 206.436 105.455 206.439" stroke="white" stroke-linecap="round" stroke-linejoin="round"/>
<path d="M163.386 237.174H104.541V240.298H163.386V237.174Z" fill="white" stroke="#263238" stroke-linecap="round" stroke-linejoin="round"/>
<path d="M133.753 225.61C136.056 225.61 137.922 224.491 137.922 223.111C137.922 221.73 136.056 220.611 133.753 220.611C131.451 220.611 129.584 221.73 129.584 223.111C129.584 224.491 131.451 225.61 133.753 225.61Z" fill="white" stroke="#263238" stroke-linecap="round" stroke-linejoin="round"/>
<path d="M252.141 239.929H32.9727V245.251H252.141V239.929Z" fill="#263238"/>
<path d="M195.313 42.5996H89.8749C86.3207 42.5996 83.4395 45.4809 83.4395 49.0351V109.533C83.4395 113.087 86.3207 115.968 89.8749 115.968H195.313C198.867 115.968 201.748 113.087 201.748 109.533V49.0351C201.748 45.4809 198.867 42.5996 195.313 42.5996Z" fill="#008CD9"/>
<path d="M145.376 84.7623C154.94 83.2252 161.448 74.2258 159.911 64.6615C158.373 55.0972 149.374 48.5899 139.81 50.127C130.246 51.6641 123.738 60.6635 125.275 70.2278C126.812 79.792 135.812 86.2994 145.376 84.7623Z" fill="#263238"/>
<path d="M142.46 70.6874L136.616 78.1907C136.417 78.5031 136.144 78.7611 135.82 78.9415C135.497 79.122 135.134 79.2192 134.764 79.2245C134.256 79.2314 133.766 79.0375 133.401 78.6849C133.215 78.5145 133.068 78.306 132.97 78.0737C132.872 77.8414 132.825 77.5907 132.833 77.3387C132.851 76.7743 133.05 76.2307 133.401 75.7881L140.063 67.5464L133.815 59.299C133.525 58.912 133.366 58.4424 133.361 57.9585C133.36 57.67 133.418 57.3843 133.532 57.1194C133.647 56.8544 133.815 56.6161 134.026 56.4193C134.224 56.2124 134.462 56.0478 134.725 55.9355C134.989 55.8232 135.273 55.7656 135.559 55.7661C135.926 55.772 136.286 55.8697 136.605 56.0503C136.925 56.2309 137.194 56.4885 137.388 56.7998L143.034 64.2349L148.714 56.9248C148.917 56.5837 149.201 56.298 149.541 56.0929C149.881 55.8879 150.266 55.7697 150.662 55.749C150.908 55.7484 151.152 55.7985 151.378 55.8963C151.603 55.994 151.807 56.1372 151.974 56.317C152.153 56.4856 152.296 56.6889 152.394 56.9145C152.491 57.1401 152.542 57.3833 152.542 57.6291C152.536 58.069 152.385 58.4945 152.111 58.8389L145.425 67.393L151.884 75.913C152.189 76.2939 152.359 76.7655 152.366 77.2535C152.368 77.5357 152.309 77.8149 152.192 78.0719C152.075 78.3288 151.904 78.5574 151.69 78.7417C151.274 79.1424 150.718 79.3663 150.14 79.3665C149.771 79.3619 149.409 79.2649 149.088 79.0842C148.766 78.9036 148.495 78.6452 148.299 78.3327L142.46 70.6874Z" fill="white"/>
<path d="M176.012 103.262H109.153C107.797 103.262 106.497 102.723 105.538 101.765C104.58 100.806 104.041 99.5059 104.041 98.1501C104.041 96.7943 104.58 95.494 105.538 94.5354C106.497 93.5767 107.797 93.0381 109.153 93.0381H176.012C177.368 93.0381 178.668 93.5767 179.627 94.5354C180.586 95.494 181.124 96.7943 181.124 98.1501C181.124 99.5059 180.586 100.806 179.627 101.765C178.668 102.723 177.368 103.262 176.012 103.262Z" fill="white"/>
<path d="M118.314 99.7972C118.27 99.7972 118.226 99.7882 118.185 99.7706C118.144 99.753 118.107 99.7273 118.076 99.695C118.042 99.6617 118.016 99.6218 117.998 99.5778C117.981 99.5338 117.972 99.4867 117.974 99.4394C117.974 99.3594 117.995 99.2809 118.036 99.2122L118.547 98.417H117.502C117.454 98.4195 117.406 98.4117 117.361 98.394C117.315 98.3764 117.275 98.3494 117.241 98.3148C117.182 98.2468 117.15 98.1601 117.15 98.0705C117.15 97.9809 117.182 97.8943 117.241 97.8263C117.275 97.7917 117.315 97.7647 117.361 97.747C117.406 97.7294 117.454 97.7216 117.502 97.724L118.53 97.7525L118.076 97.014C118.03 96.9384 118.005 96.8524 118.002 96.7641C118.001 96.7168 118.009 96.6697 118.027 96.6257C118.044 96.5818 118.071 96.5419 118.104 96.5085C118.136 96.4761 118.174 96.4503 118.216 96.4327C118.258 96.4152 118.303 96.4062 118.348 96.4063C118.412 96.4053 118.475 96.4232 118.528 96.4575C118.582 96.4919 118.624 96.5412 118.65 96.5994L119.149 97.4912L119.626 96.6392C119.657 96.5729 119.704 96.5161 119.764 96.475C119.824 96.434 119.895 96.4102 119.967 96.4063C120.012 96.4063 120.056 96.4154 120.097 96.4329C120.138 96.4505 120.175 96.4762 120.206 96.5085C120.239 96.5397 120.265 96.5776 120.283 96.6197C120.301 96.6618 120.309 96.7071 120.308 96.7528C120.307 96.8334 120.284 96.9122 120.24 96.98L119.74 97.7808L120.78 97.7525C120.828 97.7496 120.876 97.7573 120.921 97.7749C120.966 97.7926 121.007 97.8198 121.041 97.8547C121.099 97.9227 121.131 98.0093 121.131 98.0989C121.131 98.1885 121.099 98.2752 121.041 98.3432C121.007 98.3781 120.966 98.4053 120.921 98.4229C120.876 98.4406 120.828 98.4483 120.78 98.4454H119.729L120.194 99.1725C120.247 99.2602 120.276 99.3599 120.28 99.4621C120.281 99.5081 120.274 99.554 120.257 99.597C120.24 99.6399 120.215 99.6791 120.183 99.712C120.153 99.7439 120.117 99.7694 120.077 99.787C120.037 99.8046 119.994 99.8138 119.95 99.8143C119.88 99.8126 119.812 99.7908 119.753 99.7516C119.695 99.7123 119.649 99.6572 119.621 99.5928L119.149 98.7578L118.678 99.5928C118.644 99.6585 118.591 99.7129 118.527 99.7492C118.462 99.7856 118.388 99.8022 118.314 99.7972Z" fill="black"/>
<path d="M123.529 99.7973C123.485 99.7973 123.44 99.7883 123.399 99.7707C123.358 99.7531 123.321 99.7274 123.291 99.6951C123.257 99.6617 123.231 99.6218 123.213 99.5779C123.195 99.5339 123.187 99.4868 123.188 99.4395C123.188 99.3595 123.21 99.281 123.251 99.2123L123.762 98.4171H122.717C122.669 98.4196 122.62 98.4117 122.575 98.3941C122.53 98.3765 122.49 98.3495 122.456 98.3148C122.397 98.2469 122.365 98.1602 122.365 98.0706C122.365 97.981 122.397 97.8943 122.456 97.8264C122.49 97.7918 122.53 97.7647 122.575 97.7471C122.62 97.7295 122.669 97.7217 122.717 97.7241L123.745 97.7525L123.262 96.9857C123.217 96.9101 123.191 96.8241 123.188 96.7358C123.187 96.6885 123.195 96.6414 123.213 96.5974C123.231 96.5535 123.257 96.5136 123.291 96.4802C123.323 96.4477 123.361 96.422 123.402 96.4044C123.444 96.3868 123.489 96.3779 123.535 96.378C123.599 96.377 123.661 96.3948 123.715 96.4292C123.768 96.4635 123.81 96.5129 123.836 96.5711L124.336 97.4628L124.813 96.6108C124.843 96.5446 124.891 96.4878 124.951 96.4467C125.011 96.4057 125.081 96.3819 125.154 96.378C125.198 96.378 125.242 96.387 125.283 96.4046C125.324 96.4222 125.362 96.4479 125.392 96.4802C125.426 96.5114 125.452 96.5493 125.469 96.5914C125.487 96.6335 125.496 96.6788 125.495 96.7244C125.494 96.8051 125.47 96.8839 125.426 96.9517L124.927 97.7525L125.966 97.7241C126.014 97.7213 126.063 97.7289 126.108 97.7466C126.153 97.7642 126.194 97.7915 126.227 97.8264C126.286 97.8943 126.318 97.981 126.318 98.0706C126.318 98.1602 126.286 98.2469 126.227 98.3148C126.194 98.3498 126.153 98.377 126.108 98.3946C126.063 98.4123 126.014 98.4199 125.966 98.4171H124.915L125.381 99.1441C125.433 99.2319 125.463 99.3316 125.466 99.4338C125.468 99.4798 125.46 99.5257 125.443 99.5687C125.427 99.6116 125.402 99.6508 125.37 99.6837C125.34 99.7156 125.304 99.7411 125.264 99.7587C125.224 99.7762 125.18 99.7855 125.137 99.786C125.066 99.785 124.998 99.7635 124.939 99.7242C124.881 99.6848 124.835 99.6293 124.807 99.5644L124.336 98.7295L123.864 99.5644C123.836 99.6311 123.79 99.6884 123.731 99.7296C123.671 99.7708 123.601 99.7943 123.529 99.7973Z" fill="black"/>
<path d="M128.743 99.7973C128.698 99.7973 128.654 99.7883 128.613 99.7707C128.572 99.7531 128.535 99.7274 128.505 99.6951C128.471 99.6617 128.445 99.6218 128.427 99.5779C128.409 99.5339 128.401 99.4868 128.402 99.4395C128.402 99.3595 128.424 99.281 128.465 99.2123L128.976 98.4171H127.931C127.883 98.4196 127.834 98.4117 127.789 98.3941C127.744 98.3765 127.703 98.3495 127.67 98.3148C127.611 98.2469 127.579 98.1602 127.579 98.0706C127.579 97.981 127.611 97.8943 127.67 97.8264C127.703 97.7918 127.744 97.7647 127.789 97.7471C127.834 97.7295 127.883 97.7217 127.931 97.7241L128.959 97.7525L128.476 96.9857C128.431 96.9101 128.405 96.8241 128.402 96.7358C128.401 96.6885 128.409 96.6414 128.427 96.5974C128.445 96.5535 128.471 96.5136 128.505 96.4802C128.536 96.4477 128.574 96.422 128.616 96.4044C128.658 96.3868 128.703 96.3779 128.749 96.378C128.812 96.377 128.875 96.3948 128.928 96.4292C128.982 96.4635 129.024 96.5129 129.05 96.5711L129.55 97.4628L130.027 96.6108C130.057 96.5446 130.105 96.4878 130.165 96.4467C130.225 96.4057 130.295 96.3819 130.368 96.378C130.412 96.378 130.456 96.387 130.497 96.4046C130.538 96.4222 130.575 96.4479 130.606 96.4802C130.639 96.5114 130.666 96.5493 130.683 96.5914C130.701 96.6335 130.71 96.6788 130.708 96.7244C130.708 96.8051 130.684 96.8839 130.64 96.9517L130.14 97.7525L131.18 97.7241C131.228 97.7213 131.277 97.7289 131.322 97.7466C131.367 97.7642 131.408 97.7915 131.441 97.8264C131.499 97.8943 131.532 97.981 131.532 98.0706C131.532 98.1602 131.499 98.2469 131.441 98.3148C131.408 98.3498 131.367 98.377 131.322 98.3946C131.277 98.4123 131.228 98.4199 131.18 98.4171H130.129L130.595 99.1441C130.647 99.2319 130.677 99.3316 130.68 99.4338C130.682 99.4798 130.674 99.5257 130.657 99.5687C130.641 99.6116 130.616 99.6508 130.583 99.6837C130.554 99.7156 130.517 99.7411 130.477 99.7587C130.437 99.7762 130.394 99.7855 130.351 99.786C130.28 99.785 130.211 99.7635 130.153 99.7242C130.094 99.6848 130.049 99.6293 130.021 99.5644L129.55 98.7295L129.078 99.5644C129.05 99.6311 129.004 99.6884 128.945 99.7296C128.885 99.7708 128.815 99.7943 128.743 99.7973Z" fill="black"/>
<path d="M133.98 99.7973C133.936 99.7973 133.892 99.7883 133.851 99.7707C133.81 99.7531 133.773 99.7274 133.742 99.6951C133.708 99.6617 133.682 99.6218 133.664 99.5779C133.647 99.5339 133.638 99.4868 133.64 99.4395C133.64 99.3595 133.661 99.281 133.702 99.2123L134.213 98.4171H133.168C133.12 98.4196 133.072 98.4117 133.027 98.3941C132.981 98.3765 132.941 98.3495 132.907 98.3148C132.849 98.2469 132.816 98.1602 132.816 98.0706C132.816 97.981 132.849 97.8943 132.907 97.8264C132.941 97.7918 132.981 97.7647 133.027 97.7471C133.072 97.7295 133.12 97.7217 133.168 97.7241L134.196 97.7525L133.713 96.9857C133.668 96.9101 133.642 96.8241 133.64 96.7358C133.638 96.6885 133.647 96.6414 133.664 96.5974C133.682 96.5535 133.708 96.5136 133.742 96.4802C133.774 96.4477 133.812 96.422 133.854 96.4044C133.896 96.3868 133.941 96.3779 133.986 96.378C134.05 96.377 134.112 96.3948 134.166 96.4292C134.219 96.4635 134.261 96.5129 134.287 96.5711L134.787 97.4628L135.264 96.6108C135.294 96.5446 135.342 96.4878 135.402 96.4467C135.462 96.4057 135.532 96.3819 135.605 96.378C135.65 96.378 135.694 96.387 135.735 96.4046C135.776 96.4222 135.813 96.4479 135.843 96.4802C135.877 96.5114 135.903 96.5493 135.921 96.5914C135.938 96.6335 135.947 96.6788 135.946 96.7244C135.945 96.8051 135.921 96.8839 135.878 96.9517L135.378 97.7525L136.417 97.7241C136.465 97.7213 136.514 97.7289 136.559 97.7466C136.604 97.7642 136.645 97.7915 136.678 97.8264C136.737 97.8943 136.769 97.981 136.769 98.0706C136.769 98.1602 136.737 98.2469 136.678 98.3148C136.645 98.3498 136.604 98.377 136.559 98.3946C136.514 98.4123 136.465 98.4199 136.417 98.4171H135.366L135.832 99.1441C135.885 99.2319 135.914 99.3316 135.917 99.4338C135.919 99.4798 135.911 99.5257 135.895 99.5687C135.878 99.6116 135.853 99.6508 135.821 99.6837C135.791 99.7156 135.755 99.7411 135.715 99.7587C135.675 99.7762 135.632 99.7855 135.588 99.786C135.518 99.7843 135.449 99.7625 135.391 99.7233C135.332 99.684 135.287 99.6289 135.258 99.5644L134.787 98.7295L134.316 99.5644C134.288 99.6311 134.241 99.6884 134.182 99.7296C134.122 99.7708 134.053 99.7943 133.98 99.7973Z" fill="black"/>
<path d="M139.172 99.7973C139.127 99.7973 139.083 99.7883 139.042 99.7707C139.001 99.7531 138.964 99.7274 138.933 99.6951C138.9 99.6617 138.873 99.6218 138.856 99.5779C138.838 99.5339 138.83 99.4868 138.831 99.4395C138.834 99.3599 138.855 99.282 138.893 99.2123L139.405 98.4171H138.36C138.311 98.4196 138.263 98.4117 138.218 98.3941C138.173 98.3765 138.132 98.3495 138.098 98.3148C138.04 98.2469 138.008 98.1602 138.008 98.0706C138.008 97.981 138.04 97.8944 138.098 97.8264C138.132 97.7918 138.173 97.7647 138.218 97.7471C138.263 97.7295 138.311 97.7217 138.36 97.7241L139.388 97.7525L138.905 96.9857C138.859 96.9101 138.834 96.8241 138.831 96.7358C138.83 96.6885 138.838 96.6414 138.856 96.5974C138.873 96.5535 138.9 96.5136 138.933 96.4802C138.965 96.4477 139.003 96.422 139.045 96.4044C139.087 96.3868 139.132 96.3779 139.177 96.378C139.241 96.377 139.304 96.3948 139.357 96.4292C139.411 96.4635 139.453 96.5129 139.479 96.5711L139.978 97.4628L140.455 96.6108C140.486 96.5446 140.533 96.4878 140.593 96.4467C140.653 96.4057 140.724 96.3819 140.796 96.378C140.841 96.3773 140.885 96.386 140.926 96.4037C140.968 96.4213 141.005 96.4474 141.035 96.4802C141.068 96.5114 141.094 96.5493 141.112 96.5914C141.13 96.6335 141.138 96.6788 141.137 96.7244C141.136 96.8051 141.113 96.8839 141.069 96.9517L140.569 97.7525L141.609 97.7241C141.657 97.7213 141.705 97.7289 141.75 97.7466C141.795 97.7642 141.836 97.7915 141.87 97.8264C141.928 97.8944 141.96 97.981 141.96 98.0706C141.96 98.1602 141.928 98.2469 141.87 98.3148C141.836 98.3498 141.795 98.377 141.75 98.3946C141.705 98.4123 141.657 98.4199 141.609 98.4171H140.558L141.023 99.1441C141.076 99.2319 141.105 99.3316 141.109 99.4338C141.11 99.4798 141.103 99.5257 141.086 99.5687C141.069 99.6116 141.044 99.6508 141.012 99.6837C140.982 99.7156 140.946 99.7411 140.906 99.7587C140.866 99.7762 140.823 99.7855 140.779 99.786C140.709 99.7843 140.641 99.7625 140.582 99.7233C140.524 99.684 140.478 99.6289 140.45 99.5644L139.978 98.7295L139.507 99.5644C139.479 99.6311 139.433 99.6884 139.373 99.7296C139.314 99.7708 139.244 99.7943 139.172 99.7973Z" fill="black"/>
<path d="M144.386 99.7973C144.341 99.7973 144.297 99.7883 144.256 99.7707C144.215 99.7531 144.178 99.7274 144.147 99.6951C144.114 99.6617 144.087 99.6218 144.07 99.5779C144.052 99.5339 144.044 99.4868 144.045 99.4395C144.048 99.3599 144.069 99.282 144.107 99.2123L144.619 98.4171H143.579C143.53 98.42 143.481 98.4124 143.435 98.3948C143.389 98.3772 143.347 98.3499 143.312 98.3148C143.254 98.2469 143.222 98.1602 143.222 98.0706C143.222 97.981 143.254 97.8944 143.312 97.8264C143.347 97.7913 143.389 97.7641 143.435 97.7464C143.481 97.7288 143.53 97.7212 143.579 97.7241L144.602 97.7525L144.119 96.9857C144.073 96.9101 144.048 96.8241 144.045 96.7358C144.044 96.6885 144.052 96.6414 144.07 96.5974C144.087 96.5535 144.114 96.5136 144.147 96.4802C144.179 96.4477 144.217 96.422 144.259 96.4044C144.301 96.3868 144.346 96.3779 144.391 96.378C144.455 96.377 144.517 96.3948 144.571 96.4292C144.625 96.4635 144.667 96.5129 144.692 96.5711L145.192 97.4628L145.669 96.6108C145.699 96.5446 145.747 96.4878 145.807 96.4467C145.867 96.4057 145.937 96.3819 146.01 96.378C146.055 96.3773 146.099 96.386 146.14 96.4037C146.181 96.4213 146.218 96.4474 146.249 96.4802C146.282 96.5114 146.308 96.5493 146.326 96.5914C146.344 96.6335 146.352 96.6788 146.351 96.7244C146.35 96.8051 146.327 96.8839 146.283 96.9517L145.783 97.7525L146.822 97.7241C146.871 97.7213 146.919 97.7289 146.964 97.7466C147.009 97.7642 147.05 97.7915 147.084 97.8264C147.142 97.8944 147.174 97.981 147.174 98.0706C147.174 98.1602 147.142 98.2469 147.084 98.3148C147.05 98.3498 147.009 98.377 146.964 98.3946C146.919 98.4123 146.871 98.4199 146.822 98.4171H145.772L146.237 99.1441C146.29 99.2319 146.319 99.3316 146.323 99.4338C146.324 99.4798 146.316 99.5257 146.3 99.5687C146.283 99.6116 146.258 99.6508 146.226 99.6837C146.196 99.7156 146.16 99.7411 146.12 99.7587C146.08 99.7762 146.037 99.7855 145.993 99.786C145.923 99.7843 145.854 99.7625 145.796 99.7233C145.738 99.684 145.692 99.6289 145.664 99.5644L145.192 98.7295L144.721 99.5644C144.693 99.6311 144.646 99.6884 144.587 99.7296C144.528 99.7708 144.458 99.7943 144.386 99.7973Z" fill="black"/>
<path d="M149.601 99.7972C149.556 99.7972 149.512 99.7882 149.471 99.7706C149.43 99.753 149.393 99.7273 149.362 99.695C149.328 99.6617 149.302 99.6218 149.284 99.5778C149.267 99.5338 149.258 99.4867 149.26 99.4394C149.26 99.3594 149.281 99.2809 149.322 99.2122L149.833 98.417H148.788C148.74 98.4195 148.692 98.4117 148.647 98.394C148.602 98.3764 148.561 98.3494 148.527 98.3148C148.469 98.2468 148.437 98.1601 148.437 98.0705C148.437 97.9809 148.469 97.8943 148.527 97.8263C148.561 97.7917 148.602 97.7647 148.647 97.747C148.692 97.7294 148.74 97.7216 148.788 97.7241L149.816 97.7525L149.317 97.0141C149.271 96.9384 149.246 96.8524 149.243 96.7641C149.241 96.7168 149.25 96.6697 149.267 96.6257C149.285 96.5818 149.311 96.5419 149.345 96.5085C149.377 96.4761 149.415 96.4503 149.457 96.4327C149.499 96.4152 149.544 96.4062 149.589 96.4063C149.653 96.4053 149.715 96.4232 149.769 96.4575C149.822 96.4919 149.865 96.5412 149.89 96.5994L150.39 97.4912L150.867 96.6392C150.897 96.5729 150.945 96.5161 151.005 96.475C151.065 96.434 151.135 96.4102 151.208 96.4063C151.253 96.4056 151.297 96.4144 151.338 96.432C151.379 96.4496 151.416 96.4757 151.447 96.5085C151.48 96.5397 151.506 96.5776 151.524 96.6197C151.541 96.6618 151.55 96.7072 151.549 96.7528C151.548 96.8334 151.524 96.9122 151.481 96.98L150.981 97.7808L152.02 97.7525C152.069 97.7496 152.117 97.7573 152.162 97.7749C152.207 97.7926 152.248 97.8198 152.281 97.8547C152.34 97.9227 152.372 98.0093 152.372 98.0989C152.372 98.1885 152.34 98.2752 152.281 98.3432C152.248 98.3781 152.207 98.4053 152.162 98.4229C152.117 98.4406 152.069 98.4483 152.02 98.4454H150.969L151.435 99.1725C151.488 99.2602 151.517 99.3599 151.52 99.4621C151.522 99.5082 151.514 99.554 151.498 99.597C151.481 99.6399 151.456 99.6791 151.424 99.7121C151.394 99.7439 151.358 99.7694 151.318 99.787C151.278 99.8046 151.235 99.8138 151.191 99.8143C151.121 99.8126 151.052 99.7908 150.994 99.7516C150.936 99.7123 150.89 99.6572 150.861 99.5928L150.39 98.7578L149.919 99.5928C149.888 99.6516 149.843 99.7014 149.787 99.7373C149.731 99.7732 149.667 99.7938 149.601 99.7972Z" fill="black"/>
<path d="M154.815 99.7974C154.77 99.7974 154.726 99.7884 154.685 99.7708C154.644 99.7532 154.607 99.7275 154.576 99.6952C154.542 99.6619 154.516 99.622 154.498 99.578C154.481 99.534 154.472 99.4869 154.474 99.4396C154.476 99.36 154.498 99.2822 154.536 99.2124L155.047 98.4172H154.008C153.96 98.4209 153.911 98.4136 153.866 98.3959C153.82 98.3782 153.78 98.3505 153.747 98.315C153.685 98.2487 153.65 98.1614 153.65 98.0707C153.65 97.9801 153.685 97.8928 153.747 97.8265C153.78 97.7909 153.82 97.7633 153.866 97.7456C153.911 97.7279 153.96 97.7206 154.008 97.7243L155.03 97.7527L154.548 96.9859C154.502 96.9102 154.477 96.8242 154.474 96.7359C154.472 96.6895 154.48 96.6432 154.497 96.5998C154.514 96.5565 154.539 96.5169 154.571 96.4836C154.603 96.4502 154.642 96.4236 154.685 96.4055C154.728 96.3874 154.774 96.3781 154.82 96.3781C154.884 96.3771 154.946 96.395 155 96.4293C155.053 96.4637 155.096 96.513 155.121 96.5712L155.621 97.463L156.098 96.611C156.128 96.5447 156.176 96.4879 156.236 96.4468C156.296 96.4058 156.366 96.382 156.439 96.3781C156.484 96.3767 156.528 96.3851 156.57 96.4027C156.611 96.4204 156.648 96.4469 156.678 96.4803C156.711 96.5115 156.737 96.5494 156.755 96.5915C156.772 96.6336 156.781 96.6789 156.78 96.7246C156.779 96.8052 156.755 96.884 156.712 96.9518L156.212 97.7527L157.251 97.7243C157.3 97.7214 157.348 97.7291 157.393 97.7467C157.438 97.7644 157.479 97.7916 157.513 97.8265C157.571 97.8945 157.603 97.9811 157.603 98.0707C157.603 98.1603 157.571 98.247 157.513 98.315C157.479 98.3499 157.438 98.3771 157.393 98.3947C157.348 98.4124 157.3 98.4201 157.251 98.4172H156.2L156.666 99.1443C156.719 99.232 156.748 99.3317 156.751 99.4339C156.753 99.4787 156.746 99.5233 156.73 99.5652C156.714 99.6072 156.69 99.6456 156.66 99.6783C156.629 99.711 156.592 99.7374 156.552 99.7558C156.511 99.7743 156.467 99.7846 156.422 99.7861C156.352 99.7844 156.283 99.7626 156.225 99.7234C156.167 99.6841 156.121 99.629 156.093 99.5646L155.621 98.7296L155.15 99.5646C155.122 99.6312 155.075 99.6885 155.016 99.7297C154.957 99.771 154.887 99.7945 154.815 99.7974Z" fill="black"/>
<path d="M160.028 99.7974C159.984 99.7974 159.94 99.7884 159.899 99.7708C159.858 99.7532 159.821 99.7275 159.79 99.6952C159.756 99.6619 159.73 99.622 159.712 99.578C159.695 99.534 159.686 99.4869 159.688 99.4396C159.69 99.36 159.712 99.2822 159.75 99.2124L160.261 98.4172H159.216C159.169 98.42 159.121 98.4123 159.077 98.3946C159.033 98.3769 158.993 98.3497 158.961 98.315C158.899 98.2487 158.864 98.1614 158.864 98.0707C158.864 97.9801 158.899 97.8928 158.961 97.8265C158.993 97.7917 159.033 97.7645 159.077 97.7468C159.121 97.7292 159.169 97.7215 159.216 97.7243L160.244 97.7527L159.761 96.9859C159.716 96.9102 159.69 96.8242 159.688 96.7359C159.686 96.6895 159.694 96.6432 159.711 96.5998C159.727 96.5565 159.753 96.5169 159.785 96.4836C159.817 96.4502 159.856 96.4236 159.899 96.4055C159.942 96.3874 159.988 96.3781 160.034 96.3781C160.098 96.3771 160.16 96.395 160.214 96.4293C160.267 96.4637 160.309 96.513 160.335 96.5712L160.835 97.463L161.312 96.611C161.342 96.5447 161.39 96.4879 161.45 96.4468C161.51 96.4058 161.58 96.382 161.653 96.3781C161.698 96.3767 161.742 96.3851 161.784 96.4027C161.825 96.4204 161.862 96.4469 161.891 96.4803C161.925 96.5115 161.951 96.5494 161.969 96.5915C161.986 96.6336 161.995 96.6789 161.994 96.7246C161.993 96.8052 161.969 96.884 161.926 96.9518L161.426 97.7527L162.465 97.7243C162.513 97.7214 162.562 97.7291 162.607 97.7467C162.652 97.7644 162.693 97.7916 162.726 97.8265C162.785 97.8945 162.817 97.9811 162.817 98.0707C162.817 98.1603 162.785 98.247 162.726 98.315C162.693 98.3499 162.652 98.3771 162.607 98.3947C162.562 98.4124 162.513 98.4201 162.465 98.4172H161.414L161.88 99.1443C161.933 99.232 161.962 99.3317 161.965 99.4339C161.967 99.4787 161.96 99.5233 161.944 99.5652C161.928 99.6072 161.904 99.6456 161.874 99.6783C161.843 99.711 161.806 99.7374 161.765 99.7558C161.725 99.7743 161.681 99.7846 161.636 99.7861C161.566 99.7844 161.497 99.7626 161.439 99.7234C161.38 99.6841 161.335 99.629 161.306 99.5646L160.835 98.7296L160.364 99.5646C160.336 99.6312 160.289 99.6885 160.23 99.7297C160.17 99.771 160.101 99.7945 160.028 99.7974Z" fill="black"/>
<path d="M165.22 99.7974C165.175 99.7974 165.131 99.7884 165.09 99.7708C165.049 99.7532 165.012 99.7275 164.981 99.6952C164.948 99.6619 164.921 99.622 164.904 99.578C164.886 99.534 164.878 99.4869 164.879 99.4396C164.882 99.36 164.903 99.2822 164.942 99.2124L165.453 98.4172H164.408C164.36 98.42 164.313 98.4123 164.268 98.3946C164.224 98.3769 164.184 98.3497 164.152 98.315C164.09 98.2487 164.056 98.1614 164.056 98.0707C164.056 97.9801 164.09 97.8928 164.152 97.8265C164.184 97.7917 164.224 97.7645 164.268 97.7468C164.313 97.7292 164.36 97.7215 164.408 97.7243L165.436 97.7527L164.953 96.9859C164.907 96.9102 164.882 96.8242 164.879 96.7359C164.878 96.6886 164.886 96.6415 164.904 96.5975C164.921 96.5536 164.948 96.5137 164.981 96.4803C165.013 96.4479 165.051 96.4221 165.093 96.4045C165.135 96.387 165.18 96.378 165.225 96.3781C165.289 96.3771 165.352 96.395 165.405 96.4293C165.459 96.4637 165.501 96.513 165.527 96.5712L166.026 97.463L166.503 96.611C166.534 96.5447 166.581 96.4879 166.641 96.4468C166.701 96.4058 166.772 96.382 166.844 96.3781C166.889 96.3767 166.934 96.3851 166.975 96.4027C167.016 96.4204 167.053 96.4469 167.083 96.4803C167.116 96.5115 167.142 96.5494 167.16 96.5915C167.178 96.6336 167.186 96.6789 167.185 96.7246C167.184 96.8052 167.161 96.884 167.117 96.9518L166.617 97.7527L167.657 97.7243C167.705 97.7214 167.753 97.7291 167.798 97.7467C167.843 97.7644 167.884 97.7916 167.918 97.8265C167.976 97.8945 168.008 97.9811 168.008 98.0707C168.008 98.1603 167.976 98.247 167.918 98.315C167.884 98.3499 167.843 98.3771 167.798 98.3947C167.753 98.4124 167.705 98.4201 167.657 98.4172H166.606L167.072 99.1443C167.124 99.232 167.153 99.3317 167.157 99.4339C167.158 99.4799 167.151 99.5258 167.134 99.5688C167.117 99.6117 167.092 99.6509 167.06 99.6839C167.03 99.7157 166.994 99.7412 166.954 99.7588C166.914 99.7764 166.871 99.7856 166.827 99.7861C166.757 99.7844 166.689 99.7626 166.63 99.7234C166.572 99.6841 166.526 99.629 166.498 99.5646L166.026 98.7296L165.555 99.5646C165.527 99.6312 165.481 99.6885 165.421 99.7297C165.362 99.771 165.292 99.7945 165.22 99.7974Z" fill="black"/>
<path d="M183.09 112.361H190.036" stroke="white" stroke-width="3" stroke-linecap="round" stroke-linejoin="round"/>
<path d="M86.7393 61.2129V107.352C86.7393 108.688 87.2701 109.969 88.2149 110.914C89.1597 111.859 90.4412 112.39 91.7774 112.39H176.495" stroke="white" stroke-width="3" stroke-linecap="round" stroke-linejoin="round"/>
<path d="M86.7402 48.9785V55.8968" stroke="white" stroke-width="3" stroke-linecap="round" stroke-linejoin="round"/>
</svg>
