<svg width="59" height="57" viewBox="0 0 59 57" fill="none" xmlns="http://www.w3.org/2000/svg">
<rect width="59" height="57" rx="9" fill="#8B5CF6"/>
<path opacity="0.4" d="M39.5 26.42V37.145C39.455 41.42 38.285 42.5 33.83 42.5H19.67C15.14 42.5 14 41.375 14 36.905V26.42C14 22.37 14.945 21.065 18.5 20.855C18.86 20.84 19.25 20.825 19.67 20.825H33.83C38.36 20.825 39.5 21.95 39.5 26.42Z" fill="white"/>
<path d="M44 21.095V31.58C44 35.63 43.055 36.935 39.5 37.145V26.42C39.5 21.95 38.36 20.825 33.83 20.825H19.67C19.25 20.825 18.86 20.84 18.5 20.855C18.545 16.58 19.715 15.5 24.17 15.5H38.33C42.86 15.5 44 16.625 44 21.095Z" fill="white"/>
<path d="M21.4394 38.8398H18.8594C18.2444 38.8398 17.7344 38.3298 17.7344 37.7148C17.7344 37.0998 18.2444 36.5898 18.8594 36.5898H21.4394C22.0544 36.5898 22.5644 37.0998 22.5644 37.7148C22.5644 38.3298 22.0694 38.8398 21.4394 38.8398Z" fill="white"/>
<path d="M29.8241 38.8398H24.6641C24.0491 38.8398 23.5391 38.3298 23.5391 37.7148C23.5391 37.0998 24.0491 36.5898 24.6641 36.5898H29.8241C30.4391 36.5898 30.9491 37.0998 30.9491 37.7148C30.9491 38.3298 30.4541 38.8398 29.8241 38.8398Z" fill="white"/>
<path d="M39.5 28.79H14V31.04H39.5V28.79Z" fill="white"/>
</svg>
