<svg width="283" height="202" viewBox="0 0 283 202" fill="none" xmlns="http://www.w3.org/2000/svg">
<path fill-rule="evenodd" clip-rule="evenodd" d="M170 13C170 5.8203 164.18 0 157 0H10C4.47715 0 0 4.47715 0 10V179C0 184.523 4.47714 189 9.99999 189H273C278.523 189 283 184.523 283 179V44C283 32.402 273.598 23 262 23H180C174.477 23 170 18.5228 170 13Z" fill="#E0E7FF"/>
<path fill-rule="evenodd" clip-rule="evenodd" d="M170 19C170 11.8203 164.18 6 157 6H10C4.47715 6 0 10.4771 0 16V185C0 190.523 4.47714 195 9.99999 195H273C278.523 195 283 190.523 283 185V50C283 38.402 273.598 29 262 29H180C174.477 29 170 24.5228 170 19Z" fill="#C7D2FE"/>
<path fill-rule="evenodd" clip-rule="evenodd" d="M163 24C163 17.9249 158.075 13 152 13H10C4.47715 13 0 17.4771 0 23V192C0 197.523 4.47714 202 9.99999 202H273C278.523 202 283 197.523 283 192V47C283 40.9249 278.075 36 272 36H173C167.477 36 163 31.5228 163 26V24Z" fill="#4F46E5"/>
<g opacity="0.7">
<path d="M257.84 68.09C254.52 63.79 254.52 58.2 257.84 53.9" stroke="white" stroke-width="1.5" stroke-linecap="round" stroke-linejoin="round"/>
<path d="M254.36 71C249.68 64.94 249.68 57.06 254.36 51" stroke="white" stroke-width="1.5" stroke-linecap="round" stroke-linejoin="round"/>
<path d="M261.49 66.21C259.05 63.06 259.05 58.95 261.49 55.8" stroke="white" stroke-width="1.5" stroke-linecap="round" stroke-linejoin="round"/>
<path d="M265.149 63.5996C263.929 62.0196 263.929 59.9696 265.149 58.3896" stroke="white" stroke-width="1.5" stroke-linecap="round" stroke-linejoin="round"/>
</g>
<path d="M18.152 54V42.08H26.104V44H20.328V47.296H25.384V49.216H20.328V54H18.152ZM30.2988 54.192C29.6268 54.192 29.0401 54.0427 28.5388 53.744C28.0481 53.4453 27.6694 53.0293 27.4028 52.496C27.1468 51.9627 27.0188 51.3387 27.0188 50.624V45.296H29.1148V50.448C29.1148 50.8107 29.1841 51.1307 29.3228 51.408C29.4721 51.6747 29.6801 51.888 29.9468 52.048C30.2241 52.1973 30.5334 52.272 30.8748 52.272C31.2161 52.272 31.5201 52.1973 31.7868 52.048C32.0534 51.888 32.2614 51.6693 32.4108 51.392C32.5601 51.1147 32.6348 50.784 32.6348 50.4V45.296H34.7308V54H32.7468V52.288L32.9228 52.592C32.7201 53.1253 32.3841 53.5253 31.9148 53.792C31.4561 54.0587 30.9174 54.192 30.2988 54.192ZM36.6791 54V45.296H38.6471V47.008L38.4871 46.704C38.6898 46.1813 39.0205 45.7867 39.4791 45.52C39.9485 45.2427 40.4925 45.104 41.1111 45.104C41.7511 45.104 42.3165 45.2427 42.8071 45.52C43.3085 45.7973 43.6978 46.1867 43.9751 46.688C44.2525 47.1787 44.3911 47.7493 44.3911 48.4V54H42.2951V48.896C42.2951 48.512 42.2205 48.1813 42.0711 47.904C41.9218 47.6267 41.7138 47.4133 41.4471 47.264C41.1911 47.104 40.8871 47.024 40.5351 47.024C40.1938 47.024 39.8898 47.104 39.6231 47.264C39.3565 47.4133 39.1485 47.6267 38.9991 47.904C38.8498 48.1813 38.7751 48.512 38.7751 48.896V54H36.6791ZM50.2115 54.192C49.3688 54.192 48.6168 53.9947 47.9555 53.6C47.2942 53.1947 46.7715 52.6453 46.3875 51.952C46.0035 51.2587 45.8115 50.4907 45.8115 49.648C45.8115 48.7947 46.0035 48.0267 46.3875 47.344C46.7715 46.6613 47.2942 46.1173 47.9555 45.712C48.6275 45.3067 49.3742 45.104 50.1955 45.104C50.8568 45.104 51.4435 45.2373 51.9555 45.504C52.4782 45.76 52.8888 46.1227 53.1875 46.592L52.8675 47.024V41.888H54.9635V54H52.9795V52.32L53.2035 52.736C52.9048 53.2053 52.4888 53.568 51.9555 53.824C51.4222 54.0693 50.8408 54.192 50.2115 54.192ZM50.4355 52.272C50.9155 52.272 51.3368 52.16 51.6995 51.936C52.0622 51.712 52.3448 51.4027 52.5475 51.008C52.7608 50.6133 52.8675 50.16 52.8675 49.648C52.8675 49.1467 52.7608 48.6987 52.5475 48.304C52.3448 47.8987 52.0622 47.584 51.6995 47.36C51.3368 47.136 50.9155 47.024 50.4355 47.024C49.9662 47.024 49.5448 47.1413 49.1715 47.376C48.7982 47.6 48.5048 47.9093 48.2915 48.304C48.0888 48.688 47.9875 49.136 47.9875 49.648C47.9875 50.16 48.0888 50.6133 48.2915 51.008C48.5048 51.4027 48.7982 51.712 49.1715 51.936C49.5448 52.16 49.9662 52.272 50.4355 52.272ZM56.9135 54V45.296H59.0095V54H56.9135ZM56.9135 44.32V42.08H59.0095V44.32H56.9135ZM60.9448 54V45.296H62.9128V47.008L62.7528 46.704C62.9554 46.1813 63.2861 45.7867 63.7448 45.52C64.2141 45.2427 64.7581 45.104 65.3768 45.104C66.0168 45.104 66.5821 45.2427 67.0728 45.52C67.5741 45.7973 67.9634 46.1867 68.2408 46.688C68.5181 47.1787 68.6568 47.7493 68.6568 48.4V54H66.5608V48.896C66.5608 48.512 66.4861 48.1813 66.3368 47.904C66.1874 47.6267 65.9794 47.4133 65.7128 47.264C65.4568 47.104 65.1528 47.024 64.8008 47.024C64.4594 47.024 64.1554 47.104 63.8888 47.264C63.6221 47.4133 63.4141 47.6267 63.2648 47.904C63.1154 48.1813 63.0408 48.512 63.0408 48.896V54H60.9448ZM74.6531 57.52C74.0025 57.52 73.3998 57.4133 72.8451 57.2C72.2905 56.9867 71.8105 56.688 71.4051 56.304C71.0105 55.9307 70.7225 55.488 70.5411 54.976L72.4931 54.24C72.6211 54.6453 72.8718 54.9707 73.2451 55.216C73.6291 55.472 74.0985 55.6 74.6531 55.6C75.0798 55.6 75.4531 55.52 75.7731 55.36C76.1038 55.2 76.3598 54.9653 76.5411 54.656C76.7225 54.3573 76.8131 53.9947 76.8131 53.568V51.584L77.2131 52.064C76.9145 52.5867 76.5145 52.9813 76.0131 53.248C75.5118 53.5147 74.9411 53.648 74.3011 53.648C73.4905 53.648 72.7651 53.4613 72.1251 53.088C71.4851 52.7147 70.9838 52.2027 70.6211 51.552C70.2585 50.9013 70.0771 50.1707 70.0771 49.36C70.0771 48.5387 70.2585 47.808 70.6211 47.168C70.9838 46.528 71.4798 46.0267 72.1091 45.664C72.7385 45.2907 73.4531 45.104 74.2531 45.104C74.9038 45.104 75.4745 45.2427 75.9651 45.52C76.4665 45.7867 76.8825 46.176 77.2131 46.688L76.9251 47.216V45.296H78.9091V53.568C78.9091 54.3253 78.7225 55.0027 78.3491 55.6C77.9865 56.1973 77.4851 56.6667 76.8451 57.008C76.2158 57.3493 75.4851 57.52 74.6531 57.52ZM74.5571 51.712C75.0051 51.712 75.3945 51.616 75.7251 51.424C76.0665 51.2213 76.3331 50.944 76.5251 50.592C76.7171 50.24 76.8131 49.8347 76.8131 49.376C76.8131 48.928 76.7118 48.528 76.5091 48.176C76.3171 47.8133 76.0505 47.5307 75.7091 47.328C75.3785 47.1253 74.9945 47.024 74.5571 47.024C74.1198 47.024 73.7251 47.1253 73.3731 47.328C73.0211 47.5307 72.7438 47.8133 72.5411 48.176C72.3491 48.528 72.2531 48.928 72.2531 49.376C72.2531 49.824 72.3491 50.224 72.5411 50.576C72.7438 50.928 73.0158 51.2053 73.3571 51.408C73.7091 51.6107 74.1091 51.712 74.5571 51.712ZM86.1104 54L82.9104 42.08H85.2464L87.7584 52.24H87.1504L89.7744 42.08H92.0304L94.6384 52.24H94.0304L96.5424 42.08H98.8784L95.6784 54H93.1824L90.5424 44.112H91.2464L88.6064 54H86.1104ZM102.022 54.192C101.414 54.192 100.886 54.0907 100.438 53.888C99.9903 53.6853 99.6436 53.3973 99.3983 53.024C99.1529 52.64 99.0303 52.1973 99.0303 51.696C99.0303 51.216 99.1369 50.7893 99.3503 50.416C99.5636 50.032 99.8943 49.712 100.342 49.456C100.79 49.2 101.356 49.0187 102.038 48.912L104.886 48.448V50.048L102.438 50.464C102.022 50.5387 101.713 50.672 101.51 50.864C101.308 51.056 101.206 51.3067 101.206 51.616C101.206 51.9147 101.318 52.1547 101.542 52.336C101.777 52.5067 102.065 52.592 102.406 52.592C102.844 52.592 103.228 52.5013 103.558 52.32C103.9 52.128 104.161 51.8667 104.342 51.536C104.534 51.2053 104.63 50.8427 104.63 50.448V48.208C104.63 47.8347 104.481 47.5253 104.182 47.28C103.894 47.024 103.51 46.896 103.03 46.896C102.582 46.896 102.182 47.0187 101.83 47.264C101.489 47.4987 101.238 47.8133 101.078 48.208L99.3663 47.376C99.5369 46.9173 99.8036 46.5227 100.166 46.192C100.54 45.8507 100.977 45.584 101.478 45.392C101.98 45.2 102.524 45.104 103.11 45.104C103.825 45.104 104.454 45.2373 104.998 45.504C105.542 45.76 105.964 46.1227 106.262 46.592C106.572 47.0507 106.726 47.5893 106.726 48.208V54H104.742V52.512L105.19 52.48C104.966 52.8533 104.7 53.168 104.39 53.424C104.081 53.6693 103.729 53.8613 103.334 54C102.94 54.128 102.502 54.192 102.022 54.192ZM108.664 54V41.888H110.76V54H108.664ZM112.695 54V41.888H114.791V54H112.695ZM120.854 54.192C119.958 54.192 119.174 53.9893 118.502 53.584C117.83 53.1787 117.307 52.6293 116.934 51.936C116.561 51.2427 116.374 50.4747 116.374 49.632C116.374 48.7573 116.561 47.984 116.934 47.312C117.318 46.6293 117.835 46.0907 118.486 45.696C119.147 45.3013 119.883 45.104 120.694 45.104C121.377 45.104 121.974 45.216 122.486 45.44C123.009 45.664 123.451 45.9733 123.814 46.368C124.177 46.7627 124.454 47.216 124.646 47.728C124.838 48.2293 124.934 48.7733 124.934 49.36C124.934 49.5093 124.923 49.664 124.902 49.824C124.891 49.984 124.865 50.1227 124.822 50.24H118.102V48.64H123.638L122.646 49.392C122.742 48.9013 122.715 48.464 122.566 48.08C122.427 47.696 122.193 47.392 121.862 47.168C121.542 46.944 121.153 46.832 120.694 46.832C120.257 46.832 119.867 46.944 119.526 47.168C119.185 47.3813 118.923 47.7013 118.742 48.128C118.571 48.544 118.507 49.0507 118.55 49.648C118.507 50.1813 118.577 50.656 118.758 51.072C118.95 51.4773 119.227 51.792 119.59 52.016C119.963 52.24 120.39 52.352 120.87 52.352C121.35 52.352 121.755 52.2507 122.086 52.048C122.427 51.8453 122.694 51.5733 122.886 51.232L124.582 52.064C124.411 52.48 124.145 52.848 123.782 53.168C123.419 53.488 122.987 53.7387 122.486 53.92C121.995 54.1013 121.451 54.192 120.854 54.192ZM130.491 54.096C129.51 54.096 128.747 53.8293 128.203 53.296C127.67 52.752 127.403 51.9893 127.403 51.008V47.168H125.899V45.296H126.059C126.486 45.296 126.816 45.184 127.051 44.96C127.286 44.736 127.403 44.4107 127.403 43.984V43.312H129.499V45.296H131.499V47.168H129.499V50.896C129.499 51.184 129.547 51.4293 129.643 51.632C129.75 51.8347 129.91 51.9893 130.123 52.096C130.347 52.2027 130.63 52.256 130.971 52.256C131.046 52.256 131.131 52.2507 131.227 52.24C131.334 52.2293 131.435 52.2187 131.531 52.208V54C131.382 54.0213 131.211 54.0427 131.019 54.064C130.827 54.0853 130.651 54.096 130.491 54.096ZM18.152 74V62.08H23.176C23.9653 62.08 24.6373 62.2187 25.192 62.496C25.7573 62.7627 26.1893 63.1467 26.488 63.648C26.7973 64.1387 26.952 64.736 26.952 65.44C26.952 65.984 26.8027 66.496 26.504 66.976C26.216 67.4453 25.752 67.8347 25.112 68.144V67.136C25.6987 67.36 26.1627 67.6373 26.504 67.968C26.8453 68.2987 27.0853 68.6667 27.224 69.072C27.3627 69.4773 27.432 69.904 27.432 70.352C27.432 71.4933 27.0533 72.3893 26.296 73.04C25.5493 73.68 24.5093 74 23.176 74H18.152ZM20.328 72.08H23.4C23.9653 72.08 24.4133 71.9253 24.744 71.616C25.0853 71.296 25.256 70.8747 25.256 70.352C25.256 69.8293 25.0853 69.408 24.744 69.088C24.4133 68.768 23.9653 68.608 23.4 68.608H20.328V72.08ZM20.328 66.704H23.288C23.736 66.704 24.0933 66.576 24.36 66.32C24.6267 66.0533 24.76 65.712 24.76 65.296C24.76 64.88 24.6267 64.5493 24.36 64.304C24.0933 64.0587 23.736 63.936 23.288 63.936H20.328V66.704ZM31.6785 74.192C31.0705 74.192 30.5425 74.0907 30.0945 73.888C29.6465 73.6853 29.2998 73.3973 29.0545 73.024C28.8092 72.64 28.6865 72.1973 28.6865 71.696C28.6865 71.216 28.7932 70.7893 29.0065 70.416C29.2198 70.032 29.5505 69.712 29.9985 69.456C30.4465 69.2 31.0118 69.0187 31.6945 68.912L34.5425 68.448V70.048L32.0945 70.464C31.6785 70.5387 31.3692 70.672 31.1665 70.864C30.9638 71.056 30.8625 71.3067 30.8625 71.616C30.8625 71.9147 30.9745 72.1547 31.1985 72.336C31.4332 72.5067 31.7212 72.592 32.0625 72.592C32.4998 72.592 32.8838 72.5013 33.2145 72.32C33.5558 72.128 33.8172 71.8667 33.9985 71.536C34.1905 71.2053 34.2865 70.8427 34.2865 70.448V68.208C34.2865 67.8347 34.1372 67.5253 33.8385 67.28C33.5505 67.024 33.1665 66.896 32.6865 66.896C32.2385 66.896 31.8385 67.0187 31.4865 67.264C31.1452 67.4987 30.8945 67.8133 30.7345 68.208L29.0225 67.376C29.1932 66.9173 29.4598 66.5227 29.8225 66.192C30.1958 65.8507 30.6332 65.584 31.1345 65.392C31.6358 65.2 32.1798 65.104 32.7665 65.104C33.4812 65.104 34.1105 65.2373 34.6545 65.504C35.1985 65.76 35.6198 66.1227 35.9185 66.592C36.2278 67.0507 36.3825 67.5893 36.3825 68.208V74H34.3985V72.512L34.8465 72.48C34.6225 72.8533 34.3558 73.168 34.0465 73.424C33.7372 73.6693 33.3852 73.8613 32.9905 74C32.5958 74.128 32.1585 74.192 31.6785 74.192ZM38.3198 74V61.888H40.4158V74H38.3198ZM44.991 74.192C44.383 74.192 43.855 74.0907 43.407 73.888C42.959 73.6853 42.6123 73.3973 42.367 73.024C42.1217 72.64 41.999 72.1973 41.999 71.696C41.999 71.216 42.1057 70.7893 42.319 70.416C42.5323 70.032 42.863 69.712 43.311 69.456C43.759 69.2 44.3243 69.0187 45.007 68.912L47.855 68.448V70.048L45.407 70.464C44.991 70.5387 44.6817 70.672 44.479 70.864C44.2763 71.056 44.175 71.3067 44.175 71.616C44.175 71.9147 44.287 72.1547 44.511 72.336C44.7457 72.5067 45.0337 72.592 45.375 72.592C45.8123 72.592 46.1963 72.5013 46.527 72.32C46.8683 72.128 47.1297 71.8667 47.311 71.536C47.503 71.2053 47.599 70.8427 47.599 70.448V68.208C47.599 67.8347 47.4497 67.5253 47.151 67.28C46.863 67.024 46.479 66.896 45.999 66.896C45.551 66.896 45.151 67.0187 44.799 67.264C44.4577 67.4987 44.207 67.8133 44.047 68.208L42.335 67.376C42.5057 66.9173 42.7723 66.5227 43.135 66.192C43.5083 65.8507 43.9457 65.584 44.447 65.392C44.9483 65.2 45.4923 65.104 46.079 65.104C46.7937 65.104 47.423 65.2373 47.967 65.504C48.511 65.76 48.9323 66.1227 49.231 66.592C49.5403 67.0507 49.695 67.5893 49.695 68.208V74H47.711V72.512L48.159 72.48C47.935 72.8533 47.6683 73.168 47.359 73.424C47.0497 73.6693 46.6977 73.8613 46.303 74C45.9083 74.128 45.471 74.192 44.991 74.192ZM51.6323 74V65.296H53.6003V67.008L53.4403 66.704C53.6429 66.1813 53.9736 65.7867 54.4323 65.52C54.9016 65.2427 55.4456 65.104 56.0643 65.104C56.7043 65.104 57.2696 65.2427 57.7603 65.52C58.2616 65.7973 58.6509 66.1867 58.9283 66.688C59.2056 67.1787 59.3443 67.7493 59.3443 68.4V74H57.2483V68.896C57.2483 68.512 57.1736 68.1813 57.0243 67.904C56.8749 67.6267 56.6669 67.4133 56.4003 67.264C56.1443 67.104 55.8403 67.024 55.4883 67.024C55.1469 67.024 54.8429 67.104 54.5763 67.264C54.3096 67.4133 54.1016 67.6267 53.9523 67.904C53.8029 68.1813 53.7283 68.512 53.7283 68.896V74H51.6323ZM65.3086 74.192C64.4446 74.192 63.666 73.9947 62.9726 73.6C62.29 73.1947 61.7513 72.6507 61.3566 71.968C60.962 71.2747 60.7646 70.496 60.7646 69.632C60.7646 68.768 60.962 67.9947 61.3566 67.312C61.7513 66.6293 62.29 66.0907 62.9726 65.696C63.666 65.3013 64.4446 65.104 65.3086 65.104C65.9273 65.104 66.5033 65.216 67.0366 65.44C67.57 65.6533 68.0286 65.952 68.4126 66.336C68.8073 66.7093 69.09 67.1573 69.2606 67.68L67.4206 68.48C67.2606 68.0427 66.9886 67.6907 66.6046 67.424C66.2313 67.1573 65.7993 67.024 65.3086 67.024C64.85 67.024 64.4393 67.136 64.0766 67.36C63.7246 67.584 63.4473 67.8933 63.2446 68.288C63.042 68.6827 62.9406 69.136 62.9406 69.648C62.9406 70.16 63.042 70.6133 63.2446 71.008C63.4473 71.4027 63.7246 71.712 64.0766 71.936C64.4393 72.16 64.85 72.272 65.3086 72.272C65.81 72.272 66.2473 72.1387 66.6206 71.872C66.994 71.6053 67.2606 71.248 67.4206 70.8L69.2606 71.632C69.09 72.1227 68.8126 72.5653 68.4286 72.96C68.0446 73.344 67.586 73.648 67.0526 73.872C66.5193 74.0853 65.938 74.192 65.3086 74.192ZM74.979 74.192C74.083 74.192 73.299 73.9893 72.627 73.584C71.955 73.1787 71.4323 72.6293 71.059 71.936C70.6857 71.2427 70.499 70.4747 70.499 69.632C70.499 68.7573 70.6857 67.984 71.059 67.312C71.443 66.6293 71.9603 66.0907 72.611 65.696C73.2723 65.3013 74.0083 65.104 74.819 65.104C75.5017 65.104 76.099 65.216 76.611 65.44C77.1337 65.664 77.5763 65.9733 77.939 66.368C78.3017 66.7627 78.579 67.216 78.771 67.728C78.963 68.2293 79.059 68.7733 79.059 69.36C79.059 69.5093 79.0483 69.664 79.027 69.824C79.0163 69.984 78.9897 70.1227 78.947 70.24H72.227V68.64H77.763L76.771 69.392C76.867 68.9013 76.8403 68.464 76.691 68.08C76.5523 67.696 76.3177 67.392 75.987 67.168C75.667 66.944 75.2777 66.832 74.819 66.832C74.3817 66.832 73.9923 66.944 73.651 67.168C73.3097 67.3813 73.0483 67.7013 72.867 68.128C72.6963 68.544 72.6323 69.0507 72.675 69.648C72.6323 70.1813 72.7017 70.656 72.883 71.072C73.075 71.4773 73.3523 71.792 73.715 72.016C74.0883 72.24 74.515 72.352 74.995 72.352C75.475 72.352 75.8803 72.2507 76.211 72.048C76.5523 71.8453 76.819 71.5733 77.011 71.232L78.707 72.064C78.5363 72.48 78.2697 72.848 77.907 73.168C77.5443 73.488 77.1123 73.7387 76.611 73.92C76.1203 74.1013 75.5763 74.192 74.979 74.192Z" fill="white"/>
<path d="M25.45 148.3C24.2667 148.3 23.1667 148.083 22.15 147.65C21.15 147.217 20.2833 146.617 19.55 145.85C18.8333 145.067 18.3083 144.158 17.975 143.125L20.8 141.9C21.25 142.967 21.9 143.808 22.75 144.425C23.6 145.025 24.5583 145.325 25.625 145.325C26.225 145.325 26.7417 145.233 27.175 145.05C27.625 144.85 27.9667 144.583 28.2 144.25C28.45 143.917 28.575 143.517 28.575 143.05C28.575 142.5 28.4083 142.05 28.075 141.7C27.7583 141.333 27.275 141.05 26.625 140.85L23.05 139.7C21.6 139.25 20.5083 138.575 19.775 137.675C19.0417 136.775 18.675 135.717 18.675 134.5C18.675 133.433 18.9333 132.492 19.45 131.675C19.9833 130.858 20.7167 130.225 21.65 129.775C22.6 129.308 23.6833 129.075 24.9 129.075C26.0167 129.075 27.0417 129.275 27.975 129.675C28.9083 130.058 29.7083 130.6 30.375 131.3C31.0583 131.983 31.5667 132.792 31.9 133.725L29.1 134.975C28.7333 134.042 28.1833 133.325 27.45 132.825C26.7167 132.308 25.8667 132.05 24.9 132.05C24.3333 132.05 23.8333 132.15 23.4 132.35C22.9667 132.533 22.625 132.8 22.375 133.15C22.1417 133.483 22.025 133.883 22.025 134.35C22.025 134.867 22.1917 135.325 22.525 135.725C22.8583 136.108 23.3667 136.408 24.05 136.625L27.475 137.7C28.9583 138.183 30.0667 138.85 30.8 139.7C31.55 140.55 31.925 141.6 31.925 142.85C31.925 143.917 31.65 144.858 31.1 145.675C30.55 146.492 29.7917 147.133 28.825 147.6C27.8583 148.067 26.7333 148.3 25.45 148.3ZM24.25 150.5V126.875H26.375V150.5H24.25ZM47.0799 148V143.9H38.5299V141.05L46.8799 129.375H50.4299V141.05H53.1549V143.9H50.4299V148H47.0799ZM41.0299 142.275L40.4299 141.05H47.0799V132.05L47.9549 132.325L41.0299 142.275ZM56.5623 151.9V150.275C57.1123 150.142 57.554 149.883 57.8873 149.5C58.2373 149.133 58.454 148.633 58.5373 148H57.0623V144.5H60.3623V146.65C60.3623 148.117 60.0373 149.292 59.3873 150.175C58.754 151.058 57.8123 151.633 56.5623 151.9ZM70.3479 148.3C69.3645 148.3 68.4229 148.117 67.5229 147.75C66.6395 147.383 65.8729 146.867 65.2229 146.2C64.5895 145.517 64.1562 144.708 63.9229 143.775L66.8729 142.725C67.1562 143.575 67.6145 144.208 68.2479 144.625C68.8812 145.025 69.5812 145.225 70.3479 145.225C70.9812 145.225 71.5395 145.092 72.0229 144.825C72.5229 144.542 72.9062 144.158 73.1729 143.675C73.4395 143.175 73.5729 142.6 73.5729 141.95C73.5729 141.3 73.4312 140.733 73.1479 140.25C72.8812 139.767 72.5062 139.392 72.0229 139.125C71.5395 138.842 70.9812 138.7 70.3479 138.7C69.6979 138.7 69.1062 138.842 68.5729 139.125C68.0562 139.408 67.6812 139.817 67.4479 140.35L64.6729 139.725L66.1479 129.375H76.2979V132.25H67.4979L68.7729 130.775L67.7229 138.575L66.7479 137.775C67.2145 137.092 67.7812 136.592 68.4479 136.275C69.1312 135.958 69.9562 135.8 70.9229 135.8C72.1562 135.8 73.2229 136.067 74.1229 136.6C75.0395 137.133 75.7479 137.858 76.2479 138.775C76.7479 139.692 76.9979 140.75 76.9979 141.95C76.9979 143.15 76.7062 144.233 76.1229 145.2C75.5395 146.167 74.7479 146.925 73.7479 147.475C72.7479 148.025 71.6145 148.3 70.3479 148.3ZM87.7537 148V143.9H79.2037V141.05L87.5537 129.375H91.1037V141.05H93.8287V143.9H91.1037V148H87.7537ZM81.7037 142.275L81.1037 141.05H87.7537V132.05L88.6287 132.325L81.7037 142.275ZM102.211 148.3C100.944 148.3 99.8195 148.033 98.8361 147.5C97.8695 146.95 97.1111 146.217 96.5611 145.3C96.0111 144.367 95.7361 143.308 95.7361 142.125C95.7361 141.525 95.7945 140.925 95.9111 140.325C96.0445 139.725 96.2778 139.083 96.6111 138.4C96.9611 137.717 97.4611 136.958 98.1111 136.125L103.311 129.375H107.361L101.036 137.5L100.486 136.9C100.719 136.717 100.961 136.575 101.211 136.475C101.461 136.358 101.711 136.275 101.961 136.225C102.228 136.175 102.503 136.15 102.786 136.15C103.919 136.15 104.928 136.408 105.811 136.925C106.694 137.442 107.386 138.15 107.886 139.05C108.403 139.933 108.661 140.933 108.661 142.05C108.661 143.25 108.386 144.325 107.836 145.275C107.286 146.208 106.519 146.95 105.536 147.5C104.569 148.033 103.461 148.3 102.211 148.3ZM102.211 145.225C102.778 145.225 103.286 145.1 103.736 144.85C104.203 144.583 104.569 144.208 104.836 143.725C105.119 143.242 105.261 142.7 105.261 142.1C105.261 141.467 105.119 140.925 104.836 140.475C104.569 140.008 104.211 139.642 103.761 139.375C103.311 139.108 102.794 138.975 102.211 138.975C101.644 138.975 101.128 139.108 100.661 139.375C100.194 139.642 99.8195 140.008 99.5361 140.475C99.2695 140.925 99.1361 141.467 99.1361 142.1C99.1361 142.7 99.2695 143.242 99.5361 143.725C99.8195 144.208 100.194 144.583 100.661 144.85C101.128 145.1 101.644 145.225 102.211 145.225ZM112.275 151.9V150.275C112.825 150.142 113.267 149.883 113.6 149.5C113.95 149.133 114.167 148.633 114.25 148H112.775V144.5H116.075V146.65C116.075 148.117 115.75 149.292 115.1 150.175C114.467 151.058 113.525 151.633 112.275 151.9ZM126.536 148.3C125.186 148.3 124.011 148.05 123.011 147.55C122.027 147.033 121.261 146.342 120.711 145.475C120.177 144.608 119.911 143.658 119.911 142.625C119.911 141.408 120.236 140.383 120.886 139.55C121.536 138.7 122.477 138.075 123.711 137.675L123.511 138.5C122.627 138.217 121.927 137.667 121.411 136.85C120.911 136.033 120.661 135.133 120.661 134.15C120.661 133.167 120.911 132.292 121.411 131.525C121.911 130.758 122.602 130.158 123.486 129.725C124.369 129.292 125.386 129.075 126.536 129.075C127.669 129.075 128.669 129.292 129.536 129.725C130.419 130.158 131.111 130.758 131.611 131.525C132.127 132.292 132.386 133.167 132.386 134.15C132.386 135.15 132.127 136.058 131.611 136.875C131.111 137.675 130.419 138.225 129.536 138.525L129.361 137.65C130.594 138.083 131.536 138.725 132.186 139.575C132.836 140.408 133.161 141.433 133.161 142.65C133.161 143.683 132.886 144.633 132.336 145.5C131.802 146.35 131.036 147.033 130.036 147.55C129.052 148.05 127.886 148.3 126.536 148.3ZM126.536 145.425C127.186 145.425 127.752 145.308 128.236 145.075C128.719 144.825 129.094 144.483 129.361 144.05C129.627 143.6 129.761 143.092 129.761 142.525C129.761 141.942 129.627 141.442 129.361 141.025C129.094 140.592 128.719 140.258 128.236 140.025C127.752 139.775 127.186 139.65 126.536 139.65C125.886 139.65 125.319 139.775 124.836 140.025C124.369 140.258 124.002 140.592 123.736 141.025C123.469 141.442 123.336 141.942 123.336 142.525C123.336 143.092 123.469 143.6 123.736 144.05C124.002 144.483 124.369 144.825 124.836 145.075C125.319 145.308 125.886 145.425 126.536 145.425ZM126.536 136.775C127.019 136.775 127.444 136.667 127.811 136.45C128.177 136.233 128.461 135.95 128.661 135.6C128.877 135.233 128.986 134.817 128.986 134.35C128.986 133.883 128.877 133.475 128.661 133.125C128.461 132.758 128.177 132.475 127.811 132.275C127.444 132.058 127.019 131.95 126.536 131.95C126.052 131.95 125.619 132.058 125.236 132.275C124.869 132.475 124.577 132.758 124.361 133.125C124.161 133.475 124.061 133.883 124.061 134.35C124.061 134.817 124.161 135.233 124.361 135.6C124.577 135.95 124.869 136.233 125.236 136.45C125.619 136.667 126.052 136.775 126.536 136.775ZM136.232 148L143.982 132.25H135.207V129.375H147.557V132.25L139.982 148H136.232ZM154.701 148.3C153.435 148.3 152.31 148.033 151.326 147.5C150.36 146.95 149.601 146.217 149.051 145.3C148.501 144.367 148.226 143.308 148.226 142.125C148.226 141.525 148.285 140.925 148.401 140.325C148.535 139.725 148.768 139.083 149.101 138.4C149.451 137.717 149.951 136.958 150.601 136.125L155.801 129.375H159.851L153.526 137.5L152.976 136.9C153.21 136.717 153.451 136.575 153.701 136.475C153.951 136.358 154.201 136.275 154.451 136.225C154.718 136.175 154.993 136.15 155.276 136.15C156.41 136.15 157.418 136.408 158.301 136.925C159.185 137.442 159.876 138.15 160.376 139.05C160.893 139.933 161.151 140.933 161.151 142.05C161.151 143.25 160.876 144.325 160.326 145.275C159.776 146.208 159.01 146.95 158.026 147.5C157.06 148.033 155.951 148.3 154.701 148.3ZM154.701 145.225C155.268 145.225 155.776 145.1 156.226 144.85C156.693 144.583 157.06 144.208 157.326 143.725C157.61 143.242 157.751 142.7 157.751 142.1C157.751 141.467 157.61 140.925 157.326 140.475C157.06 140.008 156.701 139.642 156.251 139.375C155.801 139.108 155.285 138.975 154.701 138.975C154.135 138.975 153.618 139.108 153.151 139.375C152.685 139.642 152.31 140.008 152.026 140.475C151.76 140.925 151.626 141.467 151.626 142.1C151.626 142.7 151.76 143.242 152.026 143.725C152.31 144.208 152.685 144.583 153.151 144.85C153.618 145.1 154.135 145.225 154.701 145.225ZM164.765 148V145.25H166.765V148H164.765ZM178.519 148.3C177.052 148.3 175.76 147.9 174.644 147.1C173.544 146.283 172.685 145.158 172.069 143.725C171.452 142.275 171.144 140.592 171.144 138.675C171.144 136.758 171.452 135.083 172.069 133.65C172.685 132.2 173.544 131.075 174.644 130.275C175.744 129.475 177.027 129.075 178.494 129.075C179.96 129.075 181.244 129.475 182.344 130.275C183.444 131.075 184.302 132.2 184.919 133.65C185.535 135.083 185.844 136.758 185.844 138.675C185.844 140.592 185.535 142.275 184.919 143.725C184.319 145.175 183.469 146.3 182.369 147.1C181.269 147.9 179.985 148.3 178.519 148.3ZM178.519 146.425C179.585 146.425 180.519 146.1 181.319 145.45C182.119 144.8 182.744 143.9 183.194 142.75C183.644 141.583 183.869 140.225 183.869 138.675C183.869 137.125 183.644 135.775 183.194 134.625C182.744 133.458 182.119 132.558 181.319 131.925C180.519 131.275 179.577 130.95 178.494 130.95C177.427 130.95 176.494 131.275 175.694 131.925C174.894 132.558 174.269 133.458 173.819 134.625C173.369 135.775 173.144 137.125 173.144 138.675C173.144 140.208 173.369 141.558 173.819 142.725C174.269 143.892 174.894 144.8 175.694 145.45C176.51 146.1 177.452 146.425 178.519 146.425ZM196.829 148.3C195.363 148.3 194.071 147.9 192.954 147.1C191.854 146.283 190.996 145.158 190.379 143.725C189.763 142.275 189.454 140.592 189.454 138.675C189.454 136.758 189.763 135.083 190.379 133.65C190.996 132.2 191.854 131.075 192.954 130.275C194.054 129.475 195.338 129.075 196.804 129.075C198.271 129.075 199.554 129.475 200.654 130.275C201.754 131.075 202.613 132.2 203.229 133.65C203.846 135.083 204.154 136.758 204.154 138.675C204.154 140.592 203.846 142.275 203.229 143.725C202.629 145.175 201.779 146.3 200.679 147.1C199.579 147.9 198.296 148.3 196.829 148.3ZM196.829 146.425C197.896 146.425 198.829 146.1 199.629 145.45C200.429 144.8 201.054 143.9 201.504 142.75C201.954 141.583 202.179 140.225 202.179 138.675C202.179 137.125 201.954 135.775 201.504 134.625C201.054 133.458 200.429 132.558 199.629 131.925C198.829 131.275 197.888 130.95 196.804 130.95C195.738 130.95 194.804 131.275 194.004 131.925C193.204 132.558 192.579 133.458 192.129 134.625C191.679 135.775 191.454 137.125 191.454 138.675C191.454 140.208 191.679 141.558 192.129 142.725C192.579 143.892 193.204 144.8 194.004 145.45C194.821 146.1 195.763 146.425 196.829 146.425Z" fill="white"/>
<path d="M18.232 174V163.57H21.662C22.698 163.57 23.5987 163.785 24.364 164.214C25.1293 164.634 25.722 165.236 26.142 166.02C26.562 166.795 26.772 167.714 26.772 168.778C26.772 169.833 26.562 170.752 26.142 171.536C25.722 172.32 25.1293 172.927 24.364 173.356C23.5987 173.785 22.698 174 21.662 174H18.232ZM19.352 172.95H21.662C22.4647 172.95 23.16 172.782 23.748 172.446C24.336 172.101 24.7887 171.615 25.106 170.99C25.4327 170.365 25.596 169.627 25.596 168.778C25.596 167.929 25.4327 167.196 25.106 166.58C24.7793 165.955 24.322 165.474 23.734 165.138C23.146 164.793 22.4553 164.62 21.662 164.62H19.352V172.95ZM31.9826 174.168C31.2733 174.168 30.6293 174 30.0506 173.664C29.472 173.319 29.01 172.852 28.6646 172.264C28.3286 171.667 28.1606 170.99 28.1606 170.234C28.1606 169.487 28.3286 168.82 28.6646 168.232C29.0006 167.644 29.4533 167.182 30.0226 166.846C30.6013 166.501 31.2546 166.328 31.9826 166.328C32.7106 166.328 33.3593 166.496 33.9286 166.832C34.5073 167.168 34.96 167.63 35.2866 168.218C35.6226 168.806 35.7906 169.478 35.7906 170.234C35.7906 170.999 35.618 171.681 35.2726 172.278C34.9273 172.866 34.4653 173.328 33.8866 173.664C33.3173 174 32.6826 174.168 31.9826 174.168ZM31.9826 173.118C32.4866 173.118 32.9393 172.992 33.3406 172.74C33.7513 172.488 34.0733 172.143 34.3066 171.704C34.5493 171.265 34.6706 170.775 34.6706 170.234C34.6706 169.693 34.5493 169.207 34.3066 168.778C34.0733 168.349 33.7513 168.008 33.3406 167.756C32.9393 167.504 32.4866 167.378 31.9826 167.378C31.4786 167.378 31.0213 167.504 30.6106 167.756C30.2093 168.008 29.8873 168.349 29.6446 168.778C29.402 169.207 29.2806 169.693 29.2806 170.234C29.2806 170.775 29.402 171.265 29.6446 171.704C29.8873 172.143 30.2093 172.488 30.6106 172.74C31.0213 172.992 31.4786 173.118 31.9826 173.118ZM37.6425 174V163.402H38.6925V174H37.6425ZM40.8417 174V163.402H41.8917V174H40.8417ZM46.2109 174.168C45.7349 174.168 45.3102 174.079 44.9369 173.902C44.5636 173.715 44.2696 173.463 44.0549 173.146C43.8402 172.829 43.7329 172.465 43.7329 172.054C43.7329 171.662 43.8169 171.307 43.9849 170.99C44.1529 170.663 44.4142 170.388 44.7689 170.164C45.1236 169.94 45.5762 169.781 46.1269 169.688L49.0669 169.198V170.15L46.3789 170.598C45.8376 170.691 45.4456 170.864 45.2029 171.116C44.9696 171.368 44.8529 171.667 44.8529 172.012C44.8529 172.348 44.9836 172.633 45.2449 172.866C45.5156 173.099 45.8609 173.216 46.2809 173.216C46.7942 173.216 47.2422 173.109 47.6249 172.894C48.0076 172.67 48.3062 172.371 48.5209 171.998C48.7356 171.625 48.8429 171.209 48.8429 170.752V168.848C48.8429 168.4 48.6796 168.036 48.3529 167.756C48.0262 167.476 47.6016 167.336 47.0789 167.336C46.6216 167.336 46.2202 167.453 45.8749 167.686C45.5296 167.91 45.2729 168.204 45.1049 168.568L44.1529 168.05C44.2929 167.733 44.5122 167.443 44.8109 167.182C45.1189 166.921 45.4689 166.715 45.8609 166.566C46.2529 166.407 46.6589 166.328 47.0789 166.328C47.6296 166.328 48.1149 166.435 48.5349 166.65C48.9642 166.865 49.2956 167.163 49.5289 167.546C49.7716 167.919 49.8929 168.353 49.8929 168.848V174H48.8429V172.502L48.9969 172.656C48.8662 172.936 48.6609 173.193 48.3809 173.426C48.1102 173.65 47.7882 173.832 47.4149 173.972C47.0509 174.103 46.6496 174.168 46.2109 174.168ZM52.0526 174V166.496H53.1026V167.728L52.9626 167.546C53.1399 167.191 53.4059 166.911 53.7606 166.706C54.1246 166.501 54.5633 166.398 55.0766 166.398H55.5526V167.448H54.8946C54.3533 167.448 53.9193 167.616 53.5926 167.952C53.2659 168.288 53.1026 168.764 53.1026 169.38V174H52.0526ZM59.3871 174.168C58.6684 174.168 58.0384 173.986 57.4971 173.622C56.9557 173.258 56.5637 172.763 56.3211 172.138L57.2031 171.718C57.4177 172.175 57.7164 172.539 58.0991 172.81C58.4911 173.081 58.9204 173.216 59.3871 173.216C59.8351 173.216 60.2131 173.109 60.5211 172.894C60.8291 172.67 60.9831 172.381 60.9831 172.026C60.9831 171.765 60.9084 171.559 60.7591 171.41C60.6097 171.251 60.4371 171.13 60.2411 171.046C60.0451 170.962 59.8724 170.901 59.7231 170.864L58.6451 170.556C57.9544 170.36 57.4551 170.085 57.1471 169.73C56.8391 169.375 56.6851 168.965 56.6851 168.498C56.6851 168.059 56.7971 167.677 57.0211 167.35C57.2451 167.023 57.5484 166.771 57.9311 166.594C58.3137 166.417 58.7384 166.328 59.2051 166.328C59.8397 166.328 60.4137 166.496 60.9271 166.832C61.4497 167.159 61.8184 167.616 62.0331 168.204L61.1371 168.624C60.9504 168.204 60.6797 167.877 60.3251 167.644C59.9797 167.401 59.5924 167.28 59.1631 167.28C58.7431 167.28 58.4071 167.387 58.1551 167.602C57.9031 167.817 57.7771 168.087 57.7771 168.414C57.7771 168.666 57.8424 168.867 57.9731 169.016C58.1037 169.165 58.2531 169.277 58.4211 169.352C58.5984 169.427 58.7524 169.483 58.8831 169.52L60.1291 169.884C60.7357 170.061 61.2071 170.337 61.5431 170.71C61.8884 171.083 62.0611 171.522 62.0611 172.026C62.0611 172.437 61.9444 172.805 61.7111 173.132C61.4871 173.459 61.1744 173.715 60.7731 173.902C60.3717 174.079 59.9097 174.168 59.3871 174.168Z" fill="white"/>
<path d="M197.431 193L194.428 184.805H195.341L197.981 192.219H197.805L200.434 184.805H201.358L198.355 193H197.431ZM202.329 193V187.104H203.154V193H202.329ZM202.329 186.015V184.805H203.154V186.015H202.329ZM207.527 193.132C206.977 193.132 206.478 193 206.031 192.736C205.591 192.465 205.243 192.094 204.986 191.625C204.729 191.156 204.601 190.624 204.601 190.03C204.601 189.436 204.726 188.912 204.975 188.457C205.224 187.995 205.562 187.632 205.987 187.368C206.42 187.104 206.904 186.972 207.439 186.972C207.864 186.972 208.242 187.053 208.572 187.214C208.909 187.368 209.195 187.581 209.43 187.852C209.665 188.116 209.844 188.417 209.969 188.754C210.094 189.084 210.156 189.425 210.156 189.777C210.156 189.85 210.152 189.935 210.145 190.03C210.138 190.118 210.127 190.21 210.112 190.305H205.129V189.535H209.639L209.243 189.865C209.309 189.462 209.261 189.102 209.1 188.787C208.946 188.464 208.722 188.211 208.429 188.028C208.136 187.837 207.806 187.742 207.439 187.742C207.072 187.742 206.731 187.837 206.416 188.028C206.108 188.219 205.866 188.486 205.69 188.831C205.514 189.168 205.444 189.572 205.481 190.041C205.444 190.51 205.518 190.921 205.701 191.273C205.892 191.618 206.148 191.885 206.471 192.076C206.801 192.267 207.153 192.362 207.527 192.362C207.96 192.362 208.323 192.259 208.616 192.054C208.909 191.849 209.148 191.592 209.331 191.284L210.035 191.658C209.918 191.922 209.738 192.168 209.496 192.395C209.254 192.615 208.964 192.795 208.627 192.934C208.297 193.066 207.93 193.132 207.527 193.132ZM212.909 193L210.885 187.104H211.82L213.492 192.263H213.162L214.735 187.104H215.56L217.133 192.263H216.803L218.486 187.104H219.41L217.386 193H216.561L215.032 187.951H215.263L213.734 193H212.909ZM225.127 193.132C224.607 193.132 224.134 193.033 223.708 192.835C223.283 192.637 222.924 192.373 222.63 192.043C222.337 191.706 222.128 191.335 222.003 190.932L222.795 190.635C222.986 191.192 223.283 191.618 223.686 191.911C224.09 192.197 224.57 192.34 225.127 192.34C225.479 192.34 225.787 192.285 226.051 192.175C226.323 192.058 226.532 191.896 226.678 191.691C226.825 191.486 226.898 191.247 226.898 190.976C226.898 190.573 226.788 190.261 226.568 190.041C226.348 189.821 226.033 189.652 225.622 189.535L224.148 189.095C223.569 188.926 223.122 188.644 222.806 188.248C222.498 187.852 222.344 187.401 222.344 186.895C222.344 186.462 222.451 186.081 222.663 185.751C222.876 185.414 223.166 185.15 223.532 184.959C223.906 184.768 224.328 184.673 224.797 184.673C225.289 184.673 225.729 184.765 226.117 184.948C226.513 185.124 226.847 185.359 227.118 185.652C227.39 185.945 227.584 186.272 227.701 186.631L226.931 186.939C226.755 186.455 226.48 186.088 226.106 185.839C225.74 185.59 225.307 185.465 224.808 185.465C224.493 185.465 224.214 185.52 223.972 185.63C223.738 185.74 223.554 185.898 223.422 186.103C223.29 186.308 223.224 186.55 223.224 186.829C223.224 187.166 223.331 187.471 223.543 187.742C223.756 188.006 224.082 188.204 224.522 188.336L225.82 188.721C226.466 188.912 226.953 189.187 227.283 189.546C227.613 189.905 227.778 190.356 227.778 190.899C227.778 191.339 227.665 191.728 227.437 192.065C227.217 192.395 226.906 192.655 226.502 192.846C226.106 193.037 225.648 193.132 225.127 193.132ZM231.612 193.066C231.084 193.066 230.677 192.912 230.391 192.604C230.105 192.296 229.962 191.856 229.962 191.284V187.929H228.873V187.104H229.148C229.397 187.104 229.595 187.023 229.742 186.862C229.888 186.693 229.962 186.484 229.962 186.235V185.74H230.787V187.104H232.085V187.929H230.787V191.284C230.787 191.482 230.816 191.658 230.875 191.812C230.933 191.959 231.032 192.076 231.172 192.164C231.318 192.252 231.513 192.296 231.755 192.296C231.813 192.296 231.883 192.292 231.964 192.285C232.044 192.278 232.114 192.27 232.173 192.263V193C232.085 193.022 231.986 193.037 231.876 193.044C231.766 193.059 231.678 193.066 231.612 193.066ZM235.219 193.132C234.845 193.132 234.511 193.062 234.218 192.923C233.925 192.776 233.694 192.578 233.525 192.329C233.356 192.08 233.272 191.794 233.272 191.471C233.272 191.163 233.338 190.884 233.47 190.635C233.602 190.378 233.807 190.162 234.086 189.986C234.365 189.81 234.72 189.685 235.153 189.612L237.463 189.227V189.975L235.351 190.327C234.926 190.4 234.618 190.536 234.427 190.734C234.244 190.932 234.152 191.167 234.152 191.438C234.152 191.702 234.255 191.926 234.46 192.109C234.673 192.292 234.944 192.384 235.274 192.384C235.677 192.384 236.029 192.3 236.33 192.131C236.631 191.955 236.865 191.72 237.034 191.427C237.203 191.134 237.287 190.807 237.287 190.448V188.952C237.287 188.6 237.159 188.314 236.902 188.094C236.645 187.874 236.312 187.764 235.901 187.764C235.542 187.764 235.226 187.856 234.955 188.039C234.684 188.215 234.482 188.446 234.35 188.732L233.602 188.325C233.712 188.076 233.884 187.848 234.119 187.643C234.361 187.438 234.636 187.276 234.944 187.159C235.252 187.034 235.571 186.972 235.901 186.972C236.334 186.972 236.715 187.056 237.045 187.225C237.382 187.394 237.643 187.628 237.826 187.929C238.017 188.222 238.112 188.563 238.112 188.952V193H237.287V191.823L237.408 191.944C237.305 192.164 237.144 192.366 236.924 192.549C236.711 192.725 236.458 192.868 236.165 192.978C235.879 193.081 235.564 193.132 235.219 193.132ZM241.956 193.066C241.428 193.066 241.021 192.912 240.735 192.604C240.449 192.296 240.306 191.856 240.306 191.284V187.929H239.217V187.104H239.492C239.742 187.104 239.94 187.023 240.086 186.862C240.233 186.693 240.306 186.484 240.306 186.235V185.74H241.131V187.104H242.429V187.929H241.131V191.284C241.131 191.482 241.161 191.658 241.219 191.812C241.278 191.959 241.377 192.076 241.516 192.164C241.663 192.252 241.857 192.296 242.099 192.296C242.158 192.296 242.228 192.292 242.308 192.285C242.389 192.278 242.459 192.27 242.517 192.263V193C242.429 193.022 242.33 193.037 242.22 193.044C242.11 193.059 242.022 193.066 241.956 193.066ZM246.435 193.132C245.885 193.132 245.387 193 244.939 192.736C244.499 192.465 244.151 192.094 243.894 191.625C243.638 191.156 243.509 190.624 243.509 190.03C243.509 189.436 243.634 188.912 243.883 188.457C244.133 187.995 244.47 187.632 244.895 187.368C245.328 187.104 245.812 186.972 246.347 186.972C246.773 186.972 247.15 187.053 247.48 187.214C247.818 187.368 248.104 187.581 248.338 187.852C248.573 188.116 248.753 188.417 248.877 188.754C249.002 189.084 249.064 189.425 249.064 189.777C249.064 189.85 249.061 189.935 249.053 190.03C249.046 190.118 249.035 190.21 249.02 190.305H244.037V189.535H248.547L248.151 189.865C248.217 189.462 248.17 189.102 248.008 188.787C247.854 188.464 247.631 188.211 247.337 188.028C247.044 187.837 246.714 187.742 246.347 187.742C245.981 187.742 245.64 187.837 245.324 188.028C245.016 188.219 244.774 188.486 244.598 188.831C244.422 189.168 244.353 189.572 244.389 190.041C244.353 190.51 244.426 190.921 244.609 191.273C244.8 191.618 245.057 191.885 245.379 192.076C245.709 192.267 246.061 192.362 246.435 192.362C246.868 192.362 247.231 192.259 247.524 192.054C247.818 191.849 248.056 191.592 248.239 191.284L248.943 191.658C248.826 191.922 248.646 192.168 248.404 192.395C248.162 192.615 247.873 192.795 247.535 192.934C247.205 193.066 246.839 193.132 246.435 193.132ZM250.519 193V187.104H251.344V188.226L251.212 188.061C251.373 187.716 251.612 187.449 251.927 187.258C252.25 187.067 252.602 186.972 252.983 186.972C253.438 186.972 253.848 187.1 254.215 187.357C254.582 187.614 254.842 187.947 254.996 188.358L254.765 188.369C254.912 187.914 255.165 187.57 255.524 187.335C255.891 187.093 256.294 186.972 256.734 186.972C257.13 186.972 257.493 187.067 257.823 187.258C258.16 187.449 258.428 187.713 258.626 188.05C258.831 188.38 258.934 188.754 258.934 189.172V193H258.109V189.491C258.109 189.132 258.043 188.827 257.911 188.578C257.786 188.329 257.614 188.138 257.394 188.006C257.174 187.867 256.921 187.797 256.635 187.797C256.356 187.797 256.103 187.867 255.876 188.006C255.649 188.138 255.469 188.332 255.337 188.589C255.205 188.838 255.139 189.139 255.139 189.491V193H254.314V189.491C254.314 189.132 254.248 188.827 254.116 188.578C253.991 188.329 253.819 188.138 253.599 188.006C253.379 187.867 253.126 187.797 252.84 187.797C252.554 187.797 252.297 187.867 252.07 188.006C251.85 188.138 251.674 188.332 251.542 188.589C251.41 188.838 251.344 189.139 251.344 189.491V193H250.519ZM263.193 193.132C262.643 193.132 262.144 193 261.697 192.736C261.257 192.465 260.909 192.094 260.652 191.625C260.395 191.156 260.267 190.624 260.267 190.03C260.267 189.436 260.392 188.912 260.641 188.457C260.89 187.995 261.228 187.632 261.653 187.368C262.086 187.104 262.57 186.972 263.105 186.972C263.53 186.972 263.908 187.053 264.238 187.214C264.575 187.368 264.861 187.581 265.096 187.852C265.331 188.116 265.51 188.417 265.635 188.754C265.76 189.084 265.822 189.425 265.822 189.777C265.822 189.85 265.818 189.935 265.811 190.03C265.804 190.118 265.793 190.21 265.778 190.305H260.795V189.535H265.305L264.909 189.865C264.975 189.462 264.927 189.102 264.766 188.787C264.612 188.464 264.388 188.211 264.095 188.028C263.802 187.837 263.472 187.742 263.105 187.742C262.738 187.742 262.397 187.837 262.082 188.028C261.774 188.219 261.532 188.486 261.356 188.831C261.18 189.168 261.11 189.572 261.147 190.041C261.11 190.51 261.184 190.921 261.367 191.273C261.558 191.618 261.814 191.885 262.137 192.076C262.467 192.267 262.819 192.362 263.193 192.362C263.626 192.362 263.989 192.259 264.282 192.054C264.575 191.849 264.814 191.592 264.997 191.284L265.701 191.658C265.584 191.922 265.404 192.168 265.162 192.395C264.92 192.615 264.63 192.795 264.293 192.934C263.963 193.066 263.596 193.132 263.193 193.132ZM267.277 193V187.104H268.102V188.248L267.915 188.204C268.061 187.823 268.3 187.522 268.63 187.302C268.967 187.082 269.356 186.972 269.796 186.972C270.214 186.972 270.588 187.067 270.918 187.258C271.255 187.449 271.519 187.713 271.71 188.05C271.908 188.38 272.007 188.754 272.007 189.172V193H271.182V189.491C271.182 189.132 271.116 188.827 270.984 188.578C270.859 188.329 270.679 188.138 270.445 188.006C270.217 187.867 269.953 187.797 269.653 187.797C269.352 187.797 269.084 187.867 268.85 188.006C268.615 188.138 268.432 188.332 268.3 188.589C268.168 188.838 268.102 189.139 268.102 189.491V193H267.277ZM275.837 193.066C275.309 193.066 274.902 192.912 274.616 192.604C274.33 192.296 274.187 191.856 274.187 191.284V187.929H273.098V187.104H273.373C273.623 187.104 273.821 187.023 273.967 186.862C274.114 186.693 274.187 186.484 274.187 186.235V185.74H275.012V187.104H276.31V187.929H275.012V191.284C275.012 191.482 275.042 191.658 275.1 191.812C275.159 191.959 275.258 192.076 275.397 192.164C275.544 192.252 275.738 192.296 275.98 192.296C276.039 192.296 276.109 192.292 276.189 192.285C276.27 192.278 276.34 192.27 276.398 192.263V193C276.31 193.022 276.211 193.037 276.101 193.044C275.991 193.059 275.903 193.066 275.837 193.066Z" fill="white"/>
<path opacity="0.2" d="M210 179L210.742 185.258L217 186L210.742 186.742L210 193L209.258 186.742L203 186L209.258 185.258L210 179Z" fill="white"/>
</svg>
