<svg width="59" height="57" viewBox="0 0 59 57" fill="none" xmlns="http://www.w3.org/2000/svg">
<rect width="59" height="57" rx="9" fill="#6366F1"/>
<path opacity="0.4" d="M35.3605 16.4746H22.6405C18.9355 16.4746 15.9355 19.4896 15.9355 23.1796V37.2946C15.9355 40.9846 18.9505 43.9996 22.6405 43.9996H35.3455C39.0505 43.9996 42.0505 40.9846 42.0505 37.2946V23.1796C42.0655 19.4746 39.0505 16.4746 35.3605 16.4746Z" fill="white"/>
<path d="M32.5256 14H25.4756C23.9156 14 22.6406 15.26 22.6406 16.82V18.23C22.6406 19.79 23.9006 21.05 25.4606 21.05H32.5256C34.0856 21.05 35.3456 19.79 35.3456 18.23V16.82C35.3606 15.26 34.0856 14 32.5256 14Z" fill="white"/>
<path d="M33.5 30.425H23C22.385 30.425 21.875 29.915 21.875 29.3C21.875 28.685 22.385 28.175 23 28.175H33.5C34.115 28.175 34.625 28.685 34.625 29.3C34.625 29.915 34.115 30.425 33.5 30.425Z" fill="white"/>
<path d="M29.57 36.4251H23C22.385 36.4251 21.875 35.9151 21.875 35.3001C21.875 34.6851 22.385 34.175 23 34.175H29.57C30.185 34.175 30.695 34.6851 30.695 35.3001C30.695 35.9151 30.185 36.4251 29.57 36.4251Z" fill="white"/>
</svg>
