<svg width="82" height="34" viewBox="0 0 82 34" fill="none" xmlns="http://www.w3.org/2000/svg">
<rect width="82" height="34" rx="5" fill="#F0FDF4"/>
<path d="M15.5407 15.5828L11.9998 12.042L8.45898 15.5828" stroke="#16A34A" stroke-width="1.6" stroke-miterlimit="10" stroke-linecap="round" stroke-linejoin="round"/>
<path opacity="0.4" d="M12 21.9584V12.1409" stroke="#16A34A" stroke-width="1.6" stroke-miterlimit="10" stroke-linecap="round" stroke-linejoin="round"/>
<path d="M28.102 23.168C27.542 23.168 27.0147 23.0653 26.52 22.86C26.0347 22.6547 25.6147 22.3653 25.26 21.992C24.9147 21.6187 24.6673 21.18 24.518 20.676L25.918 20.144C26.1047 20.6387 26.3893 21.0213 26.772 21.292C27.1547 21.5627 27.598 21.698 28.102 21.698C28.5127 21.698 28.8673 21.6187 29.166 21.46C29.474 21.3013 29.712 21.0773 29.88 20.788C30.0573 20.4987 30.146 20.1487 30.146 19.738C30.146 19.3367 30.0573 18.9913 29.88 18.702C29.712 18.4127 29.474 18.1933 29.166 18.044C28.8673 17.8947 28.5127 17.82 28.102 17.82C27.934 17.82 27.7613 17.834 27.584 17.862C27.416 17.89 27.2667 17.9273 27.136 17.974L26.772 17.204L29.516 13.97H25.078V12.57H31.364V13.9L28.676 17.12L28.634 16.588C29.2593 16.5973 29.81 16.7373 30.286 17.008C30.762 17.2693 31.1307 17.6333 31.392 18.1C31.6627 18.5573 31.798 19.0893 31.798 19.696C31.798 20.3493 31.6393 20.942 31.322 21.474C31.0047 21.9967 30.566 22.412 30.006 22.72C29.4553 23.0187 28.8207 23.168 28.102 23.168ZM36.4646 23.168C35.9139 23.168 35.3959 23.07 34.9106 22.874C34.4253 22.6687 34.0053 22.384 33.6506 22.02C33.2959 21.656 33.0439 21.2173 32.8946 20.704L34.2806 20.172C34.4579 20.6667 34.7473 21.0447 35.1486 21.306C35.5499 21.5673 35.9886 21.698 36.4646 21.698C36.8566 21.698 37.2019 21.6093 37.5006 21.432C37.7993 21.2547 38.0326 21.012 38.2006 20.704C38.3779 20.396 38.4666 20.046 38.4666 19.654C38.4666 19.2527 38.3779 18.9027 38.2006 18.604C38.0326 18.296 37.7993 18.058 37.5006 17.89C37.2019 17.7127 36.8566 17.624 36.4646 17.624C36.0726 17.624 35.7133 17.7127 35.3866 17.89C35.0599 18.0673 34.8219 18.3053 34.6726 18.604L33.3426 18.31L34.1546 12.57H39.7126V13.97H34.7986L35.4286 13.284L34.8266 17.68L34.3086 17.33C34.5886 16.938 34.9293 16.6533 35.3306 16.476C35.7319 16.2987 36.1893 16.21 36.7026 16.21C37.3839 16.21 37.9766 16.364 38.4806 16.672C38.9939 16.9707 39.3906 17.3813 39.6706 17.904C39.9599 18.4173 40.1046 19.0007 40.1046 19.654C40.1046 20.3167 39.9459 20.914 39.6286 21.446C39.3113 21.978 38.8773 22.398 38.3266 22.706C37.7853 23.014 37.1646 23.168 36.4646 23.168ZM42.1519 23V21.32H43.5099V23H42.1519ZM48.9752 23.168C48.3219 23.168 47.7432 23.0233 47.2392 22.734C46.7352 22.4353 46.3386 22.0293 46.0492 21.516C45.7599 20.9933 45.6152 20.396 45.6152 19.724C45.6152 19.3507 45.6572 18.982 45.7412 18.618C45.8346 18.254 45.9699 17.8947 46.1472 17.54C46.3339 17.1853 46.5579 16.8307 46.8192 16.476L49.7592 12.57H51.1032L47.4772 17.316L47.2672 17.442C47.4072 17.2087 47.5706 17.0313 47.7572 16.91C47.9439 16.7793 48.1492 16.686 48.3732 16.63C48.6066 16.574 48.8539 16.546 49.1152 16.546C49.7219 16.546 50.2679 16.6907 50.7532 16.98C51.2386 17.26 51.6212 17.6473 51.9012 18.142C52.1906 18.6367 52.3352 19.2107 52.3352 19.864C52.3352 20.4893 52.1859 21.054 51.8872 21.558C51.5979 22.0527 51.2012 22.4447 50.6972 22.734C50.1932 23.0233 49.6192 23.168 48.9752 23.168ZM48.9752 22.188C49.4046 22.188 49.7872 22.09 50.1232 21.894C50.4592 21.6887 50.7252 21.4087 50.9212 21.054C51.1172 20.6993 51.2152 20.3027 51.2152 19.864C51.2152 19.416 51.1172 19.0193 50.9212 18.674C50.7346 18.3287 50.4732 18.058 50.1372 17.862C49.8012 17.6567 49.4139 17.554 48.9752 17.554C48.5459 17.554 48.1586 17.6567 47.8132 17.862C47.4772 18.058 47.2112 18.3287 47.0152 18.674C46.8286 19.0193 46.7352 19.416 46.7352 19.864C46.7352 20.3027 46.8332 20.6993 47.0292 21.054C47.2252 21.4087 47.4912 21.6887 47.8272 21.894C48.1632 22.09 48.5459 22.188 48.9752 22.188ZM57.0767 23.168C56.5354 23.168 56.0314 23.0747 55.5647 22.888C55.1074 22.7013 54.7061 22.4353 54.3607 22.09C54.0154 21.7447 53.7541 21.334 53.5767 20.858L54.4307 20.438C54.6454 20.9793 54.9954 21.4087 55.4807 21.726C55.9754 22.034 56.5074 22.188 57.0767 22.188C57.5341 22.188 57.9401 22.0807 58.2947 21.866C58.6587 21.6513 58.9434 21.362 59.1487 20.998C59.3541 20.6247 59.4567 20.2093 59.4567 19.752C59.4567 19.276 59.3494 18.856 59.1347 18.492C58.9294 18.128 58.6494 17.8433 58.2947 17.638C57.9401 17.4233 57.5387 17.316 57.0907 17.316C56.6334 17.316 56.2087 17.4233 55.8167 17.638C55.4341 17.8433 55.1541 18.0953 54.9767 18.394L54.0947 18.226L54.8787 12.57H60.1567V13.55H55.2847L55.7187 13.172L55.0887 17.624L54.6547 17.428C54.9814 17.0267 55.3641 16.742 55.8027 16.574C56.2414 16.3967 56.6894 16.308 57.1467 16.308C57.8187 16.308 58.4114 16.4667 58.9247 16.784C59.4381 17.092 59.8394 17.5073 60.1287 18.03C60.4274 18.5433 60.5767 19.1173 60.5767 19.752C60.5767 20.396 60.4227 20.9793 60.1147 21.502C59.8161 22.0153 59.4007 22.4213 58.8687 22.72C58.3461 23.0187 57.7487 23.168 57.0767 23.168ZM65.2266 23L73.7666 12.57H75.1246L66.5846 23H65.2266ZM66.7526 17.862C66.2486 17.862 65.7913 17.7407 65.3806 17.498C64.9699 17.246 64.6386 16.9147 64.3866 16.504C64.1439 16.0933 64.0226 15.636 64.0226 15.132C64.0226 14.628 64.1439 14.1707 64.3866 13.76C64.6386 13.34 64.9699 13.0087 65.3806 12.766C65.7913 12.5233 66.2486 12.402 66.7526 12.402C67.2566 12.402 67.7139 12.5233 68.1246 12.766C68.5353 13.0087 68.8619 13.34 69.1046 13.76C69.3473 14.1707 69.4686 14.628 69.4686 15.132C69.4686 15.636 69.3473 16.0933 69.1046 16.504C68.8619 16.9147 68.5353 17.246 68.1246 17.498C67.7139 17.7407 67.2566 17.862 66.7526 17.862ZM66.7526 16.854C67.0793 16.854 67.3639 16.7747 67.6066 16.616C67.8586 16.448 68.0546 16.2333 68.1946 15.972C68.3439 15.7013 68.4186 15.4213 68.4186 15.132C68.4186 14.8333 68.3439 14.5533 68.1946 14.292C68.0546 14.0307 67.8586 13.8207 67.6066 13.662C67.3639 13.494 67.0793 13.41 66.7526 13.41C66.4353 13.41 66.1459 13.494 65.8846 13.662C65.6326 13.8207 65.4319 14.0307 65.2826 14.292C65.1426 14.5533 65.0726 14.8333 65.0726 15.132C65.0726 15.4213 65.1426 15.7013 65.2826 15.972C65.4319 16.2333 65.6326 16.448 65.8846 16.616C66.1459 16.7747 66.4353 16.854 66.7526 16.854ZM73.4726 23.168C72.9686 23.168 72.5113 23.0467 72.1006 22.804C71.6899 22.552 71.3586 22.2207 71.1066 21.81C70.8639 21.3993 70.7426 20.942 70.7426 20.438C70.7426 19.934 70.8639 19.4767 71.1066 19.066C71.3586 18.646 71.6899 18.3147 72.1006 18.072C72.5113 17.8293 72.9686 17.708 73.4726 17.708C73.9766 17.708 74.4339 17.8293 74.8446 18.072C75.2553 18.3147 75.5819 18.646 75.8246 19.066C76.0673 19.4767 76.1886 19.934 76.1886 20.438C76.1886 20.942 76.0673 21.3993 75.8246 21.81C75.5819 22.2207 75.2553 22.552 74.8446 22.804C74.4339 23.0467 73.9766 23.168 73.4726 23.168ZM73.4726 22.16C73.7993 22.16 74.0839 22.0807 74.3266 21.922C74.5786 21.754 74.7746 21.5393 74.9146 21.278C75.0639 21.0073 75.1386 20.7273 75.1386 20.438C75.1386 20.1393 75.0639 19.8593 74.9146 19.598C74.7746 19.3367 74.5786 19.1267 74.3266 18.968C74.0839 18.8 73.7993 18.716 73.4726 18.716C73.1553 18.716 72.8659 18.8 72.6046 18.968C72.3526 19.1267 72.1519 19.3367 72.0026 19.598C71.8626 19.8593 71.7926 20.1393 71.7926 20.438C71.7926 20.7273 71.8626 21.0073 72.0026 21.278C72.1519 21.5393 72.3526 21.754 72.6046 21.922C72.8659 22.0807 73.1553 22.16 73.4726 22.16Z" fill="#16A34A"/>
</svg>
