<svg width="283" height="202" viewBox="0 0 283 202" fill="none" xmlns="http://www.w3.org/2000/svg">
<path fill-rule="evenodd" clip-rule="evenodd" d="M170 13C170 5.8203 164.18 0 157 0H10C4.47715 0 0 4.47715 0 10V179C0 184.523 4.47714 189 9.99999 189H273C278.523 189 283 184.523 283 179V44C283 32.402 273.598 23 262 23H180C174.477 23 170 18.5228 170 13Z" fill="#E0E7FF"/>
<path fill-rule="evenodd" clip-rule="evenodd" d="M170 19C170 11.8203 164.18 6 157 6H10C4.47715 6 0 10.4771 0 16V185C0 190.523 4.47714 195 9.99999 195H273C278.523 195 283 190.523 283 185V50C283 38.402 273.598 29 262 29H180C174.477 29 170 24.5228 170 19Z" fill="#C7D2FE"/>
<path fill-rule="evenodd" clip-rule="evenodd" d="M163 24C163 17.9249 158.075 13 152 13H10C4.47715 13 0 17.4771 0 23V192C0 197.523 4.47714 202 9.99999 202H273C278.523 202 283 197.523 283 192V47C283 40.9249 278.075 36 272 36H173C167.477 36 163 31.5228 163 26V24Z" fill="#4F46E5"/>
<g opacity="0.7">
<path d="M257.84 68.09C254.52 63.79 254.52 58.2 257.84 53.9" stroke="white" stroke-width="1.5" stroke-linecap="round" stroke-linejoin="round"/>
<path d="M254.36 71C249.68 64.94 249.68 57.06 254.36 51" stroke="white" stroke-width="1.5" stroke-linecap="round" stroke-linejoin="round"/>
<path d="M261.49 66.21C259.05 63.06 259.05 58.95 261.49 55.8" stroke="white" stroke-width="1.5" stroke-linecap="round" stroke-linejoin="round"/>
<path d="M265.149 63.5996C263.929 62.0196 263.929 59.9696 265.149 58.3896" stroke="white" stroke-width="1.5" stroke-linecap="round" stroke-linejoin="round"/>
</g>
<path d="M18.152 54V42.08H26.072V44H20.328V47.056H25.752V48.976H20.328V52.08H26.072V54H18.152ZM26.7076 54L29.7476 49.632L26.6916 45.296H29.1556L31.5396 48.816H30.4356L32.8196 45.296H35.2676L32.2276 49.632L35.2516 54H32.8036L30.4516 50.496H31.5236L29.1716 54H26.7076ZM36.4135 57.2V45.296H38.3815V47.024L38.1895 46.592C38.4882 46.1227 38.8935 45.76 39.4055 45.504C39.9175 45.2373 40.5095 45.104 41.1815 45.104C42.0028 45.104 42.7442 45.3067 43.4055 45.712C44.0668 46.1173 44.5895 46.6613 44.9735 47.344C45.3682 48.0267 45.5655 48.7947 45.5655 49.648C45.5655 50.4907 45.3735 51.2587 44.9895 51.952C44.6055 52.6453 44.0828 53.1947 43.4215 53.6C42.7602 53.9947 42.0082 54.192 41.1655 54.192C40.5362 54.192 39.9548 54.0693 39.4215 53.824C38.8988 53.568 38.4828 53.2053 38.1735 52.736L38.5095 52.32V57.2H36.4135ZM40.9255 52.272C41.4055 52.272 41.8322 52.16 42.2055 51.936C42.5788 51.712 42.8668 51.4027 43.0695 51.008C43.2828 50.6133 43.3895 50.16 43.3895 49.648C43.3895 49.136 43.2828 48.688 43.0695 48.304C42.8668 47.9093 42.5788 47.6 42.2055 47.376C41.8322 47.1413 41.4055 47.024 40.9255 47.024C40.4668 47.024 40.0508 47.136 39.6775 47.36C39.3148 47.584 39.0268 47.8987 38.8135 48.304C38.6108 48.6987 38.5095 49.1467 38.5095 49.648C38.5095 50.16 38.6108 50.6133 38.8135 51.008C39.0268 51.4027 39.3148 51.712 39.6775 51.936C40.0508 52.16 40.4668 52.272 40.9255 52.272ZM51.2915 54.192C50.3955 54.192 49.6115 53.9893 48.9395 53.584C48.2675 53.1787 47.7448 52.6293 47.3715 51.936C46.9982 51.2427 46.8115 50.4747 46.8115 49.632C46.8115 48.7573 46.9982 47.984 47.3715 47.312C47.7555 46.6293 48.2728 46.0907 48.9235 45.696C49.5848 45.3013 50.3208 45.104 51.1315 45.104C51.8142 45.104 52.4115 45.216 52.9235 45.44C53.4462 45.664 53.8888 45.9733 54.2515 46.368C54.6142 46.7627 54.8915 47.216 55.0835 47.728C55.2755 48.2293 55.3715 48.7733 55.3715 49.36C55.3715 49.5093 55.3608 49.664 55.3395 49.824C55.3288 49.984 55.3022 50.1227 55.2595 50.24H48.5395V48.64H54.0755L53.0835 49.392C53.1795 48.9013 53.1528 48.464 53.0035 48.08C52.8648 47.696 52.6302 47.392 52.2995 47.168C51.9795 46.944 51.5902 46.832 51.1315 46.832C50.6942 46.832 50.3048 46.944 49.9635 47.168C49.6222 47.3813 49.3608 47.7013 49.1795 48.128C49.0088 48.544 48.9448 49.0507 48.9875 49.648C48.9448 50.1813 49.0142 50.656 49.1955 51.072C49.3875 51.4773 49.6648 51.792 50.0275 52.016C50.4008 52.24 50.8275 52.352 51.3075 52.352C51.7875 52.352 52.1928 52.2507 52.5235 52.048C52.8648 51.8453 53.1315 51.5733 53.3235 51.232L55.0195 52.064C54.8488 52.48 54.5822 52.848 54.2195 53.168C53.8568 53.488 53.4248 53.7387 52.9235 53.92C52.4328 54.1013 51.8888 54.192 51.2915 54.192ZM56.9604 54V45.296H58.9284V47.008L58.7684 46.704C58.971 46.1813 59.3017 45.7867 59.7604 45.52C60.2297 45.2427 60.7737 45.104 61.3924 45.104C62.0324 45.104 62.5977 45.2427 63.0884 45.52C63.5897 45.7973 63.979 46.1867 64.2564 46.688C64.5337 47.1787 64.6724 47.7493 64.6724 48.4V54H62.5764V48.896C62.5764 48.512 62.5017 48.1813 62.3524 47.904C62.203 47.6267 61.995 47.4133 61.7284 47.264C61.4724 47.104 61.1684 47.024 60.8164 47.024C60.475 47.024 60.171 47.104 59.9044 47.264C59.6377 47.4133 59.4297 47.6267 59.2804 47.904C59.131 48.1813 59.0564 48.512 59.0564 48.896V54H56.9604ZM69.7568 54.192C68.8288 54.192 68.0181 53.9733 67.3248 53.536C66.6421 53.088 66.1728 52.4853 65.9168 51.728L67.4848 50.976C67.7088 51.4667 68.0181 51.8507 68.4128 52.128C68.8181 52.4053 69.2661 52.544 69.7568 52.544C70.1408 52.544 70.4448 52.4587 70.6688 52.288C70.8928 52.1173 71.0048 51.8933 71.0048 51.616C71.0048 51.4453 70.9568 51.3067 70.8608 51.2C70.7754 51.0827 70.6528 50.9867 70.4928 50.912C70.3434 50.8267 70.1781 50.7573 69.9968 50.704L68.5728 50.304C67.8368 50.0907 67.2768 49.7653 66.8928 49.328C66.5194 48.8907 66.3328 48.3733 66.3328 47.776C66.3328 47.2427 66.4661 46.7787 66.7328 46.384C67.0101 45.9787 67.3888 45.664 67.8688 45.44C68.3594 45.216 68.9194 45.104 69.5488 45.104C70.3701 45.104 71.0954 45.3013 71.7248 45.696C72.3541 46.0907 72.8021 46.6453 73.0688 47.36L71.4688 48.112C71.3194 47.7173 71.0688 47.4027 70.7168 47.168C70.3648 46.9333 69.9701 46.816 69.5328 46.816C69.1808 46.816 68.9034 46.896 68.7008 47.056C68.4981 47.216 68.3968 47.424 68.3968 47.68C68.3968 47.84 68.4394 47.9787 68.5248 48.096C68.6101 48.2133 68.7274 48.3093 68.8768 48.384C69.0368 48.4587 69.2181 48.528 69.4208 48.592L70.8128 49.008C71.5274 49.2213 72.0768 49.5413 72.4608 49.968C72.8554 50.3947 73.0528 50.9173 73.0528 51.536C73.0528 52.0587 72.9141 52.5227 72.6368 52.928C72.3594 53.3227 71.9754 53.632 71.4848 53.856C70.9941 54.08 70.4181 54.192 69.7568 54.192ZM78.7915 54.192C77.8955 54.192 77.1115 53.9893 76.4395 53.584C75.7675 53.1787 75.2448 52.6293 74.8715 51.936C74.4982 51.2427 74.3115 50.4747 74.3115 49.632C74.3115 48.7573 74.4982 47.984 74.8715 47.312C75.2555 46.6293 75.7728 46.0907 76.4235 45.696C77.0848 45.3013 77.8208 45.104 78.6315 45.104C79.3142 45.104 79.9115 45.216 80.4235 45.44C80.9462 45.664 81.3888 45.9733 81.7515 46.368C82.1142 46.7627 82.3915 47.216 82.5835 47.728C82.7755 48.2293 82.8715 48.7733 82.8715 49.36C82.8715 49.5093 82.8608 49.664 82.8395 49.824C82.8288 49.984 82.8022 50.1227 82.7595 50.24H76.0395V48.64H81.5755L80.5835 49.392C80.6795 48.9013 80.6528 48.464 80.5035 48.08C80.3648 47.696 80.1302 47.392 79.7995 47.168C79.4795 46.944 79.0902 46.832 78.6315 46.832C78.1942 46.832 77.8048 46.944 77.4635 47.168C77.1222 47.3813 76.8608 47.7013 76.6795 48.128C76.5088 48.544 76.4448 49.0507 76.4875 49.648C76.4448 50.1813 76.5142 50.656 76.6955 51.072C76.8875 51.4773 77.1648 51.792 77.5275 52.016C77.9008 52.24 78.3275 52.352 78.8075 52.352C79.2875 52.352 79.6928 52.2507 80.0235 52.048C80.3648 51.8453 80.6315 51.5733 80.8235 51.232L82.5195 52.064C82.3488 52.48 82.0822 52.848 81.7195 53.168C81.3568 53.488 80.9248 53.7387 80.4235 53.92C79.9328 54.1013 79.3888 54.192 78.7915 54.192ZM89.7041 54L86.5041 42.08H88.8401L91.3521 52.24H90.7441L93.3681 42.08H95.6241L98.2321 52.24H97.6241L100.136 42.08H102.472L99.2721 54H96.7761L94.1361 44.112H94.8401L92.2001 54H89.7041ZM105.616 54.192C105.008 54.192 104.48 54.0907 104.032 53.888C103.584 53.6853 103.237 53.3973 102.992 53.024C102.747 52.64 102.624 52.1973 102.624 51.696C102.624 51.216 102.731 50.7893 102.944 50.416C103.157 50.032 103.488 49.712 103.936 49.456C104.384 49.2 104.949 49.0187 105.632 48.912L108.48 48.448V50.048L106.032 50.464C105.616 50.5387 105.307 50.672 105.104 50.864C104.901 51.056 104.8 51.3067 104.8 51.616C104.8 51.9147 104.912 52.1547 105.136 52.336C105.371 52.5067 105.659 52.592 106 52.592C106.437 52.592 106.821 52.5013 107.152 52.32C107.493 52.128 107.755 51.8667 107.936 51.536C108.128 51.2053 108.224 50.8427 108.224 50.448V48.208C108.224 47.8347 108.075 47.5253 107.776 47.28C107.488 47.024 107.104 46.896 106.624 46.896C106.176 46.896 105.776 47.0187 105.424 47.264C105.083 47.4987 104.832 47.8133 104.672 48.208L102.96 47.376C103.131 46.9173 103.397 46.5227 103.76 46.192C104.133 45.8507 104.571 45.584 105.072 45.392C105.573 45.2 106.117 45.104 106.704 45.104C107.419 45.104 108.048 45.2373 108.592 45.504C109.136 45.76 109.557 46.1227 109.856 46.592C110.165 47.0507 110.32 47.5893 110.32 48.208V54H108.336V52.512L108.784 52.48C108.56 52.8533 108.293 53.168 107.984 53.424C107.675 53.6693 107.323 53.8613 106.928 54C106.533 54.128 106.096 54.192 105.616 54.192ZM112.257 54V41.888H114.353V54H112.257ZM116.289 54V41.888H118.385V54H116.289ZM124.448 54.192C123.552 54.192 122.768 53.9893 122.096 53.584C121.424 53.1787 120.901 52.6293 120.528 51.936C120.154 51.2427 119.968 50.4747 119.968 49.632C119.968 48.7573 120.154 47.984 120.528 47.312C120.912 46.6293 121.429 46.0907 122.08 45.696C122.741 45.3013 123.477 45.104 124.288 45.104C124.97 45.104 125.568 45.216 126.08 45.44C126.602 45.664 127.045 45.9733 127.408 46.368C127.77 46.7627 128.048 47.216 128.24 47.728C128.432 48.2293 128.528 48.7733 128.528 49.36C128.528 49.5093 128.517 49.664 128.496 49.824C128.485 49.984 128.458 50.1227 128.416 50.24H121.696V48.64H127.232L126.24 49.392C126.336 48.9013 126.309 48.464 126.16 48.08C126.021 47.696 125.786 47.392 125.456 47.168C125.136 46.944 124.746 46.832 124.288 46.832C123.85 46.832 123.461 46.944 123.12 47.168C122.778 47.3813 122.517 47.7013 122.336 48.128C122.165 48.544 122.101 49.0507 122.144 49.648C122.101 50.1813 122.17 50.656 122.352 51.072C122.544 51.4773 122.821 51.792 123.184 52.016C123.557 52.24 123.984 52.352 124.464 52.352C124.944 52.352 125.349 52.2507 125.68 52.048C126.021 51.8453 126.288 51.5733 126.48 51.232L128.176 52.064C128.005 52.48 127.738 52.848 127.376 53.168C127.013 53.488 126.581 53.7387 126.08 53.92C125.589 54.1013 125.045 54.192 124.448 54.192ZM134.085 54.096C133.103 54.096 132.341 53.8293 131.797 53.296C131.263 52.752 130.997 51.9893 130.997 51.008V47.168H129.493V45.296H129.653C130.079 45.296 130.41 45.184 130.645 44.96C130.879 44.736 130.997 44.4107 130.997 43.984V43.312H133.093V45.296H135.093V47.168H133.093V50.896C133.093 51.184 133.141 51.4293 133.237 51.632C133.343 51.8347 133.503 51.9893 133.717 52.096C133.941 52.2027 134.223 52.256 134.565 52.256C134.639 52.256 134.725 52.2507 134.821 52.24C134.927 52.2293 135.029 52.2187 135.125 52.208V54C134.975 54.0213 134.805 54.0427 134.613 54.064C134.421 54.0853 134.245 54.096 134.085 54.096ZM18.152 74V62.08H23.176C23.9653 62.08 24.6373 62.2187 25.192 62.496C25.7573 62.7627 26.1893 63.1467 26.488 63.648C26.7973 64.1387 26.952 64.736 26.952 65.44C26.952 65.984 26.8027 66.496 26.504 66.976C26.216 67.4453 25.752 67.8347 25.112 68.144V67.136C25.6987 67.36 26.1627 67.6373 26.504 67.968C26.8453 68.2987 27.0853 68.6667 27.224 69.072C27.3627 69.4773 27.432 69.904 27.432 70.352C27.432 71.4933 27.0533 72.3893 26.296 73.04C25.5493 73.68 24.5093 74 23.176 74H18.152ZM20.328 72.08H23.4C23.9653 72.08 24.4133 71.9253 24.744 71.616C25.0853 71.296 25.256 70.8747 25.256 70.352C25.256 69.8293 25.0853 69.408 24.744 69.088C24.4133 68.768 23.9653 68.608 23.4 68.608H20.328V72.08ZM20.328 66.704H23.288C23.736 66.704 24.0933 66.576 24.36 66.32C24.6267 66.0533 24.76 65.712 24.76 65.296C24.76 64.88 24.6267 64.5493 24.36 64.304C24.0933 64.0587 23.736 63.936 23.288 63.936H20.328V66.704ZM31.6785 74.192C31.0705 74.192 30.5425 74.0907 30.0945 73.888C29.6465 73.6853 29.2998 73.3973 29.0545 73.024C28.8092 72.64 28.6865 72.1973 28.6865 71.696C28.6865 71.216 28.7932 70.7893 29.0065 70.416C29.2198 70.032 29.5505 69.712 29.9985 69.456C30.4465 69.2 31.0118 69.0187 31.6945 68.912L34.5425 68.448V70.048L32.0945 70.464C31.6785 70.5387 31.3692 70.672 31.1665 70.864C30.9638 71.056 30.8625 71.3067 30.8625 71.616C30.8625 71.9147 30.9745 72.1547 31.1985 72.336C31.4332 72.5067 31.7212 72.592 32.0625 72.592C32.4998 72.592 32.8838 72.5013 33.2145 72.32C33.5558 72.128 33.8172 71.8667 33.9985 71.536C34.1905 71.2053 34.2865 70.8427 34.2865 70.448V68.208C34.2865 67.8347 34.1372 67.5253 33.8385 67.28C33.5505 67.024 33.1665 66.896 32.6865 66.896C32.2385 66.896 31.8385 67.0187 31.4865 67.264C31.1452 67.4987 30.8945 67.8133 30.7345 68.208L29.0225 67.376C29.1932 66.9173 29.4598 66.5227 29.8225 66.192C30.1958 65.8507 30.6332 65.584 31.1345 65.392C31.6358 65.2 32.1798 65.104 32.7665 65.104C33.4812 65.104 34.1105 65.2373 34.6545 65.504C35.1985 65.76 35.6198 66.1227 35.9185 66.592C36.2278 67.0507 36.3825 67.5893 36.3825 68.208V74H34.3985V72.512L34.8465 72.48C34.6225 72.8533 34.3558 73.168 34.0465 73.424C33.7372 73.6693 33.3852 73.8613 32.9905 74C32.5958 74.128 32.1585 74.192 31.6785 74.192ZM38.3198 74V61.888H40.4158V74H38.3198ZM44.991 74.192C44.383 74.192 43.855 74.0907 43.407 73.888C42.959 73.6853 42.6123 73.3973 42.367 73.024C42.1217 72.64 41.999 72.1973 41.999 71.696C41.999 71.216 42.1057 70.7893 42.319 70.416C42.5323 70.032 42.863 69.712 43.311 69.456C43.759 69.2 44.3243 69.0187 45.007 68.912L47.855 68.448V70.048L45.407 70.464C44.991 70.5387 44.6817 70.672 44.479 70.864C44.2763 71.056 44.175 71.3067 44.175 71.616C44.175 71.9147 44.287 72.1547 44.511 72.336C44.7457 72.5067 45.0337 72.592 45.375 72.592C45.8123 72.592 46.1963 72.5013 46.527 72.32C46.8683 72.128 47.1297 71.8667 47.311 71.536C47.503 71.2053 47.599 70.8427 47.599 70.448V68.208C47.599 67.8347 47.4497 67.5253 47.151 67.28C46.863 67.024 46.479 66.896 45.999 66.896C45.551 66.896 45.151 67.0187 44.799 67.264C44.4577 67.4987 44.207 67.8133 44.047 68.208L42.335 67.376C42.5057 66.9173 42.7723 66.5227 43.135 66.192C43.5083 65.8507 43.9457 65.584 44.447 65.392C44.9483 65.2 45.4923 65.104 46.079 65.104C46.7937 65.104 47.423 65.2373 47.967 65.504C48.511 65.76 48.9323 66.1227 49.231 66.592C49.5403 67.0507 49.695 67.5893 49.695 68.208V74H47.711V72.512L48.159 72.48C47.935 72.8533 47.6683 73.168 47.359 73.424C47.0497 73.6693 46.6977 73.8613 46.303 74C45.9083 74.128 45.471 74.192 44.991 74.192ZM51.6323 74V65.296H53.6003V67.008L53.4403 66.704C53.6429 66.1813 53.9736 65.7867 54.4323 65.52C54.9016 65.2427 55.4456 65.104 56.0643 65.104C56.7043 65.104 57.2696 65.2427 57.7603 65.52C58.2616 65.7973 58.6509 66.1867 58.9283 66.688C59.2056 67.1787 59.3443 67.7493 59.3443 68.4V74H57.2483V68.896C57.2483 68.512 57.1736 68.1813 57.0243 67.904C56.8749 67.6267 56.6669 67.4133 56.4003 67.264C56.1443 67.104 55.8403 67.024 55.4883 67.024C55.1469 67.024 54.8429 67.104 54.5763 67.264C54.3096 67.4133 54.1016 67.6267 53.9523 67.904C53.8029 68.1813 53.7283 68.512 53.7283 68.896V74H51.6323ZM65.3086 74.192C64.4446 74.192 63.666 73.9947 62.9726 73.6C62.29 73.1947 61.7513 72.6507 61.3566 71.968C60.962 71.2747 60.7646 70.496 60.7646 69.632C60.7646 68.768 60.962 67.9947 61.3566 67.312C61.7513 66.6293 62.29 66.0907 62.9726 65.696C63.666 65.3013 64.4446 65.104 65.3086 65.104C65.9273 65.104 66.5033 65.216 67.0366 65.44C67.57 65.6533 68.0286 65.952 68.4126 66.336C68.8073 66.7093 69.09 67.1573 69.2606 67.68L67.4206 68.48C67.2606 68.0427 66.9886 67.6907 66.6046 67.424C66.2313 67.1573 65.7993 67.024 65.3086 67.024C64.85 67.024 64.4393 67.136 64.0766 67.36C63.7246 67.584 63.4473 67.8933 63.2446 68.288C63.042 68.6827 62.9406 69.136 62.9406 69.648C62.9406 70.16 63.042 70.6133 63.2446 71.008C63.4473 71.4027 63.7246 71.712 64.0766 71.936C64.4393 72.16 64.85 72.272 65.3086 72.272C65.81 72.272 66.2473 72.1387 66.6206 71.872C66.994 71.6053 67.2606 71.248 67.4206 70.8L69.2606 71.632C69.09 72.1227 68.8126 72.5653 68.4286 72.96C68.0446 73.344 67.586 73.648 67.0526 73.872C66.5193 74.0853 65.938 74.192 65.3086 74.192ZM74.979 74.192C74.083 74.192 73.299 73.9893 72.627 73.584C71.955 73.1787 71.4323 72.6293 71.059 71.936C70.6857 71.2427 70.499 70.4747 70.499 69.632C70.499 68.7573 70.6857 67.984 71.059 67.312C71.443 66.6293 71.9603 66.0907 72.611 65.696C73.2723 65.3013 74.0083 65.104 74.819 65.104C75.5017 65.104 76.099 65.216 76.611 65.44C77.1337 65.664 77.5763 65.9733 77.939 66.368C78.3017 66.7627 78.579 67.216 78.771 67.728C78.963 68.2293 79.059 68.7733 79.059 69.36C79.059 69.5093 79.0483 69.664 79.027 69.824C79.0163 69.984 78.9897 70.1227 78.947 70.24H72.227V68.64H77.763L76.771 69.392C76.867 68.9013 76.8403 68.464 76.691 68.08C76.5523 67.696 76.3177 67.392 75.987 67.168C75.667 66.944 75.2777 66.832 74.819 66.832C74.3817 66.832 73.9923 66.944 73.651 67.168C73.3097 67.3813 73.0483 67.7013 72.867 68.128C72.6963 68.544 72.6323 69.0507 72.675 69.648C72.6323 70.1813 72.7017 70.656 72.883 71.072C73.075 71.4773 73.3523 71.792 73.715 72.016C74.0883 72.24 74.515 72.352 74.995 72.352C75.475 72.352 75.8803 72.2507 76.211 72.048C76.5523 71.8453 76.819 71.5733 77.011 71.232L78.707 72.064C78.5363 72.48 78.2697 72.848 77.907 73.168C77.5443 73.488 77.1123 73.7387 76.611 73.92C76.1203 74.1013 75.5763 74.192 74.979 74.192Z" fill="white"/>
<path d="M25.45 148.3C24.2667 148.3 23.1667 148.083 22.15 147.65C21.15 147.217 20.2833 146.617 19.55 145.85C18.8333 145.067 18.3083 144.158 17.975 143.125L20.8 141.9C21.25 142.967 21.9 143.808 22.75 144.425C23.6 145.025 24.5583 145.325 25.625 145.325C26.225 145.325 26.7417 145.233 27.175 145.05C27.625 144.85 27.9667 144.583 28.2 144.25C28.45 143.917 28.575 143.517 28.575 143.05C28.575 142.5 28.4083 142.05 28.075 141.7C27.7583 141.333 27.275 141.05 26.625 140.85L23.05 139.7C21.6 139.25 20.5083 138.575 19.775 137.675C19.0417 136.775 18.675 135.717 18.675 134.5C18.675 133.433 18.9333 132.492 19.45 131.675C19.9833 130.858 20.7167 130.225 21.65 129.775C22.6 129.308 23.6833 129.075 24.9 129.075C26.0167 129.075 27.0417 129.275 27.975 129.675C28.9083 130.058 29.7083 130.6 30.375 131.3C31.0583 131.983 31.5667 132.792 31.9 133.725L29.1 134.975C28.7333 134.042 28.1833 133.325 27.45 132.825C26.7167 132.308 25.8667 132.05 24.9 132.05C24.3333 132.05 23.8333 132.15 23.4 132.35C22.9667 132.533 22.625 132.8 22.375 133.15C22.1417 133.483 22.025 133.883 22.025 134.35C22.025 134.867 22.1917 135.325 22.525 135.725C22.8583 136.108 23.3667 136.408 24.05 136.625L27.475 137.7C28.9583 138.183 30.0667 138.85 30.8 139.7C31.55 140.55 31.925 141.6 31.925 142.85C31.925 143.917 31.65 144.858 31.1 145.675C30.55 146.492 29.7917 147.133 28.825 147.6C27.8583 148.067 26.7333 148.3 25.45 148.3ZM24.25 150.5V126.875H26.375V150.5H24.25ZM47.0799 148V143.9H38.5299V141.05L46.8799 129.375H50.4299V141.05H53.1549V143.9H50.4299V148H47.0799ZM41.0299 142.275L40.4299 141.05H47.0799V132.05L47.9549 132.325L41.0299 142.275ZM56.5623 151.9V150.275C57.1123 150.142 57.554 149.883 57.8873 149.5C58.2373 149.133 58.454 148.633 58.5373 148H57.0623V144.5H60.3623V146.65C60.3623 148.117 60.0373 149.292 59.3873 150.175C58.754 151.058 57.8123 151.633 56.5623 151.9ZM70.3479 148.3C69.3645 148.3 68.4229 148.117 67.5229 147.75C66.6395 147.383 65.8729 146.867 65.2229 146.2C64.5895 145.517 64.1562 144.708 63.9229 143.775L66.8729 142.725C67.1562 143.575 67.6145 144.208 68.2479 144.625C68.8812 145.025 69.5812 145.225 70.3479 145.225C70.9812 145.225 71.5395 145.092 72.0229 144.825C72.5229 144.542 72.9062 144.158 73.1729 143.675C73.4395 143.175 73.5729 142.6 73.5729 141.95C73.5729 141.3 73.4312 140.733 73.1479 140.25C72.8812 139.767 72.5062 139.392 72.0229 139.125C71.5395 138.842 70.9812 138.7 70.3479 138.7C69.6979 138.7 69.1062 138.842 68.5729 139.125C68.0562 139.408 67.6812 139.817 67.4479 140.35L64.6729 139.725L66.1479 129.375H76.2979V132.25H67.4979L68.7729 130.775L67.7229 138.575L66.7479 137.775C67.2145 137.092 67.7812 136.592 68.4479 136.275C69.1312 135.958 69.9562 135.8 70.9229 135.8C72.1562 135.8 73.2229 136.067 74.1229 136.6C75.0395 137.133 75.7479 137.858 76.2479 138.775C76.7479 139.692 76.9979 140.75 76.9979 141.95C76.9979 143.15 76.7062 144.233 76.1229 145.2C75.5395 146.167 74.7479 146.925 73.7479 147.475C72.7479 148.025 71.6145 148.3 70.3479 148.3ZM87.7537 148V143.9H79.2037V141.05L87.5537 129.375H91.1037V141.05H93.8287V143.9H91.1037V148H87.7537ZM81.7037 142.275L81.1037 141.05H87.7537V132.05L88.6287 132.325L81.7037 142.275ZM102.211 148.3C100.944 148.3 99.8195 148.033 98.8361 147.5C97.8695 146.95 97.1111 146.217 96.5611 145.3C96.0111 144.367 95.7361 143.308 95.7361 142.125C95.7361 141.525 95.7945 140.925 95.9111 140.325C96.0445 139.725 96.2778 139.083 96.6111 138.4C96.9611 137.717 97.4611 136.958 98.1111 136.125L103.311 129.375H107.361L101.036 137.5L100.486 136.9C100.719 136.717 100.961 136.575 101.211 136.475C101.461 136.358 101.711 136.275 101.961 136.225C102.228 136.175 102.503 136.15 102.786 136.15C103.919 136.15 104.928 136.408 105.811 136.925C106.694 137.442 107.386 138.15 107.886 139.05C108.403 139.933 108.661 140.933 108.661 142.05C108.661 143.25 108.386 144.325 107.836 145.275C107.286 146.208 106.519 146.95 105.536 147.5C104.569 148.033 103.461 148.3 102.211 148.3ZM102.211 145.225C102.778 145.225 103.286 145.1 103.736 144.85C104.203 144.583 104.569 144.208 104.836 143.725C105.119 143.242 105.261 142.7 105.261 142.1C105.261 141.467 105.119 140.925 104.836 140.475C104.569 140.008 104.211 139.642 103.761 139.375C103.311 139.108 102.794 138.975 102.211 138.975C101.644 138.975 101.128 139.108 100.661 139.375C100.194 139.642 99.8195 140.008 99.5361 140.475C99.2695 140.925 99.1361 141.467 99.1361 142.1C99.1361 142.7 99.2695 143.242 99.5361 143.725C99.8195 144.208 100.194 144.583 100.661 144.85C101.128 145.1 101.644 145.225 102.211 145.225ZM112.275 151.9V150.275C112.825 150.142 113.267 149.883 113.6 149.5C113.95 149.133 114.167 148.633 114.25 148H112.775V144.5H116.075V146.65C116.075 148.117 115.75 149.292 115.1 150.175C114.467 151.058 113.525 151.633 112.275 151.9ZM126.536 148.3C125.186 148.3 124.011 148.05 123.011 147.55C122.027 147.033 121.261 146.342 120.711 145.475C120.177 144.608 119.911 143.658 119.911 142.625C119.911 141.408 120.236 140.383 120.886 139.55C121.536 138.7 122.477 138.075 123.711 137.675L123.511 138.5C122.627 138.217 121.927 137.667 121.411 136.85C120.911 136.033 120.661 135.133 120.661 134.15C120.661 133.167 120.911 132.292 121.411 131.525C121.911 130.758 122.602 130.158 123.486 129.725C124.369 129.292 125.386 129.075 126.536 129.075C127.669 129.075 128.669 129.292 129.536 129.725C130.419 130.158 131.111 130.758 131.611 131.525C132.127 132.292 132.386 133.167 132.386 134.15C132.386 135.15 132.127 136.058 131.611 136.875C131.111 137.675 130.419 138.225 129.536 138.525L129.361 137.65C130.594 138.083 131.536 138.725 132.186 139.575C132.836 140.408 133.161 141.433 133.161 142.65C133.161 143.683 132.886 144.633 132.336 145.5C131.802 146.35 131.036 147.033 130.036 147.55C129.052 148.05 127.886 148.3 126.536 148.3ZM126.536 145.425C127.186 145.425 127.752 145.308 128.236 145.075C128.719 144.825 129.094 144.483 129.361 144.05C129.627 143.6 129.761 143.092 129.761 142.525C129.761 141.942 129.627 141.442 129.361 141.025C129.094 140.592 128.719 140.258 128.236 140.025C127.752 139.775 127.186 139.65 126.536 139.65C125.886 139.65 125.319 139.775 124.836 140.025C124.369 140.258 124.002 140.592 123.736 141.025C123.469 141.442 123.336 141.942 123.336 142.525C123.336 143.092 123.469 143.6 123.736 144.05C124.002 144.483 124.369 144.825 124.836 145.075C125.319 145.308 125.886 145.425 126.536 145.425ZM126.536 136.775C127.019 136.775 127.444 136.667 127.811 136.45C128.177 136.233 128.461 135.95 128.661 135.6C128.877 135.233 128.986 134.817 128.986 134.35C128.986 133.883 128.877 133.475 128.661 133.125C128.461 132.758 128.177 132.475 127.811 132.275C127.444 132.058 127.019 131.95 126.536 131.95C126.052 131.95 125.619 132.058 125.236 132.275C124.869 132.475 124.577 132.758 124.361 133.125C124.161 133.475 124.061 133.883 124.061 134.35C124.061 134.817 124.161 135.233 124.361 135.6C124.577 135.95 124.869 136.233 125.236 136.45C125.619 136.667 126.052 136.775 126.536 136.775ZM136.232 148L143.982 132.25H135.207V129.375H147.557V132.25L139.982 148H136.232ZM154.701 148.3C153.435 148.3 152.31 148.033 151.326 147.5C150.36 146.95 149.601 146.217 149.051 145.3C148.501 144.367 148.226 143.308 148.226 142.125C148.226 141.525 148.285 140.925 148.401 140.325C148.535 139.725 148.768 139.083 149.101 138.4C149.451 137.717 149.951 136.958 150.601 136.125L155.801 129.375H159.851L153.526 137.5L152.976 136.9C153.21 136.717 153.451 136.575 153.701 136.475C153.951 136.358 154.201 136.275 154.451 136.225C154.718 136.175 154.993 136.15 155.276 136.15C156.41 136.15 157.418 136.408 158.301 136.925C159.185 137.442 159.876 138.15 160.376 139.05C160.893 139.933 161.151 140.933 161.151 142.05C161.151 143.25 160.876 144.325 160.326 145.275C159.776 146.208 159.01 146.95 158.026 147.5C157.06 148.033 155.951 148.3 154.701 148.3ZM154.701 145.225C155.268 145.225 155.776 145.1 156.226 144.85C156.693 144.583 157.06 144.208 157.326 143.725C157.61 143.242 157.751 142.7 157.751 142.1C157.751 141.467 157.61 140.925 157.326 140.475C157.06 140.008 156.701 139.642 156.251 139.375C155.801 139.108 155.285 138.975 154.701 138.975C154.135 138.975 153.618 139.108 153.151 139.375C152.685 139.642 152.31 140.008 152.026 140.475C151.76 140.925 151.626 141.467 151.626 142.1C151.626 142.7 151.76 143.242 152.026 143.725C152.31 144.208 152.685 144.583 153.151 144.85C153.618 145.1 154.135 145.225 154.701 145.225ZM164.765 148V145.25H166.765V148H164.765ZM178.519 148.3C177.052 148.3 175.76 147.9 174.644 147.1C173.544 146.283 172.685 145.158 172.069 143.725C171.452 142.275 171.144 140.592 171.144 138.675C171.144 136.758 171.452 135.083 172.069 133.65C172.685 132.2 173.544 131.075 174.644 130.275C175.744 129.475 177.027 129.075 178.494 129.075C179.96 129.075 181.244 129.475 182.344 130.275C183.444 131.075 184.302 132.2 184.919 133.65C185.535 135.083 185.844 136.758 185.844 138.675C185.844 140.592 185.535 142.275 184.919 143.725C184.319 145.175 183.469 146.3 182.369 147.1C181.269 147.9 179.985 148.3 178.519 148.3ZM178.519 146.425C179.585 146.425 180.519 146.1 181.319 145.45C182.119 144.8 182.744 143.9 183.194 142.75C183.644 141.583 183.869 140.225 183.869 138.675C183.869 137.125 183.644 135.775 183.194 134.625C182.744 133.458 182.119 132.558 181.319 131.925C180.519 131.275 179.577 130.95 178.494 130.95C177.427 130.95 176.494 131.275 175.694 131.925C174.894 132.558 174.269 133.458 173.819 134.625C173.369 135.775 173.144 137.125 173.144 138.675C173.144 140.208 173.369 141.558 173.819 142.725C174.269 143.892 174.894 144.8 175.694 145.45C176.51 146.1 177.452 146.425 178.519 146.425ZM196.829 148.3C195.363 148.3 194.071 147.9 192.954 147.1C191.854 146.283 190.996 145.158 190.379 143.725C189.763 142.275 189.454 140.592 189.454 138.675C189.454 136.758 189.763 135.083 190.379 133.65C190.996 132.2 191.854 131.075 192.954 130.275C194.054 129.475 195.338 129.075 196.804 129.075C198.271 129.075 199.554 129.475 200.654 130.275C201.754 131.075 202.613 132.2 203.229 133.65C203.846 135.083 204.154 136.758 204.154 138.675C204.154 140.592 203.846 142.275 203.229 143.725C202.629 145.175 201.779 146.3 200.679 147.1C199.579 147.9 198.296 148.3 196.829 148.3ZM196.829 146.425C197.896 146.425 198.829 146.1 199.629 145.45C200.429 144.8 201.054 143.9 201.504 142.75C201.954 141.583 202.179 140.225 202.179 138.675C202.179 137.125 201.954 135.775 201.504 134.625C201.054 133.458 200.429 132.558 199.629 131.925C198.829 131.275 197.888 130.95 196.804 130.95C195.738 130.95 194.804 131.275 194.004 131.925C193.204 132.558 192.579 133.458 192.129 134.625C191.679 135.775 191.454 137.125 191.454 138.675C191.454 140.208 191.679 141.558 192.129 142.725C192.579 143.892 193.204 144.8 194.004 145.45C194.821 146.1 195.763 146.425 196.829 146.425Z" fill="white"/>
<path d="M18.232 174V163.57H21.662C22.698 163.57 23.5987 163.785 24.364 164.214C25.1293 164.634 25.722 165.236 26.142 166.02C26.562 166.795 26.772 167.714 26.772 168.778C26.772 169.833 26.562 170.752 26.142 171.536C25.722 172.32 25.1293 172.927 24.364 173.356C23.5987 173.785 22.698 174 21.662 174H18.232ZM19.352 172.95H21.662C22.4647 172.95 23.16 172.782 23.748 172.446C24.336 172.101 24.7887 171.615 25.106 170.99C25.4327 170.365 25.596 169.627 25.596 168.778C25.596 167.929 25.4327 167.196 25.106 166.58C24.7793 165.955 24.322 165.474 23.734 165.138C23.146 164.793 22.4553 164.62 21.662 164.62H19.352V172.95ZM31.9826 174.168C31.2733 174.168 30.6293 174 30.0506 173.664C29.472 173.319 29.01 172.852 28.6646 172.264C28.3286 171.667 28.1606 170.99 28.1606 170.234C28.1606 169.487 28.3286 168.82 28.6646 168.232C29.0006 167.644 29.4533 167.182 30.0226 166.846C30.6013 166.501 31.2546 166.328 31.9826 166.328C32.7106 166.328 33.3593 166.496 33.9286 166.832C34.5073 167.168 34.96 167.63 35.2866 168.218C35.6226 168.806 35.7906 169.478 35.7906 170.234C35.7906 170.999 35.618 171.681 35.2726 172.278C34.9273 172.866 34.4653 173.328 33.8866 173.664C33.3173 174 32.6826 174.168 31.9826 174.168ZM31.9826 173.118C32.4866 173.118 32.9393 172.992 33.3406 172.74C33.7513 172.488 34.0733 172.143 34.3066 171.704C34.5493 171.265 34.6706 170.775 34.6706 170.234C34.6706 169.693 34.5493 169.207 34.3066 168.778C34.0733 168.349 33.7513 168.008 33.3406 167.756C32.9393 167.504 32.4866 167.378 31.9826 167.378C31.4786 167.378 31.0213 167.504 30.6106 167.756C30.2093 168.008 29.8873 168.349 29.6446 168.778C29.402 169.207 29.2806 169.693 29.2806 170.234C29.2806 170.775 29.402 171.265 29.6446 171.704C29.8873 172.143 30.2093 172.488 30.6106 172.74C31.0213 172.992 31.4786 173.118 31.9826 173.118ZM37.6425 174V163.402H38.6925V174H37.6425ZM40.8417 174V163.402H41.8917V174H40.8417ZM46.2109 174.168C45.7349 174.168 45.3102 174.079 44.9369 173.902C44.5636 173.715 44.2696 173.463 44.0549 173.146C43.8402 172.829 43.7329 172.465 43.7329 172.054C43.7329 171.662 43.8169 171.307 43.9849 170.99C44.1529 170.663 44.4142 170.388 44.7689 170.164C45.1236 169.94 45.5762 169.781 46.1269 169.688L49.0669 169.198V170.15L46.3789 170.598C45.8376 170.691 45.4456 170.864 45.2029 171.116C44.9696 171.368 44.8529 171.667 44.8529 172.012C44.8529 172.348 44.9836 172.633 45.2449 172.866C45.5156 173.099 45.8609 173.216 46.2809 173.216C46.7942 173.216 47.2422 173.109 47.6249 172.894C48.0076 172.67 48.3062 172.371 48.5209 171.998C48.7356 171.625 48.8429 171.209 48.8429 170.752V168.848C48.8429 168.4 48.6796 168.036 48.3529 167.756C48.0262 167.476 47.6016 167.336 47.0789 167.336C46.6216 167.336 46.2202 167.453 45.8749 167.686C45.5296 167.91 45.2729 168.204 45.1049 168.568L44.1529 168.05C44.2929 167.733 44.5122 167.443 44.8109 167.182C45.1189 166.921 45.4689 166.715 45.8609 166.566C46.2529 166.407 46.6589 166.328 47.0789 166.328C47.6296 166.328 48.1149 166.435 48.5349 166.65C48.9642 166.865 49.2956 167.163 49.5289 167.546C49.7716 167.919 49.8929 168.353 49.8929 168.848V174H48.8429V172.502L48.9969 172.656C48.8662 172.936 48.6609 173.193 48.3809 173.426C48.1102 173.65 47.7882 173.832 47.4149 173.972C47.0509 174.103 46.6496 174.168 46.2109 174.168ZM52.0526 174V166.496H53.1026V167.728L52.9626 167.546C53.1399 167.191 53.4059 166.911 53.7606 166.706C54.1246 166.501 54.5633 166.398 55.0766 166.398H55.5526V167.448H54.8946C54.3533 167.448 53.9193 167.616 53.5926 167.952C53.2659 168.288 53.1026 168.764 53.1026 169.38V174H52.0526ZM59.3871 174.168C58.6684 174.168 58.0384 173.986 57.4971 173.622C56.9557 173.258 56.5637 172.763 56.3211 172.138L57.2031 171.718C57.4177 172.175 57.7164 172.539 58.0991 172.81C58.4911 173.081 58.9204 173.216 59.3871 173.216C59.8351 173.216 60.2131 173.109 60.5211 172.894C60.8291 172.67 60.9831 172.381 60.9831 172.026C60.9831 171.765 60.9084 171.559 60.7591 171.41C60.6097 171.251 60.4371 171.13 60.2411 171.046C60.0451 170.962 59.8724 170.901 59.7231 170.864L58.6451 170.556C57.9544 170.36 57.4551 170.085 57.1471 169.73C56.8391 169.375 56.6851 168.965 56.6851 168.498C56.6851 168.059 56.7971 167.677 57.0211 167.35C57.2451 167.023 57.5484 166.771 57.9311 166.594C58.3137 166.417 58.7384 166.328 59.2051 166.328C59.8397 166.328 60.4137 166.496 60.9271 166.832C61.4497 167.159 61.8184 167.616 62.0331 168.204L61.1371 168.624C60.9504 168.204 60.6797 167.877 60.3251 167.644C59.9797 167.401 59.5924 167.28 59.1631 167.28C58.7431 167.28 58.4071 167.387 58.1551 167.602C57.9031 167.817 57.7771 168.087 57.7771 168.414C57.7771 168.666 57.8424 168.867 57.9731 169.016C58.1037 169.165 58.2531 169.277 58.4211 169.352C58.5984 169.427 58.7524 169.483 58.8831 169.52L60.1291 169.884C60.7357 170.061 61.2071 170.337 61.5431 170.71C61.8884 171.083 62.0611 171.522 62.0611 172.026C62.0611 172.437 61.9444 172.805 61.7111 173.132C61.4871 173.459 61.1744 173.715 60.7731 173.902C60.3717 174.079 59.9097 174.168 59.3871 174.168Z" fill="white"/>
<path opacity="0.2" d="M210 179L210.742 185.258L217 186L210.742 186.742L210 193L209.258 186.742L203 186L209.258 185.258L210 179Z" fill="white"/>
</svg>
