<svg width="29" height="29" viewBox="0 0 29 29" fill="none" xmlns="http://www.w3.org/2000/svg">
<path d="M26.1721 12.615L24.9879 17.6658C23.9729 22.0279 21.9671 23.7921 18.1971 23.4296C17.5929 23.3812 16.9404 23.2725 16.2396 23.1033L14.2096 22.62C9.17082 21.4237 7.61207 18.9346 8.79623 13.8837L9.9804 8.82082C10.2221 7.79374 10.5121 6.89957 10.8746 6.16249C12.2883 3.23832 14.6929 2.45291 18.7287 3.40749L20.7466 3.87874C25.8096 5.06291 27.3562 7.56416 26.1721 12.615Z" stroke="#52525B" stroke-width="1.5" stroke-linecap="round" stroke-linejoin="round"/>
<path d="M18.1982 23.4296C17.449 23.9371 16.5065 24.36 15.3586 24.7346L13.4494 25.3629C8.65232 26.9096 6.12691 25.6166 4.56816 20.8196L3.02149 16.0466C1.47482 11.2496 2.75566 8.71206 7.55274 7.16539L9.46191 6.53706C9.95732 6.37998 10.4286 6.24706 10.8757 6.16248C10.5132 6.89956 10.2232 7.79373 9.98149 8.82081L8.79732 13.8837C7.61316 18.9346 9.17191 21.4237 14.2107 22.62L16.2407 23.1033C16.9415 23.2725 17.594 23.3812 18.1982 23.4296Z" stroke="#52525B" stroke-width="1.5" stroke-linecap="round" stroke-linejoin="round"/>
<path d="M15.2734 10.3071L21.1339 11.7934" stroke="#52525B" stroke-width="1.5" stroke-linecap="round" stroke-linejoin="round"/>
<path d="M14.0898 14.9833L17.594 15.8774" stroke="#52525B" stroke-width="1.5" stroke-linecap="round" stroke-linejoin="round"/>
</svg>
