<svg width="137" height="36" viewBox="0 0 137 36" fill="none" xmlns="http://www.w3.org/2000/svg">
<path d="M118.064 36C115.442 36 113.008 35.5475 110.761 34.6424C108.514 33.7373 106.548 32.4733 104.862 30.8505C103.208 29.1964 101.913 27.277 100.977 25.0923C100.04 22.9077 99.5723 20.5358 99.5723 17.9766C99.5723 15.4174 100.025 13.0455 100.93 10.8609C101.866 8.6762 103.161 6.77243 104.815 5.14954C106.501 3.52666 108.467 2.26268 110.714 1.35761C112.961 0.452535 115.411 0 118.064 0C120.717 0 123.167 0.452535 125.414 1.35761C127.661 2.26268 129.611 3.52666 131.265 5.14954C132.951 6.77243 134.246 8.6762 135.151 10.8609C136.087 13.0455 136.555 15.4174 136.555 17.9766C136.555 20.5358 136.087 22.9077 135.151 25.0923C134.215 27.277 132.904 29.1964 131.219 30.8505C129.564 32.4733 127.614 33.7373 125.367 34.6424C123.12 35.5475 120.685 36 118.064 36ZM118.064 29.446C119.655 29.446 121.122 29.1651 122.464 28.6034C123.838 28.0416 125.039 27.2614 126.069 26.2627C127.099 25.2328 127.895 24.0156 128.457 22.6112C129.018 21.2068 129.299 19.6619 129.299 17.9766C129.299 16.2913 129.018 14.762 128.457 13.3888C127.895 11.9844 127.099 10.7672 126.069 9.73732C125.039 8.70741 123.838 7.92718 122.464 7.39662C121.122 6.83485 119.655 6.55396 118.064 6.55396C116.472 6.55396 114.99 6.83485 113.616 7.39662C112.274 7.92718 111.089 8.70741 110.059 9.73732C109.029 10.7672 108.233 11.9844 107.671 13.3888C107.109 14.762 106.828 16.2913 106.828 17.9766C106.828 19.6619 107.109 21.2068 107.671 22.6112C108.233 24.0156 109.029 25.2328 110.059 26.2627C111.089 27.2614 112.274 28.0416 113.616 28.6034C114.99 29.1651 116.472 29.446 118.064 29.446Z" fill="black"/>
<path d="M80.6741 36C78.1774 36 75.8523 35.5475 73.6988 34.6424C71.5454 33.7373 69.6572 32.4733 68.0343 30.8505C66.4114 29.2276 65.1474 27.3238 64.2424 25.1391C63.3373 22.9545 62.8848 20.567 62.8848 17.9766C62.8848 15.3862 63.3217 12.9987 64.1956 10.814C65.0694 8.59818 66.3022 6.69441 67.8939 5.10273C69.4855 3.47984 71.3425 2.23147 73.4647 1.35761C75.6182 0.452535 77.9589 0 80.4868 0C83.0148 0 85.2775 0.421326 87.2749 1.26398C89.3035 2.10663 91.02 3.23017 92.4244 4.63459C93.8289 6.03901 94.8275 7.59948 95.4205 9.31599L89.007 12.4057C88.414 10.7204 87.3685 9.3316 85.8705 8.23927C84.4036 7.11573 82.6091 6.55396 80.4868 6.55396C78.427 6.55396 76.6169 7.03771 75.0564 8.0052C73.496 8.97269 72.2788 10.3147 71.4049 12.0312C70.5623 13.7165 70.1409 15.6983 70.1409 17.9766C70.1409 20.2549 70.5935 22.2523 71.4985 23.9688C72.4036 25.6853 73.6364 27.0273 75.1969 27.9948C76.7885 28.9623 78.6143 29.446 80.6741 29.446C82.2658 29.446 83.7482 29.1495 85.1214 28.5566C86.5259 27.9324 87.6494 27.0429 88.4921 25.8882C89.3659 24.7334 89.8028 23.3446 89.8028 21.7217V18.8192L93.1266 21.6281H80.4868V15.5423H97.059V19.2406C97.059 22.0806 96.5909 24.5618 95.6546 26.684C94.7183 28.775 93.4543 30.5228 91.8627 31.9272C90.3022 33.3004 88.5389 34.3303 86.5727 35.0169C84.6377 35.6723 82.6715 36 80.6741 36Z" fill="black"/>
<path d="M41.2122 36C38.5907 36 36.1563 35.5475 33.9093 34.6424C31.6622 33.7373 29.696 32.4733 28.0107 30.8505C26.3566 29.1964 25.0614 27.277 24.1251 25.0923C23.1888 22.9077 22.7207 20.5358 22.7207 17.9766C22.7207 15.4174 23.1732 13.0455 24.0783 10.8609C25.0146 8.6762 26.3098 6.77243 27.9639 5.14954C29.6492 3.52666 31.6154 2.26268 33.8624 1.35761C36.1095 0.452535 38.5595 0 41.2122 0C43.865 0 46.315 0.452535 48.5621 1.35761C50.8091 2.26268 52.7597 3.52666 54.4138 5.14954C56.0991 6.77243 57.3943 8.6762 58.2994 10.8609C59.2357 13.0455 59.7038 15.4174 59.7038 17.9766C59.7038 20.5358 59.2357 22.9077 58.2994 25.0923C57.3631 27.277 56.0523 29.1964 54.367 30.8505C52.7129 32.4733 50.7623 33.7373 48.5152 34.6424C46.2682 35.5475 43.8338 36 41.2122 36ZM41.2122 29.446C42.8039 29.446 44.2708 29.1651 45.6128 28.6034C46.986 28.0416 48.1875 27.2614 49.2175 26.2627C50.2474 25.2328 51.0432 24.0156 51.605 22.6112C52.1667 21.2068 52.4476 19.6619 52.4476 17.9766C52.4476 16.2913 52.1667 14.762 51.605 13.3888C51.0432 11.9844 50.2474 10.7672 49.2175 9.73732C48.1875 8.70741 46.986 7.92718 45.6128 7.39662C44.2708 6.83485 42.8039 6.55396 41.2122 6.55396C39.6206 6.55396 38.1381 6.83485 36.7649 7.39662C35.4229 7.92718 34.237 8.70741 33.207 9.73732C32.1771 10.7672 31.3813 11.9844 30.8195 13.3888C30.2578 14.762 29.9769 16.2913 29.9769 17.9766C29.9769 19.6619 30.2578 21.2068 30.8195 22.6112C31.3813 24.0156 32.1771 25.2328 33.207 26.2627C34.237 27.2614 35.4229 28.0416 36.7649 28.6034C38.1381 29.1651 39.6206 29.446 41.2122 29.446Z" fill="black"/>
<path d="M0 35.438V0.561523H7.25618V29.1181H22.0026V35.438H0Z" fill="black"/>
</svg>
