<svg width="29" height="29" viewBox="0 0 29 29" fill="none" xmlns="http://www.w3.org/2000/svg">
<path d="M8.7722 2.41663H20.2151C21.0005 2.41663 21.7014 2.44083 22.3297 2.52541C25.6768 2.89999 26.583 4.4708 26.583 8.77247V16.4091C26.583 20.7108 25.6768 22.2816 22.3297 22.6562C21.7014 22.7408 21.0126 22.765 20.2151 22.765H8.7722C7.98678 22.765 7.28595 22.7408 6.65762 22.6562C3.31053 22.2816 2.4043 20.7108 2.4043 16.4091V8.77247C2.4043 4.4708 3.31053 2.89999 6.65762 2.52541C7.28595 2.44083 7.98678 2.41663 8.7722 2.41663Z" stroke="#52525B" stroke-width="1.5" stroke-linecap="round" stroke-linejoin="round"/>
<path d="M16.4082 10.0533H20.8549" stroke="#52525B" stroke-width="1.5" stroke-linecap="round" stroke-linejoin="round"/>
<path d="M8.14453 17.0496H8.16868H20.8683" stroke="#52525B" stroke-width="1.5" stroke-linecap="round" stroke-linejoin="round"/>
<path d="M8.45898 26.5834H20.5423" stroke="#52525B" stroke-width="1.5" stroke-linecap="round" stroke-linejoin="round"/>
<path d="M8.69323 10.0292H8.70409" stroke="#52525B" stroke-width="1.5" stroke-linecap="round" stroke-linejoin="round"/>
<path d="M12.6815 10.0292H12.6924" stroke="#52525B" stroke-width="1.5" stroke-linecap="round" stroke-linejoin="round"/>
</svg>
