<svg width="59" height="102" viewBox="0 0 59 102" fill="none" xmlns="http://www.w3.org/2000/svg">
<path d="M4.57195 0.603516C3.56217 0.603516 2.57799 0.959072 1.88252 1.65312C1.18563 2.34432 0.830078 3.33561 0.830078 4.34254V97.7143C0.830078 98.7212 1.18563 99.7054 1.88252 100.402C2.57799 101.099 3.56217 101.455 4.57195 101.455H54.5204C55.5273 101.455 56.52 101.099 57.2084 100.402C57.9067 99.7054 58.2608 98.7212 58.2608 97.7143V4.34254C58.2608 3.33561 57.9053 2.34432 57.2084 1.65312C56.52 0.95765 55.5273 0.603516 54.5204 0.603516H46.8091C46.2018 0.603516 45.6614 0.966183 45.4324 1.52796L44.2832 4.34254C43.912 5.26272 43.6176 5.71356 43.1483 6.01792C42.6903 6.32938 41.8754 6.58823 40.2754 6.58823H18.8141C17.2155 6.58823 16.4006 6.32796 15.9412 6.01792C15.4747 5.71498 15.1775 5.26414 14.8077 4.34254L13.6599 1.52796C13.4352 0.971872 12.8948 0.603516 12.296 0.603516H4.57195Z" fill="#9EDCFF"/>
</svg>
