<svg width="71" height="114" viewBox="0 0 71 114" fill="none" xmlns="http://www.w3.org/2000/svg">
<path d="M10.3472 3.41018H60.7422C64.3802 3.41018 67.2517 6.29729 67.2517 9.92822V104.128C67.2517 107.757 64.3788 110.647 60.7422 110.647H10.3472C6.71197 110.647 3.83624 107.757 3.83624 104.128V9.92822C3.83766 6.29871 6.71197 3.41018 10.3472 3.41018ZM10.3472 0.461914C5.12761 0.461914 0.880859 4.70867 0.880859 9.92822V104.128C0.880859 109.35 5.12761 113.594 10.3472 113.594H60.7422C65.9646 113.594 70.2156 109.35 70.2156 104.128V9.92822C70.2156 4.70867 65.9646 0.461914 60.7422 0.461914H10.3472Z" fill="#CBD5E1"/>
<path d="M30.7794 6.60352C29.9559 6.60352 29.2988 7.26058 29.2988 8.08405C29.2988 8.90609 29.9559 9.566 30.7794 9.566H41.0606C41.8755 9.566 42.5426 8.90609 42.5426 8.08405C42.5426 7.26058 41.8755 6.60352 41.0606 6.60352H30.7794Z" fill="#CBD5E1"/>
</svg>
