<svg width="29" height="29" viewBox="0 0 29 29" fill="none" xmlns="http://www.w3.org/2000/svg">
<g clip-path="url(#clip0_0_2969)">
<path d="M10.8763 6.04199H8.45964C7.8187 6.04199 7.20401 6.2966 6.75079 6.74982C6.29758 7.20303 6.04297 7.81772 6.04297 8.45866V22.9587C6.04297 23.5996 6.29758 24.2143 6.75079 24.6675C7.20401 25.1207 7.8187 25.3753 8.45964 25.3753H20.543C21.1839 25.3753 21.7986 25.1207 22.2518 24.6675C22.705 24.2143 22.9596 23.5996 22.9596 22.9587V8.45866C22.9596 7.81772 22.705 7.20303 22.2518 6.74982C21.7986 6.2966 21.1839 6.04199 20.543 6.04199H18.1263" stroke="#52525B" stroke-width="1.5" stroke-linecap="round" stroke-linejoin="round"/>
<path d="M10.875 6.04167C10.875 5.40073 11.1296 4.78604 11.5828 4.33283C12.036 3.87961 12.6507 3.625 13.2917 3.625H15.7083C16.3493 3.625 16.964 3.87961 17.4172 4.33283C17.8704 4.78604 18.125 5.40073 18.125 6.04167C18.125 6.68261 17.8704 7.2973 17.4172 7.75051C16.964 8.20372 16.3493 8.45833 15.7083 8.45833H13.2917C12.6507 8.45833 12.036 8.20372 11.5828 7.75051C11.1296 7.2973 10.875 6.68261 10.875 6.04167Z" stroke="#52525B" stroke-width="1.5" stroke-linecap="round" stroke-linejoin="round"/>
<path d="M10.875 14.5H10.8871" stroke="#52525B" stroke-width="1.5" stroke-linecap="round" stroke-linejoin="round"/>
<path d="M15.707 14.5H18.1237" stroke="#52525B" stroke-width="1.5" stroke-linecap="round" stroke-linejoin="round"/>
<path d="M10.875 19.333H10.8871" stroke="#52525B" stroke-width="1.5" stroke-linecap="round" stroke-linejoin="round"/>
<path d="M15.707 19.333H18.1237" stroke="#52525B" stroke-width="1.5" stroke-linecap="round" stroke-linejoin="round"/>
</g>
<defs>
<clipPath id="clip0_0_2969">
<rect width="29" height="29" fill="white"/>
</clipPath>
</defs>
</svg>
