<svg width="13" height="13" viewBox="0 0 13 13" fill="none" xmlns="http://www.w3.org/2000/svg">
<path opacity="0.4" d="M11.5101 8.91013L9.94507 5.25013C9.66007 4.58013 9.23507 4.20013 8.75007 4.17513C8.27007 4.15013 7.80507 4.48513 7.45007 5.12513L6.50007 6.83013C6.30007 7.19013 6.01507 7.40513 5.70507 7.43013C5.39007 7.46013 5.07507 7.29513 4.82007 6.97013L4.71007 6.83013C4.35507 6.38513 3.91507 6.17013 3.46507 6.21513C3.01507 6.26013 2.63007 6.57013 2.37507 7.07513L1.51007 8.80013C1.20007 9.42513 1.23007 10.1501 1.59507 10.7401C1.96007 11.3301 2.59507 11.6851 3.29007 11.6851H9.67007C10.3401 11.6851 10.9651 11.3501 11.3351 10.7901C11.7151 10.2301 11.7751 9.52513 11.5101 8.91013Z" fill="#292D32"/>
<path d="M3.98492 4.68957C4.91828 4.68957 5.67492 3.93293 5.67492 2.99957C5.67492 2.06621 4.91828 1.30957 3.98492 1.30957C3.05156 1.30957 2.29492 2.06621 2.29492 2.99957C2.29492 3.93293 3.05156 4.68957 3.98492 4.68957Z" fill="#292D32"/>
</svg>
