<svg width="39" height="38" viewBox="0 0 39 38" fill="none" xmlns="http://www.w3.org/2000/svg">
<path d="M10.6326 21.0528C5.25019 22.747 3.10353 25.7879 3.48409 30.3705C3.9616 36.1204 10.7909 37.147 16.5196 37.147C23.6649 37.147 33.8955 35.7337 37.5446 27.4058C40.3491 21.0056 38.8029 9.61754 35.4421 9.61755C32.0814 9.61757 31.6576 13.3446 26.6116 16.394C20.3041 20.2058 17.3606 18.9352 10.6326 21.0528Z" fill="#BFDBFE"/>
<path d="M29.685 22.395C26.595 25.47 22.17 26.415 18.285 25.2L11.22 32.25C10.71 32.775 9.70498 33.09 8.98498 32.985L5.71498 32.535C4.63498 32.385 3.62998 31.365 3.46498 30.285L3.01498 27.015C2.90998 26.295 3.25498 25.29 3.74998 24.78L10.8 17.73C9.59998 13.83 10.53 9.40498 13.62 6.32998C18.045 1.90498 25.23 1.90498 29.67 6.32998C34.11 10.755 34.11 17.97 29.685 22.395Z" stroke="#292D32" stroke-width="2.25" stroke-miterlimit="10" stroke-linecap="round" stroke-linejoin="round"/>
<path d="M10.3359 26.235L13.7859 29.685" stroke="#292D32" stroke-width="2.25" stroke-miterlimit="10" stroke-linecap="round" stroke-linejoin="round"/>
<path d="M21.75 16.5C22.9926 16.5 24 15.4926 24 14.25C24 13.0074 22.9926 12 21.75 12C20.5074 12 19.5 13.0074 19.5 14.25C19.5 15.4926 20.5074 16.5 21.75 16.5Z" stroke="#292D32" stroke-width="2.25" stroke-linecap="round" stroke-linejoin="round"/>
</svg>
