<svg width="39" height="38" viewBox="0 0 39 38" fill="none" xmlns="http://www.w3.org/2000/svg">
<path d="M7.19119 20.0528C1.80879 21.747 -0.33788 24.7879 0.0426826 29.3705C0.520192 35.1204 7.34945 36.147 13.0782 36.147C20.2235 36.147 30.4541 34.7337 34.1032 26.4058C36.9077 20.0056 35.3615 8.61754 32.0007 8.61755C28.64 8.61757 28.2162 12.3446 23.1702 15.394C16.8627 19.2058 13.9192 17.9352 7.19119 20.0528Z" fill="#BFDBFE"/>
<path d="M20.2521 17.2108C20.0937 17.195 19.9037 17.195 19.7296 17.2108C15.9612 17.0841 12.9688 13.9966 12.9688 10.1966C12.9687 6.31746 16.1037 3.16663 19.9987 3.16663C23.8779 3.16663 27.0288 6.31746 27.0288 10.1966C27.0129 13.9966 24.0204 17.0841 20.2521 17.2108Z" stroke="#292D32" stroke-width="2" stroke-linecap="round" stroke-linejoin="round"/>
<path d="M12.3386 23.0534C8.50693 25.6184 8.50693 29.7984 12.3386 32.3475C16.6928 35.2609 23.8336 35.2609 28.1878 32.3475C32.0194 29.7825 32.0194 25.6025 28.1878 23.0534C23.8494 20.1559 16.7086 20.1559 12.3386 23.0534Z" stroke="#292D32" stroke-width="2" stroke-linecap="round" stroke-linejoin="round"/>
</svg>
