<svg width="37" height="41" viewBox="0 0 37 41" fill="none" xmlns="http://www.w3.org/2000/svg">
<path d="M8.19119 24.4353C2.80879 26.1294 0.66212 29.1704 1.04268 33.7529C1.52019 39.5029 8.34945 40.5294 14.0782 40.5294C21.2235 40.5294 31.4541 39.1162 35.1032 30.7882C37.9077 24.388 36.3615 13 33.0007 13C29.64 13 29.2162 16.7271 24.1702 19.7765C17.8627 23.5882 14.9192 22.3176 8.19119 24.4353Z" fill="#BFDBFE"/>
<path d="M18.9914 3.7772L18.9464 3.8822L14.5964 13.9772H10.3214C9.30141 13.9772 8.32641 14.1872 7.44141 14.5622L10.0664 8.2922L10.1264 8.1422L10.2314 7.9022C10.2614 7.8122 10.2914 7.7222 10.3364 7.6472C12.3014 3.1022 14.5214 2.0672 18.9914 3.7772Z" stroke="#292D32" stroke-width="2.25" stroke-linecap="round" stroke-linejoin="round"/>
<path d="M27.0738 14.2773C26.3988 14.0673 25.6787 13.9773 24.9587 13.9773H14.5938L18.9437 3.88234L18.9887 3.77734C19.2137 3.85234 19.4237 3.95734 19.6487 4.04734L22.9637 5.44234C24.8087 6.20734 26.0987 7.00234 26.8787 7.96234C27.0287 8.14234 27.1487 8.30734 27.2537 8.50234C27.3887 8.71234 27.4938 8.92234 27.5538 9.14734C27.6138 9.28234 27.6588 9.41734 27.6888 9.53734C28.0938 10.7973 27.8538 12.3423 27.0738 14.2773Z" stroke="#292D32" stroke-width="2.25" stroke-linecap="round" stroke-linejoin="round"/>
<path d="M32.2806 21.2975V24.2225C32.2806 24.5225 32.2656 24.8225 32.2506 25.1225C31.9656 30.3575 29.0406 32.9975 23.4906 32.9975H11.7906C11.4306 32.9975 11.0706 32.9675 10.7256 32.9225C5.95562 32.6075 3.40562 30.0575 3.09062 25.2875C3.04562 24.9425 3.01562 24.5825 3.01562 24.2225V21.2975C3.01562 18.2825 4.84563 15.6875 7.45563 14.5625C8.35563 14.1875 9.31563 13.9775 10.3356 13.9775H24.9756C25.7106 13.9775 26.4306 14.0825 27.0906 14.2775C30.0756 15.1925 32.2806 17.9825 32.2806 21.2975Z" stroke="#292D32" stroke-width="2.25" stroke-linecap="round" stroke-linejoin="round"/>
<path d="M10.065 8.29211L7.44 14.5621C4.83 15.6871 3 18.2821 3 21.2971V16.9021C3 12.6421 6.03 9.08711 10.065 8.29211Z" stroke="#292D32" stroke-width="2.25" stroke-linecap="round" stroke-linejoin="round"/>
<path d="M32.2759 16.9015V21.2965C32.2759 17.9965 30.0859 15.1915 27.0859 14.2915C27.8659 12.3415 28.0909 10.8115 27.7159 9.53648C27.6859 9.40148 27.6409 9.26648 27.5809 9.14648C30.3709 10.5865 32.2759 13.5415 32.2759 16.9015Z" stroke="#292D32" stroke-width="2.25" stroke-linecap="round" stroke-linejoin="round"/>
</svg>
