<svg width="39" height="38" viewBox="0 0 39 38" fill="none" xmlns="http://www.w3.org/2000/svg">
<path d="M10.6326 21.0528C5.25019 22.747 3.10353 25.7879 3.48409 30.3705C3.9616 36.1204 10.7909 37.147 16.5196 37.147C23.6649 37.147 33.8955 35.7337 37.5446 27.4058C40.3491 21.0056 38.8029 9.61754 35.4421 9.61755C32.0814 9.61757 31.6576 13.3446 26.6116 16.394C20.3041 20.2058 17.3606 18.9352 10.6326 21.0528Z" fill="#BFDBFE"/>
<path d="M34.2966 16.5301L32.7449 23.1484C31.4149 28.8642 28.7866 31.1759 23.8466 30.7009C23.0549 30.6376 22.1999 30.4951 21.2816 30.2734L18.6216 29.6401C12.0191 28.0726 9.97659 24.8109 11.5283 18.1926L13.0799 11.5584C13.3966 10.2126 13.7766 9.04089 14.2516 8.07505C16.1041 4.24339 19.2549 3.21422 24.5433 4.46505L27.1874 5.08255C33.8216 6.63422 35.8483 9.91172 34.2966 16.5301Z" stroke="#292D32" stroke-width="1.5" stroke-linecap="round" stroke-linejoin="round"/>
<path d="M23.8451 30.7008C22.8634 31.3658 21.6284 31.92 20.1242 32.4108L17.6226 33.2341C11.3367 35.2608 8.02755 33.5666 5.98505 27.2808L3.95839 21.0266C1.93172 14.7408 3.61005 11.4158 9.89589 9.38912L12.3976 8.56578C13.0467 8.35995 13.6642 8.18578 14.2501 8.07495C13.7751 9.04078 13.3951 10.2125 13.0784 11.5583L11.5267 18.1925C9.97505 24.8108 12.0176 28.0724 18.6201 29.64L21.2801 30.2733C22.1984 30.495 23.0534 30.6375 23.8451 30.7008Z" stroke="#292D32" stroke-width="1.5" stroke-linecap="round" stroke-linejoin="round"/>
<path d="M20.0117 13.5059L27.6909 15.4534" stroke="#292D32" stroke-width="1.5" stroke-linecap="round" stroke-linejoin="round"/>
<path d="M18.4609 19.6333L23.0526 20.805" stroke="#292D32" stroke-width="1.5" stroke-linecap="round" stroke-linejoin="round"/>
</svg>
