<svg width="29" height="29" viewBox="0 0 29 29" fill="none" xmlns="http://www.w3.org/2000/svg">
<path d="M3.625 11.0079V17.98C3.625 20.5416 3.625 20.5416 6.04167 22.1729L12.6875 26.0154C13.6904 26.5954 15.3217 26.5954 16.3125 26.0154L22.9583 22.1729C25.375 20.5416 25.375 20.5416 25.375 17.9921V11.0079C25.375 8.45831 25.375 8.45831 22.9583 6.82706L16.3125 2.98456C15.3217 2.40456 13.6904 2.40456 12.6875 2.98456L6.04167 6.82706C3.625 8.45831 3.625 8.45831 3.625 11.0079Z" stroke="#52525B" stroke-width="1.5" stroke-linecap="round" stroke-linejoin="round"/>
<path d="M14.5 18.125C16.502 18.125 18.125 16.502 18.125 14.5C18.125 12.498 16.502 10.875 14.5 10.875C12.498 10.875 10.875 12.498 10.875 14.5C10.875 16.502 12.498 18.125 14.5 18.125Z" stroke="#52525B" stroke-width="1.5" stroke-linecap="round" stroke-linejoin="round"/>
</svg>
