<svg width="29" height="29" viewBox="0 0 29 29" fill="none" xmlns="http://www.w3.org/2000/svg">
<path d="M20.541 22.2697H15.7077L10.3306 25.8463C9.53308 26.378 8.45768 25.8101 8.45768 24.8434V22.2697C4.83268 22.2697 2.41602 19.853 2.41602 16.228V8.97795C2.41602 5.35295 4.83268 2.93628 8.45768 2.93628H20.541C24.166 2.93628 26.5827 5.35295 26.5827 8.97795V16.228C26.5827 19.853 24.166 22.2697 20.541 22.2697Z" stroke="#52525B" stroke-width="1.5" stroke-miterlimit="10" stroke-linecap="round" stroke-linejoin="round"/>
<path d="M14.4999 13.7267V13.473C14.4999 12.6513 15.0075 12.2163 15.515 11.8659C16.0104 11.5275 16.5057 11.0926 16.5057 10.2951C16.5057 9.18339 15.6116 8.28918 14.4999 8.28918C13.3883 8.28918 12.4941 9.18339 12.4941 10.2951" stroke="#52525B" stroke-width="1.5" stroke-linecap="round" stroke-linejoin="round"/>
<path d="M14.4952 16.6145H14.5061" stroke="#52525B" stroke-width="1.5" stroke-linecap="round" stroke-linejoin="round"/>
</svg>
