<svg width="29" height="29" viewBox="0 0 29 29" fill="none" xmlns="http://www.w3.org/2000/svg">
<path d="M11.0681 13.1345C10.9473 13.1225 10.8023 13.1225 10.6693 13.1345C7.79352 13.0379 5.50977 10.6816 5.50977 7.78163C5.50977 4.82121 7.90227 2.41663 10.8748 2.41663C13.8352 2.41663 16.2398 4.82121 16.2398 7.78163C16.2277 10.6816 13.9439 13.0379 11.0681 13.1345Z" stroke="#52525B" stroke-width="1.5" stroke-linecap="round" stroke-linejoin="round"/>
<path d="M19.829 4.83337C22.1731 4.83337 24.0581 6.73046 24.0581 9.06254C24.0581 11.3463 22.2456 13.2071 19.986 13.2917C19.8894 13.2796 19.7806 13.2796 19.6719 13.2917" stroke="#52525B" stroke-width="1.5" stroke-linecap="round" stroke-linejoin="round"/>
<path d="M5.02711 17.5934C2.10294 19.5509 2.10294 22.7409 5.02711 24.6863C8.35003 26.9096 13.7996 26.9096 17.1225 24.6863C20.0467 22.7288 20.0467 19.5388 17.1225 17.5934C13.8117 15.3821 8.36211 15.3821 5.02711 17.5934Z" stroke="#52525B" stroke-width="1.5" stroke-linecap="round" stroke-linejoin="round"/>
<path d="M22.1602 24.1666C23.0302 23.9854 23.8518 23.635 24.5285 23.1154C26.4135 21.7016 26.4135 19.3695 24.5285 17.9558C23.8639 17.4483 23.0543 17.11 22.1964 16.9166" stroke="#52525B" stroke-width="1.5" stroke-linecap="round" stroke-linejoin="round"/>
</svg>
